<?xml version="1.0" standalone="no"?>
<!DOCTYPE svg PUBLIC "-//W3C//DTD SVG 20010904//EN"
 "http://www.w3.org/TR/2001/REC-SVG-20010904/DTD/svg10.dtd">
<svg version="1.0" xmlns="http://www.w3.org/2000/svg"
 width="577.000000pt" height="433.000000pt" viewBox="0 0 577.000000 433.000000"
 preserveAspectRatio="xMidYMid meet">

<g transform="translate(0.000000,433.000000) scale(0.100000,-0.100000)"
fill="#000000" stroke="none">
<path d="M2175 2588 c17 -78 68 -151 121 -173 38 -15 125 -19 157 -6 17 6 16
8 -9 19 -40 19 -134 83 -134 92 0 10 72 -15 108 -37 48 -30 81 -66 93 -101 11
-33 13 -34 55 -29 58 6 92 30 115 80 20 45 26 151 9 162 -20 12 -79 -16 -114
-55 -24 -27 -37 -52 -41 -84 -9 -58 -19 -65 -36 -23 -42 104 -107 154 -221
168 -40 5 -81 12 -91 15 -17 5 -18 2 -12 -28z"/>
<path d="M1593 2466 c-46 -17 -110 -71 -140 -119 -31 -49 -63 -162 -63 -221 0
-23 9 -75 19 -118 29 -118 89 -192 189 -231 33 -13 76 -17 205 -17 169 0 189
4 225 48 31 39 -4 143 -53 156 -11 3 -78 6 -148 6 -139 0 -171 9 -201 54 -36
56 -29 164 15 220 20 26 22 26 147 26 153 0 196 10 217 50 25 48 19 94 -16
129 l-31 31 -166 -1 c-99 -1 -180 -6 -199 -13z"/>
<path d="M2848 2465 c-18 -10 -29 -26 -33 -48 -3 -17 -5 -184 -3 -369 3 -336
3 -336 26 -361 45 -48 133 -41 165 12 15 26 17 66 17 376 l0 347 -29 29 c-24
23 -38 29 -73 29 -24 -1 -55 -7 -70 -15z"/>
<path d="M4344 2404 c-29 -30 -47 -51 -40 -47 7 3 6 1 -1 -8 -10 -10 -13 -81
-13 -285 l0 -271 -25 -27 c-30 -32 -91 -36 -126 -7 -24 19 -24 22 -27 239 l-3
221 -42 -13 c-23 -8 -49 -15 -57 -17 -8 -2 -21 -11 -28 -19 -12 -13 -13 -13
-6 0 5 12 4 13 -6 3 -11 -10 -9 -24 8 -76 19 -60 82 -214 122 -303 10 -23 16
-45 13 -48 -12 -12 -179 -6 -195 7 -9 6 -21 29 -27 49 -16 50 -32 61 -83 54
-24 -3 -83 -5 -131 -5 -74 -1 -89 -4 -94 -18 -13 -37 -47 -76 -77 -88 -27 -11
-32 -19 -31 -47 l0 -33 418 -3 c397 -2 420 -2 462 17 27 12 52 33 65 53 19 31
20 49 19 358 0 179 -4 334 -9 345 -5 11 -9 16 -9 11 -1 -5 -7 -4 -13 2 -10 7
-26 -4 -64 -44z m65 22 c9 -11 9 -16 -1 -22 -7 -4 -10 -4 -6 1 4 4 3 14 -3 22
-6 7 -9 13 -6 13 2 0 10 -6 16 -14z"/>
<path d="M2289 2281 c-132 -28 -228 -192 -201 -342 15 -77 25 -99 68 -145 43
-45 92 -68 169 -78 44 -6 74 -3 177 20 21 5 29 2 34 -12 4 -11 16 -29 27 -41
29 -32 107 -32 137 -1 19 21 20 34 20 294 0 234 -2 275 -16 288 -22 22 -131
22 -155 0 -17 -15 -21 -15 -52 0 -40 18 -156 28 -208 17z m191 -210 c27 -19
36 -61 25 -117 -5 -30 -12 -35 -60 -50 -51 -17 -56 -16 -93 0 -60 27 -77 78
-46 137 29 57 115 72 174 30z"/>
</g>
</svg>
