<svg width="694" height="694" viewBox="0 0 694 694" fill="none" xmlns="http://www.w3.org/2000/svg">
<path d="M105.959 319.795C-27.1636 396.649 -27.1636 521.264 105.959 598.117C239.083 674.971 454.93 674.985 588.04 598.117C721.149 521.25 721.163 396.649 588.04 319.795C454.917 242.942 239.069 242.9 105.959 319.795Z" fill="#31353F"/>
<path d="M622.019 319.753C621.325 320.433 620.214 321.377 618.799 322.529C609.929 330.08 589.262 347.638 586.653 372.122L583.793 371.387C583.543 344.557 602.462 317.061 615.481 311.495C615.555 311.464 615.621 311.42 615.677 311.363C615.733 311.307 615.778 311.24 615.807 311.166C615.837 311.092 615.852 311.014 615.851 310.934C615.849 310.855 615.832 310.776 615.801 310.703C615.736 310.558 615.618 310.442 615.47 310.383C615.322 310.323 615.157 310.324 615.009 310.384C601.879 315.936 582.447 342.919 582.586 371.081L580.656 370.582C579.935 368.139 575.687 351.15 587.499 328.734C589.477 324.991 591.751 321.412 594.3 318.032L594.425 317.893C602.642 307.192 612.372 301.085 619.049 303.264C620.591 303.672 621.997 304.484 623.122 305.616C624.246 306.748 625.049 308.159 625.447 309.704C625.797 311.533 625.664 313.421 625.063 315.182C624.462 316.944 623.413 318.52 622.019 319.753Z" fill="#A1A1A1"/>
<path d="M606.82 294.658C601.476 302.32 595.938 310.246 593.37 317.338C590.751 320.766 588.429 324.411 586.43 328.234C583.114 334.436 580.711 341.083 579.295 347.972C578.213 307.206 600.574 275.24 607.402 269.536C607.463 269.485 607.513 269.423 607.549 269.352C607.586 269.282 607.608 269.206 607.614 269.127C607.621 269.048 607.611 268.969 607.587 268.894C607.563 268.818 607.523 268.749 607.472 268.689C607.369 268.568 607.224 268.491 607.065 268.476C606.907 268.46 606.749 268.507 606.625 268.606C599.352 274.657 574.826 309.885 578.393 353.871C578.385 353.893 578.385 353.918 578.393 353.94C577.758 359.383 578.059 364.894 579.282 370.235L575.909 369.208C575.007 366.154 567.983 340.296 573.757 306.04C576.825 287.732 587.429 269.952 598.977 263.651C604.321 260.763 609.554 260.389 614.537 262.554C615.689 262.947 616.735 263.601 617.592 264.465C618.45 265.33 619.095 266.381 619.478 267.537C621.296 273.908 614.259 283.985 606.82 294.658Z" fill="#A1A1A1"/>
<path d="M626.627 309.524C626.173 307.779 625.269 306.183 624.005 304.897C622.74 303.611 621.161 302.679 619.423 302.195C613.011 300.1 604.058 304.971 596.063 314.077C595.161 315.118 594.259 316.214 593.371 317.366C590.751 320.794 588.43 324.439 586.431 328.262C583.115 334.463 580.712 341.111 579.296 347.999C578.88 350.095 578.602 352.163 578.408 353.968C577.773 359.41 578.073 364.922 579.296 370.263C579.463 370.957 579.588 371.346 579.602 371.373C579.655 371.512 579.759 371.626 579.893 371.693H580.004L582.919 372.442L587 373.483C587.077 373.504 587.158 373.504 587.236 373.483C587.329 373.469 587.419 373.436 587.499 373.386C587.569 373.336 587.627 373.272 587.67 373.197C587.713 373.123 587.74 373.041 587.749 372.956C589.984 348.596 610.707 330.983 619.562 323.46C620.95 322.252 622.116 321.294 622.838 320.573C624.363 319.21 625.513 317.478 626.176 315.543C626.84 313.609 626.995 311.536 626.627 309.524ZM622.019 319.781C621.325 320.462 620.214 321.405 618.799 322.557C609.929 330.108 589.262 347.666 586.653 372.151L583.793 371.415L582.586 371.11L580.656 370.61C579.935 368.167 575.687 351.178 587.499 328.762C589.477 325.019 591.751 321.44 594.301 318.06L594.425 317.921C602.642 307.22 612.372 301.113 619.049 303.292C620.591 303.7 621.997 304.512 623.122 305.644C624.246 306.776 625.049 308.187 625.447 309.732C625.792 311.557 625.657 313.439 625.056 315.196C624.455 316.952 623.408 318.523 622.019 319.754V319.781Z" fill="#2B6777"/>
<path d="M615.481 311.551C602.462 317.103 583.557 344.613 583.793 371.443V371.984C583.798 372.128 583.75 372.268 583.657 372.378C583.565 372.488 583.436 372.56 583.293 372.581H583.196H582.946C582.845 372.531 582.759 372.454 582.698 372.358C582.637 372.263 582.603 372.153 582.599 372.04C582.599 371.776 582.599 371.512 582.599 371.248C582.461 343.086 601.893 316.131 615.023 310.551C615.171 310.491 615.336 310.49 615.484 310.55C615.631 310.609 615.75 310.724 615.814 310.87C615.846 311.005 615.83 311.146 615.769 311.27C615.709 311.394 615.607 311.493 615.481 311.551Z" fill="#2B6777"/>
<path d="M607.805 295.352C603.428 301.281 599.502 307.531 596.063 314.049C595.452 315.353 594.911 316.617 594.467 317.866C594.467 317.866 593.912 318.31 593.69 318.227C593.539 318.17 593.417 318.057 593.35 317.912C593.282 317.766 593.275 317.6 593.329 317.449V317.338C595.896 310.246 601.435 302.32 606.778 294.658C614.218 283.985 621.255 273.908 619.451 267.537C619.068 266.381 618.422 265.33 617.565 264.465C616.708 263.601 615.662 262.947 614.51 262.554C609.527 260.389 604.294 260.763 598.95 263.65C587.402 269.91 576.742 287.732 573.73 306.04C567.956 340.296 574.979 366.154 575.881 369.208L579.254 370.235L580.309 370.554C580.464 370.602 580.593 370.71 580.668 370.853C580.744 370.996 580.759 371.163 580.712 371.318C580.676 371.424 580.612 371.519 580.526 371.593C580.441 371.666 580.337 371.715 580.226 371.734C580.139 371.755 580.049 371.755 579.962 371.734H579.851L575.215 370.346C575.121 370.317 575.034 370.265 574.964 370.195C574.894 370.124 574.842 370.038 574.813 369.944C574.729 369.68 566.36 342.489 572.523 305.901C575.673 287.26 586.527 269.064 598.367 262.651C604.058 259.57 609.652 259.181 615.023 261.513C616.326 261.984 617.503 262.746 618.465 263.742C619.428 264.738 620.149 265.941 620.575 267.259C622.602 274.13 615.426 284.443 607.805 295.352Z" fill="#2B6777"/>
<path d="M607.403 269.536C600.574 275.24 578.255 307.206 579.296 347.972C579.296 349.887 579.449 351.83 579.602 353.774C579.618 353.926 579.575 354.078 579.482 354.199C579.389 354.321 579.253 354.402 579.102 354.426C578.953 354.435 578.806 354.389 578.688 354.297C578.57 354.205 578.491 354.073 578.464 353.926C578.455 353.904 578.455 353.879 578.464 353.857C574.896 309.871 599.422 274.644 606.696 268.592C606.82 268.493 606.978 268.446 607.136 268.462C607.294 268.477 607.44 268.554 607.542 268.675C607.592 268.74 607.628 268.814 607.649 268.893C607.669 268.972 607.673 269.055 607.66 269.136C607.646 269.216 607.617 269.293 607.573 269.362C607.529 269.431 607.471 269.49 607.403 269.536Z" fill="#2B6777"/>
<path d="M384.948 119.576L371.984 127.058C371.984 126.475 372.095 125.906 372.095 125.336V121.589C372.095 114.913 367.404 112.206 361.616 115.551C359.131 117.078 357.005 119.123 355.384 121.547C354.44 113.219 347.847 110.027 339.852 114.607C331.205 119.59 324.195 131.735 324.195 141.729V147.281C324.139 149.522 324.59 151.748 325.514 153.79L314.771 159.995C313.078 161.093 311.668 162.575 310.658 164.322C309.647 166.068 309.064 168.029 308.955 170.044C308.955 173.75 311.551 175.249 314.771 173.403L384.934 132.887C386.625 131.788 388.031 130.304 389.04 128.558C390.048 126.812 390.629 124.852 390.736 122.838C390.75 119.229 388.154 117.73 384.948 119.576Z" fill="#EBEBEB"/>
<path d="M464.245 127.696L454.529 133.332C454.529 132.901 454.612 132.471 454.612 132.041V129.265C454.612 124.226 451.072 122.186 446.714 124.712C444.831 125.86 443.221 127.404 441.995 129.237C441.287 122.894 436.318 120.534 430.28 124.032C423.757 127.793 418.454 136.954 418.454 144.491V148.655C418.408 150.349 418.755 152.031 419.468 153.569L411.292 158.232C410.015 159.059 408.951 160.177 408.188 161.494C407.426 162.812 406.987 164.291 406.906 165.811C406.906 168.587 408.863 169.739 411.292 168.351L464.245 137.815C465.52 136.982 466.581 135.86 467.343 134.542C468.105 133.223 468.546 131.743 468.631 130.222C468.631 127.405 466.66 126.308 464.245 127.696Z" fill="#EBEBEB"/>
<path d="M385.863 554.159L375.481 548.163L383.032 543.805C384.387 543.147 385.529 542.121 386.328 540.845C387.128 539.569 387.552 538.093 387.552 536.587C387.552 535.081 387.128 533.605 386.328 532.329C385.529 531.053 384.387 530.027 383.032 529.369L364.238 518.515C361.967 517.321 359.44 516.698 356.875 516.698C354.309 516.698 351.782 517.321 349.512 518.515L336.825 525.844L271.284 487.993C269.032 486.756 266.496 486.129 263.927 486.175C261.353 486.119 258.81 486.747 256.557 487.993L229.769 503.469C227.855 504.448 226.207 505.877 224.966 507.633C223.756 509.733 223.389 512.213 223.939 514.573L237.819 583.973C238.624 587.457 241.234 590.497 245.578 593.009L264.33 603.78C266.572 605.028 269.107 605.656 271.673 605.598C274.229 605.65 276.753 605.023 278.987 603.78L332.3 573.008L347.818 581.961C350.09 583.15 352.617 583.771 355.182 583.771C357.746 583.771 360.273 583.15 362.545 581.961L385.863 568.594C387.223 567.941 388.37 566.916 389.173 565.639C389.975 564.363 390.401 562.885 390.401 561.377C390.401 559.868 389.975 558.391 389.173 557.114C388.37 555.837 387.223 554.813 385.863 554.159ZM282.624 557.129L279.515 541.5L294.602 550.217L282.624 557.129Z" fill="#A1A1A1"/>
<path d="M87.846 548.746C98.5774 552.66 108.79 557.871 118.257 564.263C128.889 571.453 138.619 580.184 149.904 586.111C164.644 593.869 181.605 596.673 198.206 595.827C207.603 595.369 217.832 593.314 223.884 585.902C225.52 584.044 226.496 581.697 226.66 579.226C226.66 575.617 224.259 572.508 221.705 570.01C208.2 556.768 189.115 551.3 170.724 547.011C152.333 542.722 141.326 537.392 123.296 527.759C115.578 523.595 108.028 519.195 100.199 515.267L100.005 515.17C96.1724 513.071 92.2294 511.181 88.193 509.507C82.877 507.55 78.477 506.12 72.5919 506.564C66.7068 507.008 60.0999 506.911 56.047 511.672C54.3724 513.679 53.3095 516.125 52.9847 518.718C52.6599 521.312 53.0868 523.944 54.2148 526.302C59.9334 539.488 75.5484 544.262 87.846 548.746Z" fill="#333333"/>
<path d="M490.227 446.173C485.522 443.188 480.331 440.052 474.779 436.845C469.227 433.639 463.675 430.613 458.248 427.726C450.914 423.973 443.211 420.992 435.262 418.829C426.768 416.517 418.012 415.304 409.21 415.22H408.071C399.182 415.268 390.33 416.367 381.699 418.496C371.817 420.974 362.339 424.848 353.551 430.002C343.987 435.554 337.256 441.106 332.994 446.894C328.539 453.015 326.388 459.206 326.596 465.313C326.951 471.741 329.459 477.862 333.716 482.691C338.293 488.068 343.667 492.712 349.65 496.46C354.508 499.541 359.825 502.747 365.446 505.995C371.067 509.243 376.55 512.241 381.616 514.92C388.957 518.664 396.664 521.641 404.615 523.803C413.103 526.124 421.855 527.337 430.654 527.412H431.876C440.765 527.368 449.618 526.269 458.248 524.137C468.131 521.661 477.609 517.787 486.396 512.63C495.973 507.078 502.705 501.526 506.953 495.738C511.422 489.631 513.573 483.427 513.351 477.319C512.999 470.891 510.49 464.769 506.231 459.942C501.628 454.565 496.231 449.922 490.227 446.173ZM458.303 482.927C457.817 483.662 456.471 485.203 452.751 487.341C449.957 489.007 446.924 490.233 443.757 490.977C441.505 491.474 439.206 491.73 436.9 491.741C436.289 491.741 435.679 491.741 435.068 491.741C432.232 491.563 429.432 491.012 426.74 490.103C423.776 489.087 420.898 487.833 418.134 486.355C408.037 481.203 398.215 475.528 388.709 469.352C386.548 468.058 384.553 466.506 382.768 464.73C381.85 463.881 381.175 462.803 380.811 461.607C380.811 461.441 380.658 460.899 381.408 459.747C381.894 459.026 383.24 457.485 386.96 455.333C389.751 453.666 392.786 452.443 395.954 451.711C398.105 451.232 400.302 450.985 402.506 450.975C403.186 450.975 403.894 450.975 404.49 451.044C407.327 451.253 410.125 451.823 412.818 452.738C415.814 453.752 418.74 454.962 421.577 456.361C431.667 461.607 441.592 467.326 451.099 473.308C453.299 474.647 455.351 476.215 457.221 477.986C458.103 478.743 458.745 479.741 459.067 480.859C459.039 481.067 459.15 481.636 458.331 482.927H458.303Z" fill="#A1A1A1"/>
<path d="M644.947 404.56L634.565 398.564L642.116 394.206C643.471 393.548 644.613 392.523 645.412 391.246C646.212 389.97 646.636 388.494 646.636 386.988C646.636 385.482 646.212 384.007 645.412 382.73C644.613 381.454 643.471 380.428 642.116 379.771L623.308 368.916C621.038 367.723 618.511 367.099 615.945 367.099C613.38 367.099 610.852 367.723 608.582 368.916L595.895 376.231L530.354 338.394C528.083 337.2 525.556 336.577 522.991 336.577C520.425 336.577 517.898 337.2 515.627 338.394L488.853 353.857C486.932 354.832 485.279 356.261 484.036 358.021C482.823 360.119 482.456 362.601 483.009 364.961L496.889 434.361C497.694 437.845 500.304 440.884 504.648 443.397L523.456 454.251C525.698 455.499 528.233 456.126 530.798 456.069C533.368 456.128 535.908 455.5 538.155 454.251L591.468 423.465L606.986 432.431C609.256 433.625 611.783 434.249 614.349 434.249C616.914 434.249 619.441 433.625 621.712 432.431L644.933 419.023C646.293 418.37 647.44 417.345 648.243 416.068C649.045 414.792 649.471 413.314 649.471 411.806C649.471 410.297 649.045 408.82 648.243 407.543C647.44 406.266 646.293 405.242 644.933 404.588L644.947 404.56ZM541.708 407.517L538.543 391.902L553.631 400.604L541.708 407.517Z" fill="#A1A1A1"/>
<path d="M494.808 552.424C495.175 552.253 495.576 552.164 495.981 552.164C496.386 552.164 496.786 552.253 497.154 552.424L501.748 555.089C501.883 555.143 501.999 555.234 502.083 555.352C502.166 555.471 502.214 555.611 502.22 555.755C502.212 555.901 502.163 556.042 502.08 556.162C501.997 556.282 501.882 556.377 501.748 556.436L481.206 568.303C480.841 568.485 480.44 568.58 480.033 568.58C479.626 568.58 479.224 568.485 478.86 568.303L450.85 552.133C450.716 552.072 450.601 551.977 450.516 551.858C450.43 551.739 450.378 551.599 450.364 551.453C450.379 551.307 450.432 551.168 450.517 551.048C450.603 550.929 450.717 550.834 450.85 550.772L471.059 539.113C471.421 538.93 471.82 538.835 472.225 538.835C472.63 538.835 473.03 538.93 473.391 539.113L477.985 541.764C478.121 541.822 478.238 541.916 478.324 542.036C478.409 542.156 478.46 542.297 478.471 542.444C478.459 542.591 478.407 542.731 478.322 542.851C478.236 542.971 478.12 543.065 477.985 543.125L464.633 550.828L469.324 553.535L481.719 546.373C482.083 546.19 482.485 546.096 482.892 546.096C483.299 546.096 483.701 546.19 484.065 546.373L488.659 549.024C488.793 549.082 488.908 549.177 488.991 549.297C489.074 549.417 489.123 549.558 489.131 549.704C489.121 549.849 489.072 549.989 488.989 550.109C488.906 550.229 488.792 550.324 488.659 550.384L476.25 557.532L481.108 560.308L494.808 552.424Z" fill="#455A64"/>
<path d="M501.665 530.494C502.029 530.312 502.431 530.217 502.838 530.217C503.245 530.217 503.646 530.312 504.011 530.494L508.383 533.02C508.517 533.078 508.632 533.173 508.715 533.293C508.798 533.413 508.847 533.554 508.855 533.7C508.845 533.845 508.796 533.985 508.713 534.105C508.63 534.225 508.516 534.32 508.383 534.38L504.441 536.656C501.776 538.183 501.776 539.724 504.441 541.251L515.101 547.413C515.236 547.471 515.353 547.565 515.439 547.685C515.524 547.805 515.576 547.946 515.587 548.093C515.574 548.24 515.522 548.38 515.437 548.5C515.351 548.62 515.235 548.714 515.101 548.774L509.646 551.924C509.282 552.106 508.88 552.201 508.473 552.201C508.066 552.201 507.664 552.106 507.3 551.924L487.091 540.251C486.94 540.208 486.807 540.117 486.713 539.992C486.618 539.867 486.567 539.714 486.567 539.557C486.567 539.4 486.618 539.248 486.713 539.123C486.807 538.997 486.94 538.906 487.091 538.863L492.129 535.962C492.491 535.779 492.89 535.684 493.295 535.684C493.7 535.684 494.1 535.779 494.461 535.962L495.461 536.531C495.521 535.703 495.815 534.909 496.307 534.241C497.058 533.288 498.005 532.507 499.083 531.951L501.665 530.494Z" fill="#455A64"/>
<path d="M522.651 518.377C523.009 518.184 523.411 518.088 523.817 518.099C524.228 518.088 524.634 518.184 524.997 518.377L529.369 520.903C529.503 520.961 529.618 521.056 529.701 521.176C529.785 521.296 529.833 521.437 529.841 521.583C529.832 521.728 529.783 521.868 529.699 521.988C529.616 522.108 529.502 522.203 529.369 522.263L525.427 524.539C522.762 526.066 522.762 527.602 525.427 529.147L536.087 535.296C536.223 535.352 536.34 535.446 536.423 535.567C536.507 535.687 536.554 535.83 536.559 535.976C536.549 536.122 536.5 536.262 536.417 536.382C536.334 536.502 536.22 536.597 536.087 536.657L530.632 539.807C530.268 539.989 529.867 540.084 529.46 540.084C529.052 540.084 528.651 539.989 528.287 539.807L508.077 528.134C507.945 528.078 507.83 527.986 507.747 527.868C507.664 527.75 507.615 527.612 507.605 527.468C507.614 527.322 507.662 527.181 507.745 527.061C507.829 526.941 507.944 526.847 508.077 526.788L513.116 523.887C513.473 523.693 513.875 523.597 514.282 523.609C514.688 523.599 515.09 523.694 515.448 523.887L516.447 524.456C516.508 523.628 516.801 522.834 517.294 522.166C518.045 521.213 518.991 520.432 520.07 519.876L522.651 518.377Z" fill="#455A64"/>
<path d="M559.933 508.008C560.405 508.244 560.974 508.549 561.654 508.938C562.334 509.327 562.861 509.66 563.278 509.937C564.457 510.626 565.464 511.576 566.22 512.713C566.836 513.664 567.119 514.791 567.025 515.92C566.866 517.165 566.339 518.334 565.512 519.279C564.377 520.582 563.019 521.672 561.501 522.499C559.758 523.507 557.892 524.287 555.949 524.817C554.055 525.329 552.108 525.623 550.147 525.691C548.284 525.752 546.421 525.593 544.595 525.219C542.903 524.89 541.267 524.319 539.737 523.526C539.279 523.29 538.71 522.971 538.03 522.582C537.35 522.193 536.809 521.86 536.406 521.597C535.201 520.921 534.174 519.97 533.408 518.821C532.798 517.858 532.525 516.721 532.631 515.586C532.802 514.338 533.332 513.166 534.157 512.214C535.267 510.892 536.619 509.794 538.141 508.98C539.881 507.968 541.748 507.193 543.693 506.676C545.607 506.17 547.572 505.876 549.55 505.801C551.413 505.727 553.277 505.881 555.102 506.259C556.788 506.607 558.415 507.196 559.933 508.008ZM547.274 518.918C548.446 519.495 549.744 519.771 551.049 519.723C552.364 519.671 553.645 519.3 554.783 518.64C555.935 517.974 556.56 517.252 556.643 516.489C556.726 515.725 556.268 515.004 555.255 514.31C554.81 513.982 554.347 513.681 553.867 513.407C553.359 513.116 552.835 512.852 552.299 512.616C551.134 512.031 549.839 511.754 548.537 511.811C547.224 511.856 545.941 512.223 544.803 512.88C543.651 513.56 543.027 514.268 542.944 515.045C542.86 515.822 543.318 516.53 544.332 517.224C544.774 517.551 545.237 517.848 545.72 518.113C546.221 518.399 546.741 518.654 547.274 518.876V518.918Z" fill="#455A64"/>
<path d="M571.204 490.339C571.568 490.157 571.97 490.062 572.377 490.062C572.784 490.062 573.186 490.157 573.55 490.339L577.936 492.865C578.069 492.925 578.183 493.02 578.266 493.14C578.349 493.26 578.398 493.4 578.408 493.545C578.4 493.691 578.351 493.832 578.268 493.952C578.185 494.072 578.07 494.166 577.936 494.225L573.98 496.502C571.334 498.028 571.334 499.564 573.98 501.11L584.654 507.259C584.787 507.319 584.901 507.413 584.984 507.533C585.067 507.653 585.116 507.793 585.126 507.939C585.117 508.085 585.069 508.225 584.986 508.345C584.902 508.465 584.788 508.56 584.654 508.619L579.185 511.77C578.827 511.962 578.425 512.058 578.019 512.047C577.613 512.059 577.211 511.963 576.853 511.77L556.588 500.11C556.454 500.051 556.338 499.957 556.252 499.837C556.167 499.717 556.115 499.577 556.103 499.43C556.114 499.283 556.165 499.142 556.25 499.022C556.336 498.902 556.453 498.808 556.588 498.75L561.613 495.849C561.977 495.667 562.379 495.572 562.786 495.572C563.193 495.572 563.594 495.667 563.959 495.849L564.958 496.418C565.012 495.589 565.307 494.793 565.805 494.128C566.552 493.171 567.499 492.39 568.581 491.838L571.204 490.339Z" fill="#455A64"/>
<path d="M381.2 540.737L357.965 554.145C356.482 554.893 354.844 555.283 353.183 555.283C351.522 555.283 349.884 554.893 348.401 554.145L330.357 543.707L274.421 576.02C272.931 576.76 271.289 577.145 269.625 577.145C267.962 577.145 266.32 576.76 264.83 576.02L246.036 565.152C242.955 563.394 241.178 561.483 240.706 559.419L226.826 490.186C226.755 489.778 226.723 489.365 226.729 488.951C226.729 490.339 226.729 507.564 226.729 508.383C226.737 508.741 226.769 509.098 226.826 509.451L240.706 578.685C241.178 580.739 242.955 582.65 246.036 584.417L264.83 595.271C266.318 596.02 267.96 596.409 269.625 596.409C271.291 596.409 272.933 596.02 274.421 595.271L330.344 563L348.388 573.438C349.87 574.186 351.508 574.576 353.169 574.576C354.83 574.576 356.468 574.186 357.951 573.438L381.186 560.03C381.737 559.793 382.211 559.408 382.556 558.918C382.902 558.428 383.105 557.852 383.143 557.254V537.961C383.105 538.557 382.903 539.132 382.56 539.621C382.218 540.111 381.747 540.497 381.2 540.737Z" fill="#2B6777"/>
<path d="M380.312 532.478V513.185C380.268 513.782 380.062 514.355 379.718 514.844C379.373 515.333 378.902 515.719 378.355 515.961L363.087 524.761L379.562 534.269C380.02 533.782 380.286 533.146 380.312 532.478Z" fill="#2B6777"/>
<path d="M274.518 529.758L286.081 536.462L302.806 526.815L270.16 507.952L274.505 529.758H274.518Z" fill="#2B6777"/>
<path opacity="0.35" d="M274.518 529.758L286.081 536.462L302.806 526.815L270.16 507.952L274.505 529.758H274.518Z" fill="black"/>
<path opacity="0.2" d="M380.312 532.478V513.185C380.268 513.782 380.062 514.355 379.718 514.844C379.373 515.333 378.902 515.719 378.355 515.961L363.087 524.761L379.562 534.269C380.02 533.782 380.286 533.146 380.312 532.478Z" fill="black"/>
<path opacity="0.2" d="M381.2 540.737L357.964 554.145C356.499 554.948 354.845 555.341 353.176 555.283V574.632C354.845 574.69 356.499 574.296 357.964 573.494L381.2 560.086C381.75 559.849 382.224 559.464 382.57 558.974C382.915 558.484 383.118 557.908 383.157 557.31V538.017C383.107 538.605 382.899 539.168 382.554 539.647C382.209 540.126 381.741 540.503 381.2 540.737Z" fill="black"/>
<path opacity="0.25" d="M240.706 559.364L226.826 490.13C226.755 489.723 226.723 489.309 226.729 488.895C226.729 490.283 226.729 507.508 226.729 508.327C226.737 508.685 226.769 509.042 226.826 509.396L240.706 578.629C240.8 579.034 240.945 579.426 241.137 579.795V560.502C240.947 560.142 240.803 559.759 240.706 559.364Z" fill="black"/>
<path opacity="0.35" d="M269.632 577.102C267.961 577.147 266.307 576.76 264.83 575.978L246.036 565.11C243.981 564.115 242.274 562.524 241.137 560.543V579.837C242.274 581.817 243.981 583.408 246.036 584.403L264.83 595.257C266.303 596.052 267.959 596.444 269.632 596.395C269.808 596.416 269.985 596.416 270.16 596.395V577.102C269.985 577.123 269.808 577.123 269.632 577.102Z" fill="black"/>
<path opacity="0.2" d="M274.421 576.02C273.112 576.727 271.648 577.099 270.16 577.102V596.395C271.65 596.395 273.116 596.018 274.421 595.299L330.344 563V543.707L274.421 576.02Z" fill="black"/>
<path opacity="0.35" d="M348.388 554.145L330.344 543.707V563L348.388 573.438C349.847 574.242 351.497 574.635 353.162 574.576V555.283C351.497 555.342 349.847 554.949 348.388 554.145Z" fill="black"/>
<path d="M357.965 554.145C356.479 554.893 354.839 555.283 353.176 555.283C351.513 555.283 349.873 554.893 348.388 554.145L330.344 543.707L274.421 576.02C272.933 576.759 271.294 577.144 269.632 577.144C267.971 577.144 266.332 576.759 264.844 576.02L246.036 565.166C242.974 563.389 241.202 561.478 240.72 559.433L226.84 490.2C226.563 489.133 226.686 488.002 227.187 487.021C228.003 485.989 229.036 485.15 230.213 484.564L256.988 469.102C258.462 468.311 260.118 467.923 261.79 467.978C263.453 467.923 265.101 468.311 266.565 469.102L334.688 508.424L349.956 499.624C351.441 498.876 353.081 498.486 354.745 498.486C356.408 498.486 358.048 498.876 359.533 499.624L378.341 510.478C378.922 510.674 379.427 511.047 379.785 511.545C380.143 512.043 380.336 512.641 380.336 513.254C380.336 513.868 380.143 514.466 379.785 514.964C379.427 515.462 378.922 515.835 378.341 516.03L363.073 524.844L381.117 535.282C381.691 535.484 382.189 535.86 382.542 536.357C382.894 536.854 383.083 537.449 383.083 538.058C383.083 538.667 382.894 539.262 382.542 539.759C382.189 540.256 381.691 540.632 381.117 540.834L357.965 554.145ZM302.792 526.801L270.16 508.008L276.906 541.806L302.792 526.801Z" fill="#2B6777"/>
<path d="M506.093 455.083C506.009 459.733 504.177 464.48 500.652 469.31C496.876 474.501 490.552 479.655 481.678 484.773C473.317 489.686 464.296 493.378 454.889 495.738C446.265 497.883 437.404 498.932 428.517 498.861C420.159 498.788 411.846 497.635 403.783 495.432C396.169 493.37 388.791 490.519 381.769 486.924C376.689 484.259 371.387 481.372 365.807 478.11C360.228 474.848 355.05 471.781 350.206 468.7C344.679 465.247 339.716 460.964 335.494 455.999C331.95 452.051 329.855 447.014 329.553 441.717C329.65 444.77 329.428 457.623 329.553 461.01C329.855 466.307 331.95 471.344 335.494 475.293C339.716 480.257 344.679 484.541 350.206 487.993C355.046 491.074 360.246 494.211 365.807 497.403C371.359 500.61 376.689 503.552 381.769 506.231C388.794 509.815 396.172 512.662 403.783 514.726C411.846 516.929 420.159 518.081 428.517 518.154C437.404 518.226 446.265 517.176 454.889 515.031C464.296 512.671 473.317 508.979 481.678 504.066C490.561 498.939 496.886 493.785 500.652 488.603C504.441 483.426 506.204 478.346 506.065 473.405C505.968 470.532 506.148 459.428 506.093 455.083Z" fill="#2B6777"/>
<path opacity="0.35" d="M433.278 498.764C431.695 498.764 430.113 498.889 428.545 498.861C420.187 498.788 411.873 497.635 403.81 495.432C396.196 493.37 388.819 490.519 381.797 486.924C376.717 484.259 371.415 481.372 365.835 478.11C360.255 474.848 355.078 471.781 350.234 468.7C344.706 465.247 339.743 460.964 335.521 455.999C331.977 452.051 329.882 447.014 329.58 441.717C329.677 444.77 329.455 457.623 329.58 461.01C329.882 466.307 331.977 471.344 335.521 475.293C339.743 480.257 344.706 484.541 350.234 487.993C355.073 491.074 360.274 494.211 365.835 497.403C371.387 500.61 376.717 503.552 381.797 506.231C388.822 509.815 396.199 512.662 403.81 514.726C411.873 516.929 420.187 518.081 428.545 518.154C430.113 518.154 431.695 518.154 433.278 518.057V498.764Z" fill="black"/>
<path opacity="0.2" d="M506.093 455.083C506.009 459.733 504.177 464.48 500.652 469.31C496.876 474.502 490.552 479.656 481.678 484.773C473.317 489.686 464.296 493.379 454.889 495.738C447.811 497.474 440.575 498.488 433.292 498.764V518.057C440.574 517.774 447.81 516.76 454.889 515.031C464.296 512.672 473.317 508.979 481.678 504.066C490.561 498.94 496.886 493.786 500.652 488.604C504.441 483.426 506.204 478.346 506.065 473.405C505.968 470.532 506.148 459.428 506.093 455.083Z" fill="black"/>
<path d="M377.022 444.84C378.096 445.939 379.251 446.955 380.478 447.88C381.075 447.491 381.672 447.102 382.338 446.714C385.597 444.806 389.125 443.403 392.804 442.55C396.095 441.818 399.475 441.565 402.839 441.8C406.104 442.038 409.327 442.686 412.43 443.729C415.681 444.832 418.861 446.135 421.952 447.63C432.232 453.043 442.166 458.785 451.752 464.855C453.001 465.632 454.153 466.437 455.208 467.214C457.32 465.974 459.157 464.316 460.608 462.343C461.826 460.655 462.325 458.554 461.996 456.499C461.489 454.36 460.347 452.424 458.72 450.947C456.583 448.914 454.233 447.118 451.71 445.589C442.115 439.482 432.195 433.731 421.952 428.337C418.876 426.829 415.71 425.512 412.472 424.395C409.368 423.351 406.146 422.703 402.881 422.465C399.516 422.228 396.135 422.485 392.845 423.229C389.164 424.074 385.635 425.478 382.38 427.393C379.542 428.841 377.062 430.904 375.121 433.431C374.505 434.249 374.064 435.185 373.825 436.18C373.586 437.176 373.555 438.21 373.733 439.218C374.307 441.353 375.443 443.294 377.022 444.84Z" fill="#2B6777"/>
<path opacity="0.35" d="M377.022 444.84C378.096 445.939 379.251 446.955 380.478 447.88C381.075 447.491 381.672 447.102 382.338 446.714C385.597 444.806 389.125 443.403 392.804 442.55C396.095 441.818 399.475 441.565 402.839 441.8C406.104 442.038 409.327 442.686 412.43 443.729C415.681 444.832 418.861 446.135 421.952 447.63C432.232 453.043 442.166 458.785 451.752 464.855C453.001 465.632 454.153 466.437 455.208 467.214C457.32 465.974 459.157 464.316 460.608 462.343C461.826 460.655 462.325 458.554 461.996 456.499C461.489 454.36 460.347 452.424 458.72 450.947C456.583 448.914 454.233 447.118 451.71 445.589C442.115 439.482 432.195 433.731 421.952 428.337C418.876 426.829 415.71 425.512 412.472 424.395C409.368 423.351 406.146 422.703 402.881 422.465C399.516 422.228 396.135 422.485 392.845 423.229C389.164 424.074 385.635 425.478 382.38 427.393C379.542 428.841 377.062 430.904 375.121 433.431C374.505 434.249 374.064 435.185 373.825 436.18C373.586 437.176 373.555 438.21 373.733 439.218C374.307 441.353 375.443 443.294 377.022 444.84Z" fill="black"/>
<path d="M353.94 411.042C362.298 406.124 371.32 402.431 380.728 400.077C389.354 397.938 398.214 396.889 407.1 396.954C415.462 397.033 423.78 398.185 431.848 400.382C439.465 402.449 446.847 405.3 453.876 408.891C459.196 411.667 464.637 414.67 470.199 417.899C475.76 421.128 480.849 424.2 485.467 427.115C490.992 430.571 495.954 434.854 500.179 439.815C503.713 443.772 505.811 448.803 506.134 454.098C506.31 459.049 504.505 464.138 500.721 469.366C496.936 474.594 490.574 479.73 481.636 484.773C473.275 489.686 464.254 493.379 454.847 495.738C446.222 497.877 437.362 498.926 428.475 498.861C420.112 498.785 411.794 497.628 403.727 495.419C396.118 493.361 388.745 490.514 381.728 486.924C376.647 484.259 371.327 481.326 365.766 478.124C360.204 474.923 354.999 471.781 350.151 468.7C344.628 465.24 339.667 460.957 335.438 456C331.901 452.04 329.803 447.003 329.483 441.703C329.317 436.762 331.121 431.673 334.896 426.435C338.672 421.198 345.02 416.067 353.94 411.042ZM451.71 445.548C442.115 439.478 432.181 433.745 421.91 428.351C418.832 426.833 415.661 425.511 412.416 424.395C409.317 423.352 406.1 422.699 402.839 422.452C399.474 422.226 396.094 422.488 392.804 423.229C389.123 424.074 385.593 425.478 382.338 427.393C379.5 428.842 377.02 430.904 375.079 433.431C374.459 434.247 374.016 435.183 373.777 436.179C373.538 437.175 373.509 438.21 373.691 439.219C374.25 441.336 375.384 443.257 376.967 444.771C379.054 446.852 381.384 448.674 383.907 450.198C393.534 456.444 403.481 462.184 413.707 467.395C416.697 468.996 419.811 470.351 423.021 471.448C427.983 473.157 433.259 473.763 438.481 473.224C443.702 472.685 448.743 471.013 453.251 468.325C456.1 466.88 458.586 464.811 460.524 462.273C461.74 460.59 462.24 458.494 461.912 456.444C461.41 454.3 460.262 452.362 458.623 450.892C456.519 448.866 454.201 447.074 451.71 445.548Z" fill="#2B6777"/>
<path d="M640.312 391.138L617.077 404.547C615.594 405.294 613.956 405.684 612.295 405.684C610.634 405.684 608.997 405.294 607.514 404.547L589.47 394.095L533.589 426.366C532.103 427.114 530.463 427.504 528.8 427.504C527.137 427.504 525.497 427.114 524.012 426.366L505.204 415.512C502.123 413.749 500.36 411.834 499.874 409.779L485.994 340.546C485.924 340.138 485.891 339.724 485.897 339.311C485.897 340.699 485.897 357.924 485.897 358.743C485.905 359.101 485.938 359.458 485.994 359.811L499.874 429.031C500.36 431.099 502.123 433.001 505.204 434.777L524.012 445.631C525.497 446.379 527.137 446.769 528.8 446.769C530.463 446.769 532.103 446.379 533.589 445.631L589.47 413.36L607.514 423.812C608.997 424.56 610.634 424.95 612.295 424.95C613.956 424.95 615.594 424.56 617.077 423.812L640.312 410.404C640.863 410.167 641.337 409.782 641.682 409.292C642.028 408.802 642.231 408.226 642.269 407.628V388.362C642.229 388.96 642.026 389.536 641.68 390.025C641.335 390.515 640.862 390.9 640.312 391.138Z" fill="#2B6777"/>
<path d="M639.437 382.866V363.573C639.393 364.169 639.187 364.743 638.843 365.232C638.498 365.72 638.027 366.107 637.48 366.349L622.212 375.149L638.687 384.643C639.15 384.165 639.418 383.531 639.437 382.866Z" fill="#2B6777"/>
<path d="M533.63 380.159L545.192 386.863L561.917 377.216L529.271 358.354L533.616 380.159H533.63Z" fill="#2B6777"/>
<path opacity="0.35" d="M533.63 380.159L545.192 386.863L561.917 377.216L529.271 358.354L533.616 380.159H533.63Z" fill="black"/>
<path opacity="0.2" d="M639.437 382.866V363.573C639.393 364.169 639.187 364.743 638.843 365.232C638.498 365.72 638.027 366.107 637.48 366.349L622.212 375.149L638.687 384.643C639.15 384.165 639.418 383.531 639.437 382.866Z" fill="black"/>
<path opacity="0.2" d="M640.312 391.138L617.077 404.546C615.612 405.349 613.958 405.742 612.288 405.685V424.978C613.958 425.035 615.612 424.642 617.077 423.84L640.312 410.432C640.862 410.195 641.337 409.81 641.682 409.32C642.028 408.83 642.231 408.254 642.269 407.656V388.362C642.229 388.96 642.025 389.535 641.68 390.025C641.335 390.515 640.862 390.9 640.312 391.138Z" fill="black"/>
<path opacity="0.25" d="M499.819 409.779L485.939 340.546C485.868 340.138 485.836 339.724 485.841 339.311C485.841 340.699 485.841 357.924 485.841 358.743C485.849 359.101 485.882 359.458 485.939 359.811L499.819 429.031C499.909 429.444 500.059 429.841 500.263 430.211V410.917C500.063 410.56 499.914 410.177 499.819 409.779Z" fill="black"/>
<path opacity="0.35" d="M528.744 427.504C527.076 427.552 525.424 427.16 523.956 426.365L505.148 415.511C503.094 414.521 501.39 412.928 500.263 410.945V430.28C501.39 432.263 503.094 433.856 505.148 434.846L523.956 445.7C525.424 446.495 527.076 446.887 528.744 446.838C528.92 446.859 529.097 446.859 529.272 446.838V427.504C529.097 427.524 528.92 427.524 528.744 427.504Z" fill="black"/>
<path opacity="0.2" d="M533.533 426.366C532.228 427.086 530.762 427.463 529.271 427.462V446.755C530.762 446.757 532.228 446.379 533.533 445.659L589.414 413.388V394.095L533.533 426.366Z" fill="black"/>
<path opacity="0.35" d="M607.514 404.546L589.47 394.095V413.388L607.514 423.84C608.973 424.644 610.623 425.037 612.288 424.978V405.685C610.623 405.744 608.973 405.35 607.514 404.546Z" fill="black"/>
<path d="M617.091 404.546C615.619 405.344 613.961 405.732 612.288 405.671C610.621 405.724 608.969 405.336 607.5 404.546L589.456 394.109L533.575 426.366C532.087 427.105 530.448 427.49 528.786 427.49C527.125 427.49 525.486 427.105 523.998 426.366L505.19 415.511C502.127 413.735 500.355 411.824 499.874 409.779L485.994 340.546C485.723 339.479 485.846 338.35 486.341 337.367C487.157 336.335 488.19 335.496 489.367 334.91L516.142 319.448C517.629 318.7 519.272 318.31 520.937 318.31C522.603 318.31 524.245 318.7 525.733 319.448L593.842 358.77L609.11 349.956C610.598 349.217 612.237 348.832 613.898 348.832C615.56 348.832 617.199 349.217 618.687 349.956L637.481 360.88C638.062 361.075 638.567 361.448 638.925 361.946C639.283 362.445 639.476 363.042 639.476 363.656C639.476 364.269 639.283 364.867 638.925 365.365C638.567 365.863 638.062 366.236 637.481 366.432L622.213 375.246L640.257 385.683C640.831 385.885 641.329 386.261 641.682 386.758C642.034 387.256 642.223 387.85 642.223 388.459C642.223 389.069 642.034 389.663 641.682 390.16C641.329 390.658 640.831 391.033 640.257 391.235L617.091 404.546ZM561.918 377.203L529.272 358.368L536.018 392.151L561.918 377.203Z" fill="#2B6777"/>
<path d="M432.016 308.774C433.223 303.139 410.224 316.422 409.017 322.058L416.401 342.003C416.669 342.58 417.104 343.064 417.65 343.391C419.274 344.391 425.27 347.777 425.784 348.097C426.2 348.351 426.668 348.508 427.153 348.555C427.639 348.602 428.128 348.538 428.585 348.369C429.043 348.199 429.455 347.927 429.792 347.575C430.129 347.222 430.382 346.798 430.531 346.334L440.136 313.397C440.746 310.69 432.016 308.774 432.016 308.774Z" fill="#2B6777"/>
<path opacity="0.25" d="M432.016 308.774C433.223 303.139 410.224 316.422 409.017 322.058L416.401 342.003C416.669 342.58 417.104 343.064 417.65 343.391C419.274 344.391 425.27 347.777 425.784 348.097C426.2 348.351 426.668 348.508 427.153 348.555C427.639 348.602 428.128 348.538 428.585 348.369C429.043 348.199 429.455 347.927 429.792 347.575C430.129 347.222 430.382 346.798 430.531 346.334L440.136 313.397C440.746 310.69 432.016 308.774 432.016 308.774Z" fill="black"/>
<path d="M503.955 159.287L312.037 270.008C311.136 270.592 310.387 271.38 309.849 272.309C309.311 273.237 309 274.28 308.941 275.351V380.839C309 381.911 309.311 382.953 309.849 383.882C310.387 384.811 311.136 385.599 312.037 386.183L313.966 387.28C314.923 387.766 315.981 388.02 317.054 388.02C318.128 388.02 319.186 387.766 320.143 387.28L512.075 276.434C512.974 275.846 513.721 275.055 514.257 274.124C514.792 273.193 515.1 272.149 515.157 271.076V165.713C515.1 164.643 514.792 163.601 514.257 162.672C513.721 161.743 512.974 160.954 512.075 160.369L510.146 159.273C509.185 158.79 508.124 158.539 507.049 158.542C505.974 158.544 504.914 158.799 503.955 159.287Z" fill="#2B6777"/>
<path opacity="0.25" d="M503.955 159.287L312.037 270.008C311.136 270.592 310.387 271.38 309.849 272.309C309.311 273.237 309 274.28 308.941 275.351V380.839C309 381.911 309.311 382.953 309.849 383.882C310.387 384.811 311.136 385.599 312.037 386.183L313.966 387.28C314.923 387.766 315.981 388.02 317.054 388.02C318.128 388.02 319.186 387.766 320.143 387.28L512.075 276.434C512.974 275.846 513.721 275.055 514.257 274.124C514.792 273.193 515.1 272.149 515.157 271.076V165.713C515.1 164.643 514.792 163.601 514.257 162.672C513.721 161.743 512.974 160.954 512.075 160.369L510.146 159.273C509.185 158.79 508.124 158.539 507.049 158.542C505.974 158.544 504.914 158.799 503.955 159.287Z" fill="black"/>
<path d="M515.17 165.713V166.921C515.167 166.421 515.032 165.93 514.78 165.498C514.528 165.066 514.166 164.708 513.732 164.459C513.298 164.211 512.806 164.08 512.306 164.081C511.806 164.082 511.315 164.214 510.881 164.464L321.308 273.991C320.01 274.722 318.936 275.792 318.199 277.087V277.184L309.871 272.367C310.397 271.407 311.162 270.599 312.092 270.022L504.011 159.287C504.97 158.81 506.027 158.562 507.099 158.562C508.171 158.562 509.228 158.81 510.187 159.287L512.117 160.384C513.006 160.972 513.746 161.76 514.277 162.686C514.807 163.611 515.113 164.648 515.17 165.713Z" fill="#2B6777"/>
<path opacity="0.45" d="M515.17 165.713V166.921C515.167 166.421 515.032 165.93 514.78 165.498C514.528 165.066 514.166 164.708 513.732 164.459C513.298 164.211 512.806 164.08 512.306 164.081C511.806 164.082 511.315 164.214 510.881 164.464L321.308 273.991C320.01 274.722 318.936 275.792 318.199 277.087V277.184L309.871 272.367C310.397 271.407 311.162 270.599 312.092 270.022L504.011 159.287C504.97 158.81 506.027 158.562 507.099 158.562C508.171 158.562 509.228 158.81 510.187 159.287L512.117 160.384C513.006 160.972 513.746 161.76 514.277 162.686C514.807 163.611 515.113 164.648 515.17 165.713Z" fill="#A2A1A1"/>
<path d="M512.311 165.172C512.009 165.173 511.712 165.254 511.451 165.408L321.864 274.949C320.743 275.596 319.812 276.527 319.164 277.647C318.516 278.768 318.174 280.039 318.172 281.334V384.157C318.172 384.74 318.297 386.1 319.421 386.1C319.915 386.078 320.394 385.925 320.809 385.656L419.177 328.859L425.325 345.917C425.588 346.511 426.024 347.011 426.577 347.352C427.13 347.692 427.773 347.857 428.422 347.824C429.07 347.791 429.693 347.561 430.209 347.166C430.724 346.772 431.107 346.229 431.308 345.612L439.636 317.047L510.424 276.184C512.992 274.713 514.13 273.214 514.13 271.34V166.921C514.132 166.685 514.086 166.45 513.994 166.233C513.903 166.015 513.768 165.818 513.598 165.654C513.427 165.491 513.225 165.363 513.004 165.281C512.783 165.198 512.547 165.161 512.311 165.172Z" fill="#A2A1A1"/>
<path d="M319.421 387.252C318.033 387.252 317.075 386.058 317.075 384.212V281.334C317.079 279.847 317.472 278.387 318.214 277.099C318.957 275.811 320.024 274.739 321.309 273.991L510.895 164.478C511.316 164.228 511.795 164.094 512.283 164.089C513.014 164.107 513.71 164.405 514.227 164.922C514.744 165.439 515.042 166.135 515.059 166.865V271.285C515.059 274.283 512.617 276.032 510.798 277.086L440.552 317.852L432.349 345.987C432.091 346.829 431.58 347.571 430.887 348.114C430.194 348.657 429.351 348.973 428.471 349.022C427.592 349.07 426.719 348.848 425.971 348.385C425.222 347.921 424.633 347.239 424.284 346.431L418.552 330.552L321.322 386.614C320.757 386.993 320.1 387.213 319.421 387.252ZM512.353 166.352C512.241 166.353 512.132 166.382 512.034 166.435L322.461 275.948C321.505 276.5 320.711 277.293 320.158 278.248C319.605 279.203 319.313 280.286 319.31 281.389V384.212C319.284 384.511 319.347 384.81 319.49 385.073C319.763 385.011 320.025 384.908 320.268 384.767L419.773 327.304L426.339 345.612C426.512 345.99 426.796 346.306 427.152 346.519C427.509 346.732 427.922 346.832 428.337 346.806C428.765 346.786 429.177 346.636 429.517 346.375C429.857 346.115 430.109 345.756 430.239 345.348L438.678 316.381L439.053 316.159L509.841 275.296C512.617 273.7 513.005 272.437 513.005 271.41V166.921C513.004 166.833 512.984 166.747 512.948 166.667C512.911 166.588 512.859 166.516 512.794 166.458C512.729 166.399 512.652 166.355 512.569 166.327C512.486 166.299 512.399 166.289 512.311 166.296L512.353 166.352Z" fill="#2B6777"/>
<path d="M339.631 308.136C339.752 304.789 340.217 301.463 341.019 298.212C341.808 294.953 342.958 291.792 344.447 288.787C345.906 285.865 347.72 283.133 349.846 280.653C351.93 278.226 354.408 276.166 357.175 274.56C359.367 273.154 361.889 272.346 364.49 272.214C366.465 272.157 368.392 272.829 369.903 274.102C371.526 275.57 372.713 277.458 373.331 279.557C374.193 282.251 374.661 285.056 374.719 287.885C374.802 290.328 374.844 292.896 374.844 295.616C374.844 298.337 374.844 300.877 374.719 303.292C374.595 306.638 374.13 309.964 373.331 313.216C372.546 316.485 371.396 319.656 369.903 322.668C368.461 325.612 366.641 328.356 364.49 330.83C362.404 333.231 359.931 335.267 357.175 336.854C354.983 338.281 352.457 339.114 349.846 339.269C347.872 339.331 345.946 338.653 344.447 337.367C342.825 335.859 341.641 333.941 341.019 331.815C340.159 329.12 339.692 326.315 339.631 323.487C339.561 321.169 339.52 318.657 339.52 315.95C339.52 313.244 339.561 310.634 339.631 308.136ZM364.295 308.858C364.295 307.803 364.379 306.623 364.42 305.332C364.462 304.041 364.42 302.736 364.42 301.404C364.42 300.072 364.42 298.808 364.42 297.587C364.42 296.366 364.337 295.283 364.295 294.325C364.254 293.093 364.058 291.872 363.712 290.689C363.458 289.789 362.981 288.967 362.324 288.301C361.74 287.746 360.966 287.433 360.159 287.427C359.076 287.476 358.026 287.817 357.119 288.412C355.973 289.074 354.949 289.929 354.094 290.938C353.227 291.963 352.499 293.097 351.928 294.311C351.323 295.566 350.857 296.883 350.54 298.239C350.22 299.664 350.021 301.112 349.943 302.57C349.874 303.583 349.818 304.721 349.805 305.971C349.791 307.22 349.805 308.511 349.805 309.843C349.805 311.176 349.805 312.466 349.805 313.716C349.805 314.965 349.805 316.103 349.943 317.102C349.887 319.281 350.572 321.415 351.887 323.154C353.025 324.403 354.755 324.357 357.078 323.015C359.395 321.685 361.213 319.632 362.255 317.172C363.431 314.536 364.122 311.71 364.295 308.83V308.858Z" fill="#455A64"/>
<path d="M409.932 279.723C409.932 280.556 409.932 281.667 409.932 283.013C409.932 284.359 409.932 285.498 409.932 286.386C409.844 289.255 409.43 292.105 408.697 294.88C407.963 297.7 406.925 300.432 405.602 303.028C404.322 305.56 402.727 307.92 400.855 310.051C399.079 312.089 396.984 313.823 394.65 315.187C392.782 316.376 390.643 317.073 388.432 317.213C386.715 317.297 385.026 316.749 383.685 315.673C382.264 314.457 381.199 312.879 380.604 311.106C379.804 308.831 379.382 306.439 379.354 304.027C379.354 303.181 379.354 302.084 379.354 300.724C379.354 299.364 379.354 298.253 379.354 297.365C379.411 294.506 379.807 291.664 380.534 288.898C381.274 286.072 382.321 283.335 383.657 280.737C384.964 278.197 386.567 275.821 388.432 273.658C390.2 271.592 392.302 269.838 394.65 268.467C396.514 267.285 398.651 266.606 400.855 266.496C402.579 266.455 404.265 267.009 405.629 268.064C407.066 269.274 408.138 270.86 408.725 272.645C409.496 274.926 409.903 277.315 409.932 279.723ZM389.473 297.767C389.584 299.905 390.098 301.321 391.014 302.029C391.93 302.736 393.151 302.653 394.65 301.793C396.219 300.857 397.479 299.482 398.273 297.837C399.219 295.96 399.744 293.9 399.814 291.799C399.883 290.897 399.925 289.897 399.925 288.801C399.925 287.704 399.925 286.747 399.814 285.914C399.703 283.795 399.189 282.379 398.273 281.667C397.357 280.959 396.149 281.028 394.65 281.903C393.084 282.84 391.822 284.208 391.014 285.845C390.07 287.727 389.544 289.791 389.473 291.896C389.404 292.798 389.362 293.798 389.362 294.894C389.362 295.991 389.404 296.935 389.473 297.754V297.767Z" fill="#455A64"/>
<path d="M432.862 293.132C431.979 293.677 431.006 294.062 429.989 294.27C429.284 294.419 428.556 294.419 427.852 294.27C427.292 294.113 426.775 293.833 426.339 293.451C425.957 293.128 425.617 292.76 425.325 292.354V310.787C425.316 311.445 425.164 312.094 424.881 312.689C424.669 313.224 424.295 313.68 423.812 313.993L416.734 318.157C416.575 318.274 416.38 318.33 416.184 318.315C415.987 318.3 415.803 318.214 415.665 318.074C415.497 317.886 415.37 317.666 415.291 317.428C415.213 317.189 415.184 316.936 415.207 316.686V259.792C415.215 259.132 415.371 258.482 415.665 257.89C415.877 257.355 416.251 256.899 416.734 256.586L423.535 252.658C423.693 252.541 423.889 252.485 424.085 252.5C424.281 252.515 424.465 252.601 424.604 252.741C424.767 252.931 424.89 253.151 424.966 253.39C425.042 253.628 425.07 253.88 425.048 254.129V256.128C425.381 255.35 425.756 254.531 426.144 253.671C426.547 252.783 427.035 251.937 427.602 251.145C428.234 250.264 428.95 249.446 429.739 248.702C430.686 247.821 431.734 247.057 432.862 246.425C434.311 245.535 435.944 244.989 437.637 244.829C438.352 244.78 439.069 244.878 439.745 245.117C440.42 245.355 441.04 245.73 441.565 246.217C442.875 247.486 443.832 249.074 444.341 250.825C445.115 253.476 445.503 256.225 445.493 258.987C445.493 259.82 445.493 260.986 445.493 262.457C445.493 263.928 445.493 265.108 445.493 265.996C445.446 269.188 445.059 272.366 444.341 275.476C443.698 278.155 442.767 280.757 441.565 283.235C440.536 285.392 439.214 287.395 437.637 289.19C436.261 290.745 434.65 292.075 432.862 293.132ZM435.388 270.729C435.499 269.117 435.499 267.498 435.388 265.885C435.383 264.287 434.936 262.721 434.098 261.36C433.348 260.292 432.085 260.264 430.322 261.277C429.507 261.757 428.787 262.383 428.199 263.123C427.599 263.877 427.096 264.702 426.7 265.58C426.311 266.476 426.005 267.405 425.783 268.356C425.553 269.267 425.4 270.195 425.325 271.132C425.256 272.034 425.214 273.075 425.214 274.227C425.214 275.379 425.214 276.365 425.325 277.184C425.384 277.949 425.538 278.705 425.783 279.432C425.972 280.048 426.283 280.62 426.7 281.112C427.088 281.538 427.624 281.801 428.199 281.847C428.953 281.859 429.694 281.641 430.322 281.223C432.061 280.235 433.398 278.668 434.098 276.795C434.85 274.855 435.286 272.807 435.388 270.729Z" fill="#455A64"/>
<path d="M467.354 258.848C467.354 258.209 467.215 257.807 466.938 257.613C466.491 257.439 465.996 257.439 465.55 257.613C464.641 257.842 463.746 258.125 462.871 258.459C461.774 258.862 460.4 259.32 458.707 259.847C455.857 260.68 453.664 260.328 452.128 258.792C450.587 257.266 449.824 254.531 449.824 250.617C449.835 248.577 450.158 246.55 450.781 244.607C451.438 242.526 452.332 240.528 453.446 238.652C454.618 236.704 456.016 234.901 457.61 233.281C459.213 231.654 461.029 230.253 463.01 229.117C464.656 228.099 466.485 227.41 468.395 227.09C469.823 226.835 471.293 226.94 472.67 227.396C473.818 227.819 474.794 228.609 475.446 229.644C476.156 230.754 476.553 232.034 476.598 233.35C476.63 234.005 476.486 234.657 476.182 235.238C475.965 235.801 475.583 236.285 475.085 236.626L468.395 240.485C467.979 240.721 467.659 240.776 467.41 240.623C467.133 240.456 466.846 240.307 466.549 240.179C466.131 240.012 465.679 239.945 465.23 239.985C464.415 240.108 463.637 240.412 462.954 240.873C462.127 241.336 461.393 241.947 460.789 242.678C460.226 243.335 459.916 244.172 459.914 245.037C459.86 245.518 459.957 246.003 460.192 246.425C460.386 246.657 460.761 246.712 461.316 246.592C462.115 246.398 462.902 246.161 463.676 245.884C464.689 245.523 466.022 245.079 467.673 244.496C471.074 243.399 473.558 243.733 475.113 245.523C476.821 247.776 477.65 250.573 477.445 253.393C477.43 255.442 477.108 257.478 476.487 259.431C475.822 261.58 474.89 263.636 473.711 265.552C472.437 267.612 470.927 269.517 469.214 271.229C467.419 273.016 465.399 274.56 463.204 275.823C461.393 276.951 459.38 277.715 457.277 278.072C455.824 278.312 454.333 278.138 452.974 277.572C451.847 277.064 450.913 276.208 450.309 275.129C449.676 274.018 449.319 272.771 449.268 271.493C449.235 270.837 449.379 270.185 449.685 269.605C449.902 269.042 450.284 268.558 450.781 268.217L457.721 264.192C458.138 263.956 458.429 263.942 458.624 264.192C458.836 264.426 459.079 264.631 459.345 264.802C459.735 265.031 460.186 265.133 460.636 265.094C461.548 264.968 462.418 264.631 463.176 264.108C464.27 263.481 465.255 262.679 466.091 261.735C466.874 260.975 467.327 259.939 467.354 258.848Z" fill="#455A64"/>
<path d="M492.741 236.779C492.731 237.437 492.58 238.086 492.297 238.68C492.084 239.216 491.711 239.671 491.228 239.985L484.149 244.08C483.991 244.197 483.795 244.252 483.599 244.237C483.403 244.222 483.219 244.136 483.08 243.996C482.915 243.808 482.789 243.588 482.713 243.349C482.637 243.11 482.61 242.858 482.636 242.608V205.327C482.637 204.667 482.789 204.017 483.08 203.425C483.293 202.89 483.666 202.434 484.149 202.12L491.228 197.956C491.386 197.839 491.581 197.784 491.778 197.799C491.974 197.814 492.158 197.9 492.297 198.04C492.46 198.229 492.584 198.45 492.66 198.688C492.737 198.927 492.764 199.178 492.741 199.428V236.779ZM492.741 255.378C492.733 256.037 492.581 256.686 492.297 257.28C492.084 257.815 491.711 258.271 491.228 258.584L484.149 262.679C483.991 262.796 483.795 262.852 483.599 262.836C483.403 262.821 483.219 262.736 483.08 262.596C482.914 262.408 482.788 262.187 482.712 261.948C482.635 261.709 482.61 261.457 482.636 261.208V252.463C482.637 251.804 482.789 251.153 483.08 250.562C483.293 250.026 483.666 249.57 484.149 249.257L491.228 245.093C491.386 244.976 491.581 244.92 491.778 244.935C491.974 244.951 492.158 245.036 492.297 245.176C492.46 245.366 492.583 245.587 492.659 245.825C492.735 246.064 492.763 246.315 492.741 246.564V255.378Z" fill="#455A64"/>
<path d="M220.164 300.196C221.199 302.206 221.964 304.344 222.441 306.553C223.468 312.022 221.497 317.532 220.4 322.973C220.039 324.819 219.915 326.513 221.233 327.956C221.35 328.116 221.506 328.244 221.685 328.329C221.864 328.414 222.062 328.453 222.26 328.442C222.593 328.359 222.815 328.026 222.996 327.734C224.305 325.495 225.349 323.109 226.105 320.628C226.256 322.975 226.177 325.332 225.869 327.665C225.464 329.493 225.464 331.388 225.869 333.217C226.452 334.993 228.451 336.423 230.033 335.549C231.008 334.809 231.667 333.728 231.879 332.523L233.17 328.359C233.803 326.423 234.327 324.454 234.738 322.46C235.398 318.865 235.342 315.176 234.573 311.603C233.803 308.03 232.336 304.644 230.255 301.64C229.25 300.025 227.806 298.73 226.091 297.906C225.283 297.585 224.415 297.445 223.547 297.495C222.678 297.545 221.832 297.785 221.067 298.198C219.998 298.781 219.651 299.155 220.164 300.196Z" fill="#F28F8F"/>
<path d="M237.931 309.746C237.334 302.459 237.084 294.825 235.724 287.926C234.364 281.028 231.477 254.503 230.172 247.133C228.465 237.417 226.147 231.338 224.731 225.328C223.135 218.61 221.803 209.421 218.985 194.792C216.167 180.162 212.711 171.973 205.48 167.254C200.155 163.641 193.87 161.707 187.436 161.702C185.798 166.199 187.311 181.939 187.311 181.939C187.311 181.939 194.251 215.501 195 219.623C195.75 223.745 203.176 242.608 208.145 257.959C210.99 266.773 215.293 279.168 215.293 279.168C216.598 284.651 217.056 286.4 215.959 290.744C215.501 292.576 214.765 294.325 214.307 296.157C213.809 298.154 213.502 300.195 213.391 302.251C213.322 303.639 213.391 305.027 213.266 306.415C213.141 308.982 212.725 311.536 212.42 314.09C212.211 315.964 213.294 317.116 215.196 316.533C216.568 316.007 217.686 314.973 218.319 313.646C219.116 311.767 219.671 309.794 219.97 307.775C220.192 306.817 221.358 301.057 223.177 302.625C224.731 303.944 226.383 308.441 228.423 311.495C229.528 312.837 230.344 314.392 230.822 316.064C231.299 317.735 231.428 319.487 231.199 321.211C230.852 325.86 228.631 332.079 229.381 336.007C230.13 339.935 232.324 340.781 233.115 339.157C233.906 337.533 236.307 328.053 237.112 324.764C238.205 319.836 238.482 314.763 237.931 309.746Z" fill="#FFA8A7"/>
<path d="M219.928 304.582C228.381 308.302 238.916 310.329 243.524 328.373C248.133 346.417 253.587 412.722 253.587 412.722C251.39 415.493 248.581 417.719 245.382 419.226C242.182 420.734 238.677 421.481 235.141 421.41L235.89 440.329C235.89 440.329 223.537 446.27 205.132 441.62C196.207 439.371 190.711 431.21 190.711 431.21C190.711 431.21 192.807 377.675 194.264 357.229C195.722 336.784 197.582 294.603 219.928 304.582Z" fill="#455A64"/>
<path d="M232.157 348.596C232.157 348.596 234.406 402.728 235.141 421.411C237.196 421.412 239.242 421.161 241.235 420.661L232.157 348.596Z" fill="#37474F"/>
<path d="M213.238 306.373C213.113 308.941 212.697 311.495 212.392 314.049C212.183 315.923 213.266 317.075 215.168 316.492C216.54 315.965 217.658 314.932 218.291 313.605C219.088 311.725 219.643 309.753 219.942 307.734C220.109 306.998 220.817 303.458 221.969 302.542L213.377 302.223C213.294 303.597 213.308 304.985 213.238 306.373ZM221.955 302.542H223.135C223.056 302.466 222.962 302.406 222.859 302.366C222.756 302.327 222.646 302.308 222.536 302.312C222.426 302.316 222.318 302.342 222.218 302.389C222.118 302.436 222.029 302.502 221.955 302.584V302.542Z" fill="#FFA8A7"/>
<path d="M195.208 160.716C208.908 166.352 213.252 170.89 215.904 179.191C218.555 187.491 222.733 208.477 224.107 217.597C225.481 226.716 228.923 234.919 230.838 246.842C232.754 258.765 234.642 276.212 234.642 276.212C234.642 276.212 232.157 279.404 224.662 279.848C217.167 280.293 213.266 277.586 213.266 277.586C213.266 277.586 205.299 253.782 202.287 245.828C199.275 237.875 192.377 218.068 192.377 218.068L195.208 160.716Z" fill="#37474F"/>
<path d="M78.0059 491.977L87.1528 494.781L88.5269 488.188L81.0317 488.895L78.0059 491.977Z" fill="black"/>
<path d="M80.5043 473.544C80.5043 473.544 76.6734 477.944 75.4936 479.346C74.3138 480.748 77.0343 490.047 77.992 491.977L81.0178 488.895C81.3232 491.241 80.8235 493.545 80.3377 497.14C79.9352 500.124 78.4362 505.218 79.6576 510.423C81.4759 518.154 87.5137 526.01 95.0505 532.256C102.587 538.502 108.472 540.001 111.97 540.029C115.468 540.057 117.675 538.641 118.633 536.226C119.59 533.811 80.5043 473.544 80.5043 473.544Z" fill="#263238"/>
<path d="M113.372 473.738L115.537 471.129C116.995 472.184 114.149 476.195 113.636 481.206C112.738 488.627 112.799 496.133 113.816 503.539C116.162 516.739 119.701 526.635 120.756 532.548C122.144 540.473 108.611 540.987 96.5218 530.549C90.5117 525.358 81.7951 513.629 81.5175 507.508C81.2399 501.387 83.7661 494.128 83.3219 489.464C82.8777 484.801 79.6021 477.972 80.5459 473.502C81.0733 471.046 84.7099 467.201 88.0133 464.022C90.9975 461.121 93.5653 454.834 95.0505 456.652L93.9401 458.817C93.5931 460.83 94.9117 465.507 99.3117 470.254C101.477 472.67 108.847 478.694 113.372 473.738Z" fill="#455A64"/>
<path opacity="0.15" d="M103.239 473.558C105.821 475.21 109.027 476.403 111.72 475.015C111.72 475.015 111.79 475.015 111.817 475.015C110.966 475.836 110.313 476.84 109.909 477.951C109.504 479.063 109.36 480.252 109.485 481.428C109.708 485.814 109.624 515.462 109.624 515.462C109.624 515.462 108.236 489.839 107.862 484.926C107.39 477.736 106.585 476.32 103.226 473.544L103.239 473.558Z" fill="black"/>
<path d="M120.756 532.548C119.895 527.551 117.231 519.709 115.01 509.438C114.704 512.616 115.384 515.781 115.01 516.641C114.163 518.779 107.084 517.211 103.267 515.614C99.4502 514.018 99.3669 506.717 97.854 498.958C96.3411 491.199 88.5405 492.879 82.586 497.418C81.8872 500.712 81.5382 504.071 81.545 507.439C81.8226 513.56 90.5393 525.289 96.5493 530.48C108.583 540.987 122.144 540.473 120.756 532.548Z" fill="#37474F"/>
<path opacity="0.15" d="M102.587 480.928C102.45 481.062 102.277 481.153 102.089 481.189C101.901 481.225 101.707 481.204 101.531 481.13C101.354 481.056 101.204 480.931 101.098 480.772C100.992 480.613 100.936 480.426 100.936 480.234C100.936 480.043 100.992 479.856 101.098 479.697C101.204 479.537 101.354 479.413 101.531 479.339C101.707 479.264 101.901 479.244 102.089 479.28C102.277 479.316 102.45 479.406 102.587 479.54C102.679 479.631 102.753 479.739 102.803 479.858C102.853 479.977 102.879 480.105 102.879 480.234C102.879 480.364 102.853 480.492 102.803 480.611C102.753 480.73 102.679 480.838 102.587 480.928Z" fill="black"/>
<path opacity="0.15" d="M103.143 487.924C103.006 488.058 102.833 488.148 102.645 488.184C102.457 488.22 102.263 488.2 102.086 488.126C101.91 488.052 101.759 487.927 101.654 487.768C101.548 487.608 101.491 487.421 101.491 487.23C101.491 487.039 101.548 486.851 101.654 486.692C101.759 486.533 101.91 486.408 102.086 486.334C102.263 486.26 102.457 486.24 102.645 486.276C102.833 486.311 103.006 486.402 103.143 486.536C103.235 486.626 103.308 486.734 103.359 486.853C103.409 486.973 103.434 487.101 103.434 487.23C103.434 487.359 103.409 487.487 103.359 487.606C103.308 487.725 103.235 487.833 103.143 487.924Z" fill="black"/>
<path opacity="0.15" d="M103.698 494.919C103.607 495.011 103.499 495.083 103.38 495.132C103.26 495.181 103.133 495.207 103.004 495.207C102.875 495.207 102.747 495.181 102.628 495.132C102.509 495.083 102.401 495.011 102.31 494.919C102.219 494.828 102.146 494.72 102.097 494.601C102.048 494.482 102.022 494.354 102.022 494.225C102.022 494.097 102.048 493.969 102.097 493.85C102.146 493.731 102.219 493.623 102.31 493.531C102.495 493.348 102.744 493.246 103.004 493.246C103.264 493.246 103.513 493.348 103.698 493.531C103.79 493.622 103.864 493.73 103.914 493.849C103.964 493.968 103.99 494.096 103.99 494.225C103.99 494.355 103.964 494.483 103.914 494.602C103.864 494.721 103.79 494.829 103.698 494.919Z" fill="black"/>
<path opacity="0.15" d="M104.267 501.915C104.082 502.098 103.833 502.201 103.573 502.201C103.313 502.201 103.063 502.098 102.879 501.915C102.786 501.824 102.713 501.716 102.663 501.597C102.613 501.478 102.587 501.35 102.587 501.221C102.587 501.091 102.613 500.964 102.663 500.844C102.713 500.725 102.786 500.617 102.879 500.527C103.063 500.343 103.312 500.239 103.573 500.239C103.833 500.239 104.082 500.343 104.267 500.527C104.451 500.711 104.554 500.96 104.554 501.221C104.554 501.481 104.451 501.731 104.267 501.915Z" fill="black"/>
<path opacity="0.15" d="M104.822 508.924C104.638 509.107 104.388 509.21 104.128 509.21C103.868 509.21 103.619 509.107 103.434 508.924C103.342 508.834 103.269 508.726 103.218 508.607C103.168 508.487 103.143 508.36 103.143 508.23C103.143 508.101 103.168 507.973 103.218 507.854C103.269 507.735 103.342 507.627 103.434 507.536C103.623 507.379 103.864 507.298 104.11 507.309C104.356 507.32 104.588 507.422 104.762 507.596C104.936 507.77 105.039 508.003 105.05 508.249C105.061 508.494 104.98 508.735 104.822 508.924Z" fill="black"/>
<path d="M101.629 480.539C101.592 480.512 101.561 480.477 101.54 480.436C101.518 480.395 101.506 480.35 101.504 480.304C101.497 480.252 101.499 480.2 101.512 480.15C101.524 480.1 101.547 480.053 101.578 480.012C101.609 479.97 101.648 479.935 101.692 479.909C101.737 479.883 101.786 479.866 101.838 479.859C102.115 479.859 108.597 479.11 113.247 483.135C113.326 483.203 113.375 483.3 113.383 483.404C113.391 483.508 113.357 483.611 113.289 483.69C113.221 483.769 113.124 483.818 113.02 483.826C112.916 483.834 112.813 483.8 112.733 483.732C108.347 479.929 102.004 480.637 101.935 480.637C101.88 480.65 101.822 480.649 101.768 480.631C101.714 480.614 101.666 480.582 101.629 480.539Z" fill="#263238"/>
<path d="M102.199 487.535C102.162 487.504 102.133 487.466 102.111 487.423C102.09 487.38 102.077 487.333 102.074 487.285C102.066 487.235 102.068 487.184 102.081 487.134C102.094 487.085 102.117 487.039 102.148 486.999C102.179 486.958 102.218 486.925 102.263 486.9C102.307 486.875 102.356 486.86 102.407 486.855C102.684 486.855 109.166 486.092 113.816 490.117C113.895 490.185 113.944 490.282 113.952 490.386C113.96 490.49 113.926 490.593 113.858 490.672C113.79 490.751 113.693 490.8 113.589 490.808C113.485 490.816 113.382 490.782 113.303 490.714C108.917 486.911 102.573 487.618 102.504 487.632C102.449 487.639 102.394 487.633 102.341 487.617C102.288 487.6 102.24 487.572 102.199 487.535Z" fill="#263238"/>
<path d="M102.712 494.544C102.644 494.477 102.6 494.39 102.587 494.295C102.58 494.244 102.582 494.193 102.595 494.144C102.608 494.094 102.63 494.048 102.661 494.008C102.693 493.968 102.732 493.934 102.776 493.909C102.821 493.885 102.87 493.869 102.921 493.864C103.198 493.864 109.68 493.101 114.33 497.126C114.409 497.194 114.458 497.291 114.466 497.395C114.474 497.499 114.44 497.602 114.372 497.681C114.303 497.761 114.207 497.809 114.103 497.817C113.998 497.825 113.895 497.791 113.816 497.723C109.43 493.92 103.087 494.628 103.018 494.642C102.963 494.647 102.907 494.642 102.855 494.625C102.802 494.608 102.754 494.581 102.712 494.544Z" fill="#263238"/>
<path d="M103.296 501.54C103.227 501.473 103.183 501.385 103.171 501.29C103.159 501.189 103.187 501.088 103.249 501.007C103.312 500.927 103.403 500.874 103.504 500.86C103.781 500.86 110.263 500.097 114.913 504.122C114.984 504.197 115.024 504.296 115.024 504.399C115.024 504.503 114.984 504.602 114.913 504.677C114.877 504.714 114.834 504.743 114.786 504.763C114.738 504.783 114.687 504.794 114.635 504.794C114.584 504.794 114.533 504.783 114.485 504.763C114.437 504.743 114.394 504.714 114.358 504.677C109.972 500.874 103.629 501.582 103.559 501.596C103.468 501.608 103.374 501.588 103.296 501.54Z" fill="#263238"/>
<path d="M103.851 508.536C103.783 508.469 103.739 508.381 103.726 508.286C103.718 508.234 103.721 508.182 103.735 508.132C103.748 508.082 103.772 508.035 103.805 507.994C103.837 507.954 103.878 507.921 103.924 507.897C103.97 507.873 104.021 507.859 104.073 507.856C104.337 507.856 110.819 507.092 115.468 511.117C115.539 511.19 115.578 511.287 115.578 511.388C115.578 511.489 115.539 511.586 115.468 511.659C115.432 511.696 115.389 511.725 115.341 511.745C115.294 511.765 115.243 511.775 115.191 511.775C115.139 511.775 115.088 511.765 115.04 511.745C114.993 511.725 114.949 511.696 114.913 511.659C110.541 507.869 104.184 508.563 104.115 508.577C104.024 508.594 103.931 508.579 103.851 508.536Z" fill="#263238"/>
<path d="M206.479 271.34C206.479 271.34 207.478 288.676 206.618 324.723C205.896 354.884 209.227 370.527 197.124 389.737C186.312 406.879 118.827 472.364 113.955 478.305C113.955 478.305 92.5937 480.248 91.5527 458.359C91.5527 458.359 111.443 422.841 120.826 402.701C130.209 382.561 143.034 372.9 143.034 372.9L125.503 285.095L206.479 271.34Z" fill="#263238"/>
<path d="M132.957 283.832L125.545 285.082V285.401L142.437 370.069L143.006 372.192H142.868L143.006 372.845C143.006 372.845 133.887 379.785 125.393 393.998C128.391 401.66 134.276 415.012 134.276 415.012C134.803 417.08 128.835 425.547 132.235 451.031C132.485 452.863 132.929 455.528 133.443 458.401C148.628 443.05 169.337 422.16 183.217 406.684C183.897 402.701 185.993 389.584 184.771 379.563C183.55 369.541 179.053 320.378 179.053 320.378C183.396 317.663 187.198 314.166 190.268 310.066C192.865 306.736 194.656 302.85 195.5 298.712C197.833 292.133 199.757 285.416 201.261 278.6L132.957 283.832Z" fill="black"/>
<path d="M159.593 563.958L168.684 560.974L166.019 554.797L160.287 559.683L159.593 563.958Z" fill="black"/>
<path d="M151.042 547.414C151.042 547.414 150.431 553.229 150.279 555.061C150.126 556.894 157.691 562.931 159.592 563.959L160.286 559.683C161.896 561.432 162.798 563.598 164.45 566.818C165.838 569.497 167.545 574.535 171.543 578.074C177.47 583.349 186.936 586.305 196.679 587.083C206.423 587.86 212.128 585.695 215.001 583.696C217.874 581.697 218.846 579.254 218.263 576.756C217.68 574.257 151.042 547.414 151.042 547.414Z" fill="#263238"/>
<path d="M178.026 528.676L178.289 525.303C180.094 525.303 180.094 530.23 182.537 534.63C185.826 540.557 190.698 548.01 195.528 552.799C205.036 562.251 213.572 568.303 217.875 572.55C223.566 578.241 212.795 586.43 196.902 584.862C189.005 584.071 175.125 579.49 171.377 574.646C167.629 569.802 165.506 562.404 162.494 558.878C159.482 555.353 152.778 551.633 151.043 547.414C150.057 545.109 150.862 539.849 151.695 535.38C152.473 531.216 150.904 524.692 153.208 525.303L153.555 527.704C154.43 529.55 158.177 532.617 164.52 533.978C167.685 534.644 177.165 535.338 178.026 528.676Z" fill="#455A64"/>
<path opacity="0.15" d="M169.628 534.38C172.682 534.241 176.013 533.38 177.401 530.688V530.604C177.174 531.764 177.216 532.96 177.524 534.101C177.832 535.241 178.397 536.296 179.177 537.184C181.953 540.64 198.887 564.944 198.887 564.944C198.887 564.944 182.967 544.831 179.899 541.042C175.388 535.49 173.903 534.741 169.559 534.394L169.628 534.38Z" fill="black"/>
<path d="M217.916 572.55C214.335 568.955 207.645 564.083 199.872 556.963C201.468 559.739 203.842 561.932 204.036 562.834C204.564 565.069 197.874 567.859 193.834 568.747C189.795 569.635 185.506 563.723 179.857 558.296C174.208 552.868 168.753 558.684 166.449 565.846C167.773 568.944 169.42 571.894 171.363 574.646C175.11 579.49 188.99 584.071 196.888 584.862C212.795 586.43 223.565 578.241 217.916 572.55Z" fill="#37474F"/>
<path opacity="0.15" d="M173.347 540.765C173.309 541.02 173.17 541.251 172.962 541.404C172.754 541.558 172.493 541.622 172.237 541.584C171.981 541.545 171.751 541.406 171.598 541.198C171.444 540.99 171.38 540.729 171.418 540.473C171.435 540.345 171.477 540.222 171.543 540.112C171.608 540.001 171.696 539.904 171.799 539.828C171.903 539.751 172.021 539.696 172.146 539.667C172.272 539.637 172.402 539.633 172.529 539.654C172.783 539.695 173.012 539.835 173.165 540.042C173.318 540.25 173.383 540.509 173.347 540.765Z" fill="black"/>
<path opacity="0.15" d="M177.817 546.164C177.8 546.292 177.757 546.415 177.692 546.526C177.626 546.637 177.539 546.733 177.436 546.81C177.332 546.886 177.214 546.941 177.089 546.971C176.963 547 176.833 547.005 176.706 546.983C176.517 546.953 176.34 546.869 176.199 546.739C176.057 546.609 175.958 546.441 175.912 546.254C175.866 546.068 175.877 545.873 175.942 545.692C176.007 545.512 176.124 545.355 176.279 545.241C176.433 545.127 176.618 545.061 176.809 545.052C177.001 545.043 177.191 545.091 177.355 545.19C177.52 545.289 177.651 545.434 177.734 545.607C177.816 545.78 177.845 545.974 177.817 546.164Z" fill="black"/>
<path opacity="0.15" d="M182.3 551.577C182.259 551.833 182.119 552.063 181.909 552.215C181.7 552.367 181.438 552.43 181.182 552.389C180.927 552.349 180.697 552.208 180.545 551.999C180.393 551.789 180.33 551.528 180.37 551.272C180.415 551.016 180.557 550.788 180.767 550.635C180.977 550.482 181.238 550.417 181.495 550.453C181.622 550.473 181.744 550.519 181.853 550.586C181.962 550.654 182.057 550.743 182.132 550.847C182.207 550.952 182.26 551.07 182.289 551.195C182.318 551.321 182.322 551.451 182.3 551.577Z" fill="black"/>
<path opacity="0.15" d="M186.783 556.977C186.743 557.232 186.602 557.462 186.393 557.614C186.183 557.766 185.922 557.829 185.666 557.788C185.41 557.748 185.181 557.608 185.028 557.398C184.876 557.188 184.813 556.927 184.854 556.671C184.874 556.544 184.919 556.423 184.986 556.314C185.053 556.204 185.141 556.109 185.244 556.034C185.348 555.958 185.466 555.904 185.59 555.874C185.715 555.844 185.844 555.839 185.971 555.859C186.098 555.879 186.219 555.924 186.329 555.991C186.438 556.058 186.533 556.146 186.609 556.25C186.684 556.353 186.738 556.471 186.768 556.596C186.798 556.72 186.803 556.85 186.783 556.977Z" fill="black"/>
<path opacity="0.15" d="M191.267 562.376C191.237 562.566 191.152 562.742 191.023 562.884C190.893 563.025 190.724 563.125 190.538 563.171C190.352 563.216 190.156 563.206 189.976 563.141C189.795 563.075 189.638 562.958 189.525 562.804C189.411 562.649 189.345 562.465 189.336 562.273C189.327 562.081 189.375 561.891 189.474 561.727C189.572 561.562 189.717 561.431 189.891 561.349C190.064 561.267 190.258 561.238 190.448 561.266C190.575 561.284 190.697 561.328 190.807 561.394C190.917 561.46 191.012 561.547 191.089 561.65C191.165 561.754 191.22 561.871 191.25 561.995C191.281 562.12 191.286 562.249 191.267 562.376Z" fill="black"/>
<path d="M172.335 541.015C172.236 541.003 172.146 540.953 172.085 540.876C172.013 540.801 171.974 540.701 171.974 540.598C171.974 540.495 172.013 540.395 172.085 540.321C172.293 540.14 177.179 535.823 183.3 536.434C183.351 536.439 183.4 536.455 183.446 536.479C183.491 536.504 183.531 536.537 183.563 536.577C183.595 536.617 183.619 536.663 183.634 536.712C183.648 536.762 183.652 536.813 183.647 536.864C183.636 536.969 183.585 537.065 183.505 537.132C183.425 537.2 183.321 537.233 183.216 537.225C177.442 536.642 172.654 540.862 172.612 540.903C172.535 540.971 172.437 541.011 172.335 541.015Z" fill="#263238"/>
<path d="M176.818 546.386C176.77 546.386 176.722 546.374 176.679 546.353C176.635 546.331 176.598 546.3 176.568 546.261C176.497 546.187 176.457 546.087 176.457 545.984C176.457 545.881 176.497 545.781 176.568 545.706C176.776 545.526 181.662 541.209 187.783 541.82C187.834 541.825 187.884 541.84 187.929 541.865C187.974 541.889 188.014 541.923 188.046 541.963C188.079 542.003 188.103 542.049 188.117 542.098C188.131 542.147 188.136 542.199 188.13 542.25C188.12 542.355 188.069 542.451 187.988 542.518C187.908 542.585 187.804 542.619 187.7 542.611C181.94 542.028 177.137 546.248 177.096 546.289C177.059 546.324 177.015 546.351 176.967 546.367C176.919 546.384 176.868 546.391 176.818 546.386Z" fill="#263238"/>
<path d="M181.287 551.813C181.196 551.801 181.112 551.756 181.051 551.688C181.012 551.653 180.981 551.61 180.96 551.562C180.939 551.515 180.928 551.463 180.928 551.411C180.928 551.358 180.939 551.307 180.96 551.259C180.981 551.211 181.012 551.168 181.051 551.133C181.259 550.953 186.131 546.622 192.252 547.247C192.355 547.258 192.449 547.309 192.515 547.39C192.58 547.471 192.61 547.574 192.599 547.677C192.588 547.78 192.536 547.874 192.456 547.94C192.375 548.005 192.272 548.035 192.169 548.024C186.395 547.441 181.606 551.674 181.564 551.716C181.487 551.782 181.388 551.817 181.287 551.813Z" fill="#263238"/>
<path d="M185.771 557.213C185.68 557.2 185.596 557.156 185.535 557.088C185.498 557.051 185.468 557.008 185.448 556.961C185.428 556.913 185.418 556.862 185.418 556.81C185.418 556.758 185.428 556.707 185.448 556.659C185.468 556.612 185.498 556.569 185.535 556.532C185.729 556.352 190.615 552.021 196.736 552.646C196.837 552.66 196.928 552.713 196.99 552.793C197.053 552.874 197.081 552.975 197.069 553.076C197.066 553.128 197.052 553.179 197.028 553.225C197.004 553.271 196.971 553.312 196.93 553.345C196.89 553.377 196.843 553.401 196.793 553.415C196.742 553.428 196.69 553.431 196.639 553.423C190.878 552.84 186.09 557.074 186.034 557.115C185.999 557.148 185.958 557.174 185.912 557.191C185.867 557.207 185.819 557.215 185.771 557.213Z" fill="#263238"/>
<path d="M190.253 562.612C190.205 562.611 190.157 562.6 190.114 562.578C190.071 562.557 190.033 562.525 190.004 562.487C189.932 562.412 189.893 562.313 189.893 562.209C189.893 562.106 189.932 562.007 190.004 561.932C190.198 561.751 195.084 557.435 201.205 558.045C201.306 558.059 201.397 558.112 201.459 558.193C201.522 558.273 201.55 558.375 201.538 558.476C201.534 558.528 201.52 558.579 201.497 558.626C201.473 558.673 201.44 558.714 201.4 558.748C201.36 558.782 201.313 558.807 201.263 558.822C201.213 558.837 201.16 558.842 201.108 558.837C195.347 558.254 190.559 562.473 190.503 562.515C190.436 562.578 190.346 562.613 190.253 562.612Z" fill="#263238"/>
<path d="M109.305 265.747C109.305 265.747 108.819 287.955 108.916 297.92C109.11 318.38 113.08 326.805 118.132 344.016C122.296 357.979 139.05 409.252 140.34 414.207C138.564 425.033 136.69 434.611 140.34 458.248C145.573 492.365 151.444 532.881 151.444 532.881C154.567 537.212 175.859 538.78 182.05 532.506C182.05 532.506 183.882 423.354 183.216 401.049C182.647 381.617 173.597 318.088 173.597 318.088C173.597 318.088 202.606 305.888 205.105 271.757L109.305 265.747Z" fill="#263238"/>
<path d="M145.462 150.265C145.462 150.265 177.248 152.416 195.208 160.716C199.22 162.562 211.156 178.205 209.741 199.761C206.16 254.059 207.589 284.262 207.589 284.262C206.604 287.038 196.305 302.029 167.879 304.721C138.592 307.497 122.075 304.471 108.306 292.382C108.403 269.327 108.805 239.888 109.055 220.109C109.25 204.841 109.485 195.125 111.262 184.326C112.442 177.15 115.426 166.421 120.354 163.659C125.904 160.495 131.664 157.712 137.592 155.331C140.539 154.206 143.219 152.481 145.462 150.265Z" fill="#B3B3B3"/>
<path d="M145.99 151.694C150.473 152.041 178.469 154.47 194.57 161.966C198.234 163.659 209.672 178.719 208.284 199.664C204.938 250.534 205.993 280.667 206.132 284.026C205.563 285.262 203.009 289.231 197.152 293.381C191.836 297.157 182.411 301.945 167.685 303.347C160.939 303.986 155.109 304.305 149.863 304.305C131.93 304.305 119.84 300.543 109.611 291.813C109.694 271.395 110.027 245.773 110.263 227.021L110.346 220.178C110.541 205.16 110.79 195.194 112.539 184.604C113.927 176.415 117.023 167.143 120.951 164.922C126.449 161.759 132.158 158.976 138.037 156.594C140.948 155.47 143.619 153.802 145.907 151.68M145.379 150.292C143.136 152.508 140.456 154.234 137.509 155.359C131.581 157.74 125.821 160.523 120.27 163.687C115.399 166.463 112.359 177.178 111.179 184.354C109.402 195.111 109.166 204.938 108.972 220.137C108.722 239.916 108.32 269.355 108.223 292.41C118.869 301.779 131.208 305.707 149.863 305.707C155.276 305.707 161.216 305.374 167.809 304.749C196.236 302.056 206.535 287.052 207.52 284.29C207.52 284.29 206.132 254.087 209.672 199.789C211.06 178.233 199.151 162.59 195.139 160.744C177.178 152.416 145.393 150.292 145.393 150.292H145.379Z" fill="#E0E0E0"/>
<path d="M146.088 89.1374C137.468 98.8534 140.258 110.318 143.312 121.811C146.92 134.9 147.143 139.133 154.666 142.409C152.972 101.31 166.103 151.667 199.082 119.715C205.036 113.941 205.411 96.119 198.193 87.9576C187.991 76.4927 162.938 70.788 146.088 89.1374Z" fill="#37474F"/>
<path d="M144.353 134.719C150.349 137.218 153.069 133.096 153.069 133.096L147.767 148.364C147.767 148.364 144.353 157.83 152.07 162.396C173.417 175.221 168.587 180.621 175.805 186.853C178.248 183.785 177.928 170.044 178.317 166.421L182.994 151.722C185.433 151.808 187.875 151.696 190.295 151.389C196.014 150.584 199.248 146.517 201.052 140.383C203.926 130.5 203.495 115.593 199.956 96.2858C193.64 91.3028 172.709 90.2202 159.176 98.5482C159.662 109.902 156.581 111.748 156.581 116.592C156.581 122.075 156.206 123.338 154.527 124.074C152.847 124.809 151.348 122.241 150.668 120.631C149.53 117.855 148.558 116.162 145.879 115.496C143.201 114.829 140.202 115.26 137.746 118.869C133.943 124.476 139.939 132.915 144.353 134.719Z" fill="#FFA8A7"/>
<path d="M182.995 151.778C176.235 151.445 166.741 147.892 162.91 144.311C159.079 140.729 156.581 133.762 156.581 133.762C156.758 138.499 158.473 143.05 161.467 146.726C166.464 152.805 181.579 156.233 181.579 156.233L182.995 151.778Z" fill="#F28F8F"/>
<path d="M179.4 101.754C179.219 101.754 178.997 101.865 178.983 102.046C178.969 102.226 179.164 102.282 179.302 102.365C179.535 102.497 179.758 102.645 179.969 102.809C180.19 102.961 180.375 103.16 180.51 103.392C180.586 103.57 180.642 103.757 180.676 103.947C180.72 104.26 180.743 104.575 180.746 104.891C180.746 105.155 180.968 105.335 181.218 105.113C181.31 105.029 181.382 104.925 181.426 104.808C181.574 104.458 181.636 104.077 181.606 103.697C181.579 103.487 181.523 103.282 181.44 103.087C181.264 102.692 180.978 102.356 180.616 102.12C180.254 101.884 179.832 101.757 179.4 101.754ZM189.726 102.171C189.75 102.069 189.746 101.963 189.716 101.863C189.686 101.763 189.631 101.673 189.555 101.602C189.479 101.53 189.386 101.479 189.284 101.455C189.183 101.431 189.077 101.433 188.977 101.463C188.634 101.628 188.333 101.867 188.093 102.162C187.853 102.457 187.681 102.801 187.589 103.17C187.382 103.668 187.324 104.215 187.422 104.745C187.521 105.275 187.772 105.764 188.144 106.154C188.269 106.265 188.449 106.362 188.574 106.279C188.699 106.196 188.574 104.891 188.671 104.6C188.687 104.111 188.826 103.633 189.074 103.212C189.24 102.892 189.615 102.587 189.726 102.171ZM184.105 99.7417C184.081 99.725 184.054 99.7143 184.026 99.7103C183.997 99.7062 183.968 99.7091 183.941 99.7186C183.914 99.7281 183.889 99.744 183.87 99.7649C183.85 99.7858 183.835 99.8112 183.827 99.8388C183.797 99.9652 183.796 100.096 183.822 100.224C183.848 100.351 183.902 100.47 183.98 100.574C184.107 100.839 184.213 101.113 184.299 101.393C184.483 101.954 184.585 102.539 184.605 103.128C184.616 103.681 184.579 104.234 184.493 104.78C184.41 105.294 184.258 105.793 184.174 106.307C184.174 106.307 184.174 106.501 184.285 106.446C184.69 106.04 184.999 105.549 185.191 105.009C185.384 104.469 185.453 103.893 185.396 103.323C185.389 102.683 185.291 102.047 185.104 101.435C184.958 100.779 184.608 100.187 184.105 99.7417Z" fill="#F28F8F"/>
<path d="M171.933 106.529L178.04 104.183C178.337 105.016 178.301 105.932 177.939 106.739C177.577 107.546 176.917 108.182 176.097 108.514C175.694 108.667 175.264 108.736 174.833 108.719C174.402 108.701 173.98 108.596 173.591 108.411C173.202 108.225 172.854 107.963 172.569 107.639C172.284 107.316 172.068 106.938 171.933 106.529Z" fill="#37474F"/>
<path d="M191.337 103.253L197.25 106.168C197.08 106.563 196.831 106.92 196.518 107.216C196.206 107.512 195.836 107.74 195.432 107.889C195.028 108.037 194.598 108.101 194.168 108.077C193.739 108.053 193.318 107.942 192.933 107.751C192.14 107.35 191.531 106.659 191.234 105.822C190.937 104.984 190.974 104.064 191.337 103.253Z" fill="#37474F"/>
<path d="M178.04 112.831C177.471 111.443 176.652 113.4 174.986 114.094C173.321 114.788 171.502 113.927 172.071 115.301C172.492 115.939 173.122 116.41 173.853 116.634C174.583 116.858 175.369 116.821 176.075 116.528C176.781 116.236 177.363 115.707 177.722 115.033C178.08 114.358 178.193 113.579 178.04 112.831Z" fill="#263238"/>
<path d="M197.291 114.191C197.638 112.803 195.903 113.844 194.084 113.441C192.266 113.039 191.308 111.276 191.003 112.719C190.956 113.491 191.184 114.254 191.646 114.874C192.108 115.494 192.774 115.93 193.526 116.106C194.279 116.283 195.07 116.187 195.759 115.836C196.447 115.486 196.99 114.903 197.291 114.191Z" fill="#263238"/>
<path d="M182.772 109.513L185.243 127.557L194.237 125.475C192.253 120.242 186.673 111.901 182.772 109.513Z" fill="#F28F8F"/>
<path d="M178.65 131.763C178.233 132.021 177.881 132.373 177.623 132.79C176.832 134.095 177.956 134.761 179.15 134.872C180.464 134.995 181.745 135.362 182.925 135.955C183.43 136.32 184.037 136.514 184.66 136.51C184.858 136.481 185.048 136.414 185.219 136.311C185.391 136.209 185.54 136.074 185.659 135.913C185.84 135.573 185.908 135.184 185.854 134.803C185.734 134.029 185.416 133.299 184.929 132.686C184.442 132.073 183.804 131.597 183.078 131.305C182.354 131.037 181.578 130.939 180.81 131.018C180.043 131.098 179.304 131.353 178.65 131.763Z" fill="#B16668"/>
<path d="M182.925 136.024C183.203 136.184 183.491 136.328 183.786 136.455C183.493 135.221 182.796 134.121 181.804 133.33C180.813 132.54 179.585 132.106 178.317 132.096C178.04 132.305 177.804 132.564 177.623 132.86C176.832 134.164 177.956 134.831 179.15 134.942C180.464 135.065 181.745 135.432 182.925 136.024Z" fill="#F28F8F"/>
<path d="M173.306 195.833C166.797 191.308 154.61 181.328 144.505 151.708L140.508 154.484C140.508 154.484 146.92 184.923 172.335 200.386L173.306 195.833Z" fill="#2B6777"/>
<path d="M179.524 195.25C181.398 192.696 185.715 175.305 181.398 156.622L184.938 160.023C188.574 178.275 184.632 195.264 181.232 200.358L179.524 195.25Z" fill="#2B6777"/>
<path d="M179.233 204.688C179.233 204.688 186.881 258.432 187.186 263.706C187.492 268.98 179.205 281.75 178.081 282.458C176.957 283.166 169.531 270.66 169.434 266.496C169.337 262.332 174.805 204.674 174.805 204.674L179.233 204.688Z" fill="#2B6777"/>
<path d="M179.524 195.25C177.437 194.869 175.286 195.07 173.306 195.833C172.14 197.929 171.724 201.177 172.64 202.703C173.556 204.23 175.277 206.59 177.387 206.493C179.497 206.395 181.273 203.717 181.551 201.149C181.828 198.373 179.524 195.25 179.524 195.25Z" fill="#2B6777"/>
<path opacity="0.2" d="M179.524 195.25C177.437 194.869 175.286 195.07 173.306 195.833C172.14 197.929 171.724 201.177 172.64 202.703C173.556 204.23 175.277 206.59 177.387 206.493C179.497 206.395 181.273 203.717 181.551 201.149C181.828 198.373 179.524 195.25 179.524 195.25Z" fill="white"/>
<path d="M175.707 186.908C171.974 182.647 170.669 169.836 167.907 167.684C165.145 165.533 149.113 155.734 147.6 148.697L149.377 143.575C147.462 142.7 144.88 148.822 137.593 155.331C137.593 155.331 136.691 162.771 142.27 171.224C148.836 181.204 154.596 184.549 154.596 184.549C154.596 184.549 162.619 174.194 163.937 173.792C165.256 173.389 171.238 185.381 175.707 186.908Z" fill="#48555B"/>
<path d="M175.707 186.908C177.706 183.41 177.387 169.031 177.956 167.129C179.149 163.132 182.661 152.791 182.661 152.791C183.249 153.243 183.781 153.765 184.243 154.346C190.878 162.923 190.67 175.304 188.851 179.121C186.936 175.055 182.383 169.808 181.564 170.793C180.745 171.779 179.135 185.201 175.707 186.908Z" fill="#48555B"/>
<path d="M150.918 362.545L154.166 428.67C154.318 431.876 152.153 433.833 149.46 435.61L142.701 439.996C141.954 440.598 141.087 441.034 140.158 441.273C139.229 441.513 138.26 441.55 137.315 441.384C135.995 441.096 134.72 440.629 133.526 439.996C133.481 440.009 133.433 440.009 133.387 439.996L132.999 439.788L59.9064 402.312C57.2814 400.967 55.0573 398.955 53.4586 396.476C51.86 393.998 50.9433 391.142 50.8012 388.196L47.8447 327.984C47.8495 327.232 48.0317 326.492 48.3766 325.824C48.7215 325.156 49.2194 324.579 49.8296 324.139L61.35 316.714C61.9992 316.34 62.728 316.126 63.4762 316.09C64.2244 316.054 64.9705 316.196 65.6528 316.505L148.516 358.923C149.174 359.287 149.728 359.813 150.126 360.45C150.563 361.07 150.835 361.791 150.918 362.545Z" fill="#37474F"/>
<path d="M150.918 362.546L154.166 428.67C154.319 431.876 152.153 433.833 149.461 435.61L142.701 439.996C141.955 440.598 141.088 441.034 140.159 441.273C139.23 441.513 138.26 441.551 137.316 441.384C135.995 441.096 134.72 440.629 133.526 439.996C136.302 441.162 138.482 439.607 138.315 436.332L135.261 374.038C135.165 372.9 134.778 371.806 134.137 370.86L150.182 360.519C150.588 361.125 150.841 361.82 150.918 362.546Z" fill="#263238"/>
<path d="M135.261 373.969C135.15 372.83 134.772 371.733 134.157 370.768C133.542 369.803 132.707 368.998 131.722 368.417L53.3552 328.165C50.2599 326.569 47.8032 328.165 48.0391 331.593L50.8151 387.96C50.9577 390.907 51.8743 393.765 53.4728 396.246C55.0713 398.726 57.2951 400.742 59.9204 402.09L133.012 439.566C136.108 441.162 138.564 439.566 138.329 436.137L135.261 373.969Z" fill="#455A64"/>
<path d="M57.6165 318.948L140.702 362.073C141.873 362.686 142.863 363.594 143.576 364.706C144.289 365.818 144.7 367.097 144.769 368.417L148.114 436.429L146.92 437.206L143.534 368.43C143.475 367.328 143.131 366.259 142.535 365.33C141.938 364.4 141.111 363.642 140.133 363.128L56.4229 319.684L57.6165 318.948Z" fill="#2B6777"/>
<path opacity="0.2" d="M143.575 364.711C144.29 365.821 144.702 367.098 144.769 368.417L148.114 436.429L146.92 437.206L143.534 368.431C143.48 367.329 143.135 366.261 142.534 365.336L143.575 364.711Z" fill="black"/>
<path opacity="0.2" d="M142.534 365.377C141.944 364.442 141.115 363.68 140.133 363.17L56.4229 319.726L57.6165 318.948L140.702 362.073C141.87 362.692 142.859 363.6 143.575 364.711" fill="black"/>
<path d="M86.7227 325.999L87.2224 336.229L83.2805 338.741L82.6143 325.139C82.6143 324.445 83.0445 324.139 83.6691 324.459L86.7227 325.999Z" fill="#2B6777"/>
<path opacity="0.4" d="M86.7227 325.999L87.2224 336.229L83.2805 338.741L82.6143 325.139C82.6143 324.445 83.0445 324.139 83.6691 324.459L86.7227 325.999Z" fill="black"/>
<path d="M115.357 334.73L116.176 351.303L112.429 353.704L109.792 352.316L109.111 338.713C109.072 338.335 108.945 337.971 108.74 337.651C108.535 337.33 108.258 337.062 107.932 336.867L87.9028 326.596L83.7388 324.459C83.1142 324.139 82.6423 324.459 82.6839 325.139L83.3502 338.741L80.6991 337.353L79.8802 320.78C79.8733 320.707 79.8733 320.632 79.8802 320.558C79.913 320.215 80.0192 319.882 80.1916 319.582C80.364 319.283 80.5986 319.024 80.8795 318.823L82.4619 317.796C82.7984 317.613 83.1727 317.51 83.5556 317.496C83.9384 317.481 84.3194 317.556 84.6688 317.713L114.178 332.884C114.507 333.075 114.787 333.342 114.992 333.663C115.197 333.985 115.322 334.35 115.357 334.73Z" fill="#2B6777"/>
<path opacity="0.2" d="M111.652 337.131L112.429 353.704L109.792 352.316L109.111 338.714C109.072 338.335 108.945 337.971 108.74 337.651C108.535 337.33 108.258 337.062 107.932 336.868L87.9028 326.596L83.7388 324.459C83.1142 324.14 82.6423 324.459 82.6839 325.139L83.3502 338.741L80.6991 337.353L79.8802 320.781C79.8733 320.707 79.8733 320.632 79.8802 320.559C79.9496 320.017 80.3799 319.809 80.9351 320.087L110.458 335.257C110.79 335.454 111.071 335.726 111.279 336.052C111.486 336.377 111.614 336.747 111.652 337.131Z" fill="black"/>
<path d="M97.7432 324.431L110.318 330.899C110.269 328.933 109.694 327.016 108.653 325.347C107.265 323.959 101.713 318.407 99.8529 318.976C98.9785 319.24 98.1596 321.655 97.7432 324.431Z" fill="#F28F8F"/>
<path d="M97.7432 331.732C97.8388 332.122 97.9689 332.503 98.1318 332.87C99.4518 335.314 101.278 337.448 103.489 339.13C105.029 338.73 106.425 337.902 107.515 336.743L97.7432 331.732Z" fill="#F28F8F"/>
<path d="M117.106 169.683C107.973 173.694 101.352 180.704 96.6331 195.597C91.9139 210.49 86.1398 228.173 83.8357 243.677C81.5316 259.181 79.519 291.563 78.95 301.599C78.5665 305.644 78.4598 309.711 78.6307 313.771C79.0454 318.366 79.7828 322.925 80.8376 327.415C81.0018 328.475 81.4298 329.477 82.0822 330.328C82.7346 331.18 83.5906 331.853 84.5714 332.287C85.1277 332.435 85.6673 332.639 86.1814 332.898C87.1114 333.467 87.5694 334.605 88.3051 335.383C89.2504 336.229 90.4787 336.689 91.7473 336.673C92.3164 336.673 92.8855 336.673 93.4407 336.743C95.5088 337.048 97.0217 338.88 98.9927 339.519C100.447 340.15 102.09 340.19 103.573 339.63C104.336 339.234 105.061 338.77 105.738 338.242C106.113 337.964 107.126 336.951 107.446 336.66C104.67 336.909 102.629 334.605 101.574 332.496C100.377 329.964 99.7059 327.216 99.6034 324.417C99.5549 323.757 99.6496 323.094 99.881 322.474C99.9348 322.322 100.029 322.187 100.154 322.084C100.279 321.982 100.429 321.915 100.589 321.891C100.95 321.891 101.186 322.238 101.38 322.544C102.483 324.74 103.99 326.708 105.822 328.345C106.581 329.046 107.565 329.455 108.598 329.497C109.105 329.502 109.595 329.315 109.968 328.972C110.342 328.629 110.572 328.157 110.61 327.651C110.565 327.248 110.442 326.857 110.249 326.499C108.852 323.568 107.723 320.516 106.877 317.38C106.243 314.44 105.23 311.594 103.865 308.913C102.324 306.137 98.7151 302.362 99.1037 299.197C99.7422 293.77 109.777 251.422 109.777 251.422C109.777 251.422 121.881 214.363 124.782 204.564C128.418 192.391 125.878 176.762 117.106 169.683Z" fill="#FFA8A7"/>
<path d="M120.354 163.659C105.752 171.099 102.213 176.97 98.2155 188.032C94.6206 197.929 86.6396 225.064 84.6409 234.725C81.0876 252.005 79.0889 285.054 79.0889 285.054C79.0889 285.054 80.81 289.801 89.4572 291.883C98.1045 293.965 101.561 291.314 101.561 291.314L111.277 249.34C111.277 249.34 126.309 214.502 127.53 209.588C130.07 199.719 132.166 170.308 120.354 163.659Z" fill="#37474F"/>
<path d="M231.505 135.927C231.866 136.857 232.046 137.842 232.463 138.703C232.872 139.578 233.41 140.387 234.059 141.104C235.403 142.594 237.253 143.529 239.25 143.727C243.511 144.102 248.244 140.549 247.273 135.927C247.259 135.82 247.268 135.711 247.299 135.608C247.33 135.505 247.383 135.409 247.454 135.328C247.525 135.247 247.612 135.181 247.71 135.136C247.808 135.091 247.914 135.067 248.022 135.066C250.798 134.788 252.339 131.985 252.311 129.375C252.412 127.984 251.994 126.604 251.138 125.502C250.282 124.4 249.049 123.653 247.675 123.407C247.083 123.312 246.483 123.28 245.885 123.31C245.311 123.402 244.731 123.453 244.15 123.462C243.039 123.365 242.928 121.963 242.456 121.186C241.968 120.327 241.275 119.602 240.439 119.077C239.602 118.551 238.649 118.241 237.663 118.173C236.677 118.106 235.69 118.284 234.79 118.691C233.89 119.098 233.105 119.721 232.504 120.506C231.655 121.74 231.148 123.176 231.033 124.67C231.033 124.836 230.603 125.322 230.506 124.948C230.241 123.568 230.424 122.139 231.029 120.871C231.633 119.603 232.626 118.561 233.865 117.896C235.185 117.154 236.702 116.833 238.21 116.976C239.719 117.12 241.147 117.722 242.304 118.702C242.838 119.14 243.306 119.654 243.692 120.228C243.897 120.535 244.074 120.86 244.219 121.2C244.302 121.366 244.469 122.144 244.608 122.227C244.878 122.232 245.149 122.204 245.413 122.144C245.76 122.144 246.121 122.144 246.468 122.144C247.267 122.138 248.064 122.232 248.841 122.421C250.321 122.819 251.622 123.707 252.532 124.94C253.442 126.172 253.907 127.677 253.852 129.209C253.94 130.774 253.495 132.323 252.59 133.603C251.685 134.884 250.374 135.82 248.869 136.26C249.452 141.368 244.386 145.226 239.555 145.101C237.153 145.033 234.87 144.038 233.184 142.325C231.713 140.854 230.075 138.356 230.478 136.19C230.519 135.705 231.311 135.413 231.505 135.927Z" fill="#EBEBEB"/>
<path d="M214.127 129.084C216.336 128.39 218.611 127.925 220.915 127.696L223.885 127.224C224.923 127.009 225.977 126.883 227.036 126.849C227.522 126.849 227.244 127.515 226.953 127.626C225.868 127.988 224.753 128.252 223.621 128.418L220.471 128.973L217.459 129.459C216.345 129.687 215.207 129.771 214.072 129.708C213.753 129.722 213.919 129.181 214.127 129.084Z" fill="#EBEBEB"/>
<path d="M215.918 135.441C216.314 135.31 216.724 135.226 217.139 135.191C217.611 135.122 218.069 135.08 218.527 135.039L220.956 134.9C221.775 134.9 222.58 134.9 223.399 134.817C224.366 134.721 225.34 134.745 226.3 134.886C226.758 134.983 226.3 135.636 226.064 135.705C225.266 135.837 224.458 135.906 223.649 135.913L221.123 136.052L218.625 136.205L217.459 136.274C216.901 136.351 216.336 136.351 215.779 136.274C215.404 136.108 215.682 135.538 215.918 135.441Z" fill="#EBEBEB"/>
</svg>
