<svg width="694" height="694" viewBox="0 0 694 694" fill="none" xmlns="http://www.w3.org/2000/svg">
<path d="M105.959 319.795C-27.1636 396.649 -27.1636 521.263 105.959 598.117C239.083 674.971 454.93 674.984 588.04 598.117C721.149 521.25 721.163 396.649 588.04 319.795C454.917 242.942 239.069 242.9 105.959 319.795Z" fill="#F5F5F5"/>
<path d="M622.019 319.753C621.325 320.434 620.214 321.377 618.799 322.529C609.929 330.08 589.262 347.638 586.653 372.123L583.793 371.387C583.543 344.557 602.462 317.061 615.481 311.495C615.555 311.465 615.621 311.42 615.677 311.364C615.733 311.307 615.778 311.24 615.807 311.166C615.837 311.093 615.852 311.014 615.851 310.934C615.849 310.855 615.832 310.777 615.801 310.704C615.736 310.558 615.618 310.443 615.47 310.383C615.322 310.323 615.157 310.324 615.009 310.384C601.879 315.936 582.447 342.919 582.586 371.082L580.656 370.582C579.935 368.139 575.687 351.15 587.499 328.734C589.477 324.991 591.751 321.412 594.3 318.032L594.425 317.894C602.642 307.192 612.372 301.085 619.049 303.264C620.591 303.672 621.997 304.484 623.122 305.616C624.246 306.748 625.049 308.159 625.447 309.704C625.797 311.533 625.664 313.421 625.063 315.183C624.462 316.945 623.413 318.52 622.019 319.753Z" fill="white"/>
<path d="M606.821 294.658C601.477 302.32 595.939 310.246 593.371 317.338C590.752 320.766 588.43 324.411 586.431 328.234C583.115 334.436 580.712 341.083 579.296 347.972C578.214 307.206 600.575 275.24 607.403 269.536C607.464 269.485 607.514 269.423 607.55 269.352C607.587 269.282 607.609 269.206 607.615 269.127C607.622 269.048 607.612 268.969 607.588 268.894C607.564 268.818 607.524 268.749 607.473 268.689C607.37 268.568 607.224 268.491 607.066 268.476C606.908 268.46 606.75 268.507 606.626 268.606C599.353 274.657 574.827 309.885 578.394 353.871C578.386 353.893 578.386 353.918 578.394 353.94C577.759 359.383 578.06 364.894 579.283 370.235L575.91 369.208C575.008 366.154 567.984 340.296 573.758 306.04C576.826 287.732 587.43 269.952 598.978 263.651C604.322 260.763 609.555 260.389 614.538 262.554C615.69 262.947 616.736 263.601 617.593 264.465C618.451 265.33 619.096 266.381 619.479 267.537C621.297 273.908 614.26 283.985 606.821 294.658Z" fill="white"/>
<path d="M626.627 309.524C626.173 307.779 625.269 306.183 624.005 304.897C622.74 303.611 621.161 302.679 619.423 302.195C613.011 300.099 604.058 304.971 596.063 314.076C595.161 315.117 594.259 316.214 593.371 317.366C590.751 320.794 588.43 324.439 586.431 328.262C583.115 334.463 580.712 341.111 579.296 347.999C578.88 350.095 578.602 352.163 578.408 353.968C577.773 359.41 578.073 364.921 579.296 370.263C579.463 370.957 579.588 371.345 579.602 371.373C579.655 371.512 579.759 371.626 579.893 371.692H580.004L582.919 372.442L587 373.483C587.077 373.503 587.158 373.503 587.236 373.483C587.329 373.469 587.419 373.436 587.499 373.386C587.569 373.336 587.627 373.271 587.67 373.197C587.713 373.123 587.74 373.041 587.749 372.955C589.984 348.596 610.707 330.982 619.562 323.459C620.95 322.252 622.116 321.294 622.838 320.572C624.363 319.21 625.513 317.478 626.176 315.543C626.84 313.609 626.995 311.536 626.627 309.524ZM622.019 319.781C621.325 320.461 620.214 321.405 618.799 322.557C609.929 330.108 589.262 347.666 586.653 372.15L583.793 371.415L582.586 371.109L580.656 370.61C579.935 368.167 575.687 351.178 587.499 328.762C589.477 325.018 591.751 321.44 594.301 318.06L594.425 317.921C602.642 307.22 612.372 301.113 619.049 303.292C620.591 303.7 621.997 304.512 623.122 305.644C624.246 306.776 625.049 308.187 625.447 309.732C625.792 311.556 625.657 313.439 625.056 315.195C624.455 316.952 623.408 318.522 622.019 319.753V319.781Z" fill="#2B6777"/>
<path d="M615.48 311.55C602.461 317.102 583.556 344.612 583.792 371.442V371.984C583.797 372.127 583.749 372.268 583.656 372.378C583.564 372.488 583.435 372.56 583.292 372.581H583.195H582.945C582.844 372.53 582.758 372.453 582.697 372.358C582.636 372.263 582.602 372.153 582.598 372.039C582.598 371.776 582.598 371.512 582.598 371.248C582.46 343.086 601.892 316.131 615.022 310.551C615.17 310.49 615.335 310.49 615.483 310.549C615.63 310.609 615.749 310.724 615.813 310.87C615.845 311.005 615.829 311.146 615.768 311.27C615.708 311.394 615.606 311.493 615.48 311.55Z" fill="#2B6777"/>
<path d="M607.805 295.352C603.428 301.281 599.502 307.531 596.063 314.049C595.452 315.353 594.911 316.617 594.467 317.866C594.467 317.866 593.912 318.31 593.69 318.227C593.539 318.17 593.417 318.057 593.35 317.912C593.282 317.766 593.275 317.6 593.329 317.449V317.338C595.896 310.246 601.435 302.32 606.778 294.658C614.218 283.985 621.255 273.908 619.451 267.537C619.068 266.381 618.422 265.33 617.565 264.465C616.708 263.601 615.662 262.947 614.51 262.554C609.527 260.389 604.294 260.763 598.95 263.65C587.402 269.91 576.742 287.732 573.73 306.04C567.956 340.296 574.979 366.154 575.881 369.208L579.254 370.235L580.309 370.554C580.464 370.602 580.593 370.71 580.668 370.853C580.744 370.996 580.759 371.163 580.712 371.318C580.676 371.424 580.612 371.519 580.526 371.593C580.441 371.666 580.337 371.715 580.226 371.734C580.139 371.755 580.049 371.755 579.962 371.734H579.851L575.215 370.346C575.121 370.317 575.034 370.265 574.964 370.195C574.894 370.124 574.842 370.038 574.813 369.944C574.729 369.68 566.36 342.489 572.523 305.901C575.673 287.26 586.527 269.064 598.367 262.651C604.058 259.57 609.652 259.181 615.023 261.513C616.326 261.984 617.503 262.746 618.465 263.742C619.428 264.738 620.149 265.941 620.575 267.259C622.602 274.13 615.426 284.443 607.805 295.352Z" fill="#2B6777"/>
<path d="M607.403 269.536C600.574 275.24 578.255 307.206 579.296 347.971C579.296 349.887 579.449 351.83 579.602 353.773C579.618 353.925 579.575 354.078 579.482 354.199C579.389 354.321 579.253 354.402 579.102 354.426C578.953 354.435 578.806 354.389 578.688 354.297C578.57 354.205 578.491 354.073 578.464 353.926C578.455 353.904 578.455 353.879 578.464 353.857C574.896 309.871 599.422 274.643 606.696 268.592C606.82 268.493 606.978 268.446 607.136 268.462C607.294 268.477 607.44 268.554 607.542 268.675C607.592 268.74 607.628 268.814 607.649 268.893C607.669 268.972 607.673 269.055 607.66 269.135C607.646 269.216 607.617 269.293 607.573 269.362C607.529 269.431 607.471 269.49 607.403 269.536Z" fill="#2B6777"/>
<path d="M384.948 119.576L371.984 127.058C371.984 126.475 372.095 125.906 372.095 125.336V121.589C372.095 114.913 367.404 112.206 361.616 115.551C359.131 117.078 357.005 119.123 355.384 121.547C354.44 113.219 347.847 110.027 339.852 114.607C331.205 119.59 324.195 131.735 324.195 141.729V147.281C324.139 149.522 324.59 151.748 325.514 153.79L314.771 159.995C313.078 161.093 311.668 162.575 310.658 164.322C309.647 166.068 309.064 168.029 308.955 170.044C308.955 173.75 311.551 175.249 314.771 173.403L384.934 132.887C386.625 131.788 388.031 130.304 389.04 128.558C390.048 126.812 390.629 124.852 390.736 122.838C390.75 119.229 388.154 117.73 384.948 119.576Z" fill="#EBEBEB"/>
<path d="M464.245 127.696L454.529 133.331C454.529 132.901 454.612 132.471 454.612 132.04V129.264C454.612 124.226 451.072 122.186 446.714 124.712C444.831 125.86 443.221 127.404 441.995 129.237C441.287 122.894 436.318 120.534 430.28 124.032C423.757 127.793 418.454 136.954 418.454 144.491V148.655C418.408 150.349 418.755 152.031 419.468 153.568L411.292 158.232C410.015 159.059 408.951 160.177 408.188 161.494C407.426 162.811 406.987 164.291 406.906 165.811C406.906 168.587 408.863 169.739 411.292 168.351L464.245 137.815C465.52 136.981 466.581 135.86 467.343 134.541C468.105 133.222 468.546 131.743 468.631 130.222C468.631 127.405 466.66 126.308 464.245 127.696Z" fill="#EBEBEB"/>
<path d="M385.863 554.159L375.481 548.163L383.032 543.805C384.387 543.147 385.529 542.121 386.328 540.845C387.128 539.569 387.552 538.093 387.552 536.587C387.552 535.081 387.128 533.605 386.328 532.329C385.529 531.053 384.387 530.027 383.032 529.369L364.238 518.515C361.967 517.321 359.44 516.698 356.875 516.698C354.309 516.698 351.782 517.321 349.512 518.515L336.825 525.844L271.284 487.993C269.032 486.756 266.496 486.129 263.927 486.175C261.353 486.119 258.81 486.747 256.557 487.993L229.769 503.469C227.855 504.448 226.207 505.877 224.966 507.633C223.756 509.733 223.389 512.213 223.939 514.573L237.819 583.973C238.624 587.457 241.234 590.497 245.578 593.009L264.33 603.78C266.572 605.028 269.107 605.656 271.673 605.598C274.229 605.65 276.753 605.023 278.987 603.78L332.3 573.008L347.818 581.961C350.09 583.15 352.617 583.771 355.182 583.771C357.746 583.771 360.273 583.15 362.545 581.961L385.863 568.594C387.223 567.941 388.37 566.916 389.173 565.639C389.975 564.363 390.401 562.885 390.401 561.377C390.401 559.868 389.975 558.391 389.173 557.114C388.37 555.837 387.223 554.813 385.863 554.159ZM282.624 557.129L279.515 541.5L294.602 550.217L282.624 557.129Z" fill="#E0E0E0"/>
<path d="M87.846 548.746C98.5774 552.66 108.79 557.871 118.257 564.263C128.889 571.453 138.619 580.184 149.904 586.111C164.644 593.869 181.605 596.673 198.206 595.827C207.603 595.369 217.832 593.314 223.884 585.902C225.52 584.044 226.496 581.697 226.66 579.226C226.66 575.617 224.259 572.508 221.705 570.01C208.2 556.768 189.115 551.3 170.724 547.011C152.333 542.722 141.326 537.392 123.296 527.759C115.578 523.595 108.028 519.195 100.199 515.267L100.005 515.17C96.1724 513.071 92.2294 511.181 88.193 509.507C82.877 507.55 78.477 506.12 72.5919 506.564C66.7068 507.008 60.0999 506.911 56.047 511.672C54.3724 513.679 53.3095 516.125 52.9847 518.718C52.6599 521.312 53.0868 523.944 54.2148 526.302C59.9334 539.488 75.5484 544.262 87.846 548.746Z" fill="#E0E0E0"/>
<path d="M490.227 446.173C485.522 443.188 480.331 440.052 474.779 436.845C469.227 433.639 463.675 430.613 458.248 427.726C450.914 423.973 443.211 420.992 435.262 418.829C426.768 416.517 418.012 415.304 409.21 415.22H408.071C399.182 415.268 390.33 416.367 381.699 418.496C371.817 420.974 362.339 424.848 353.551 430.002C343.987 435.554 337.256 441.106 332.994 446.894C328.539 453.015 326.388 459.206 326.596 465.313C326.951 471.741 329.459 477.862 333.716 482.691C338.293 488.068 343.667 492.712 349.65 496.46C354.508 499.541 359.825 502.747 365.446 505.995C371.067 509.243 376.55 512.241 381.616 514.92C388.957 518.664 396.664 521.641 404.615 523.803C413.103 526.124 421.855 527.337 430.654 527.412H431.876C440.765 527.368 449.618 526.269 458.248 524.137C468.131 521.661 477.609 517.787 486.396 512.63C495.973 507.078 502.705 501.526 506.953 495.738C511.422 489.631 513.573 483.427 513.351 477.319C512.999 470.891 510.49 464.769 506.231 459.942C501.628 454.565 496.231 449.922 490.227 446.173ZM458.303 482.927C457.817 483.662 456.471 485.203 452.751 487.341C449.957 489.007 446.924 490.233 443.757 490.977C441.505 491.474 439.206 491.73 436.9 491.741C436.289 491.741 435.679 491.741 435.068 491.741C432.232 491.563 429.432 491.012 426.74 490.103C423.776 489.087 420.898 487.833 418.134 486.355C408.037 481.203 398.215 475.528 388.709 469.352C386.548 468.058 384.553 466.506 382.768 464.73C381.85 463.881 381.175 462.803 380.811 461.607C380.811 461.441 380.658 460.899 381.408 459.747C381.894 459.026 383.24 457.485 386.96 455.333C389.751 453.666 392.786 452.443 395.954 451.711C398.105 451.232 400.302 450.985 402.506 450.975C403.186 450.975 403.894 450.975 404.49 451.044C407.327 451.253 410.125 451.823 412.818 452.738C415.814 453.752 418.74 454.962 421.577 456.361C431.667 461.607 441.592 467.326 451.099 473.308C453.299 474.647 455.351 476.215 457.221 477.986C458.103 478.743 458.745 479.741 459.067 480.859C459.039 481.067 459.15 481.636 458.331 482.927H458.303Z" fill="#E0E0E0"/>
<path d="M644.947 404.56L634.565 398.564L642.116 394.206C643.471 393.548 644.613 392.523 645.412 391.246C646.212 389.97 646.636 388.494 646.636 386.988C646.636 385.482 646.212 384.007 645.412 382.73C644.613 381.454 643.471 380.428 642.116 379.771L623.308 368.916C621.038 367.723 618.511 367.099 615.945 367.099C613.38 367.099 610.852 367.723 608.582 368.916L595.895 376.231L530.354 338.394C528.083 337.2 525.556 336.577 522.991 336.577C520.425 336.577 517.898 337.2 515.627 338.394L488.853 353.857C486.932 354.832 485.279 356.261 484.036 358.021C482.823 360.119 482.456 362.601 483.009 364.961L496.889 434.361C497.694 437.845 500.304 440.884 504.648 443.397L523.456 454.251C525.698 455.499 528.233 456.126 530.798 456.069C533.368 456.128 535.908 455.5 538.155 454.251L591.468 423.465L606.986 432.431C609.256 433.625 611.783 434.249 614.349 434.249C616.914 434.249 619.441 433.625 621.712 432.431L644.933 419.023C646.293 418.37 647.44 417.345 648.243 416.068C649.045 414.792 649.471 413.314 649.471 411.806C649.471 410.297 649.045 408.82 648.243 407.543C647.44 406.266 646.293 405.242 644.933 404.588L644.947 404.56ZM541.708 407.517L538.543 391.902L553.631 400.604L541.708 407.517Z" fill="#E0E0E0"/>
<path d="M494.809 552.424C495.176 552.253 495.577 552.164 495.982 552.164C496.387 552.164 496.787 552.253 497.155 552.424L501.749 555.089C501.884 555.142 502 555.234 502.084 555.352C502.167 555.47 502.215 555.61 502.221 555.755C502.213 555.901 502.164 556.042 502.081 556.162C501.998 556.282 501.883 556.377 501.749 556.435L481.207 568.303C480.842 568.485 480.441 568.579 480.034 568.579C479.627 568.579 479.225 568.485 478.861 568.303L450.851 552.132C450.717 552.072 450.602 551.977 450.517 551.858C450.431 551.738 450.379 551.598 450.365 551.452C450.38 551.307 450.433 551.167 450.518 551.048C450.604 550.929 450.718 550.834 450.851 550.772L471.06 539.113C471.422 538.93 471.821 538.835 472.226 538.835C472.631 538.835 473.031 538.93 473.392 539.113L477.986 541.764C478.122 541.822 478.239 541.916 478.325 542.036C478.41 542.156 478.461 542.297 478.472 542.444C478.46 542.591 478.408 542.731 478.323 542.851C478.237 542.971 478.121 543.065 477.986 543.124L464.634 550.828L469.325 553.534L481.72 546.372C482.084 546.19 482.486 546.095 482.893 546.095C483.3 546.095 483.702 546.19 484.066 546.372L488.66 549.023C488.794 549.082 488.909 549.177 488.992 549.297C489.075 549.417 489.124 549.558 489.132 549.703C489.122 549.849 489.073 549.989 488.99 550.109C488.907 550.229 488.793 550.324 488.66 550.384L476.251 557.532L481.109 560.308L494.809 552.424Z" fill="#455A64"/>
<path d="M501.666 530.494C502.03 530.312 502.432 530.217 502.839 530.217C503.246 530.217 503.647 530.312 504.012 530.494L508.384 533.02C508.518 533.078 508.632 533.173 508.716 533.293C508.799 533.413 508.848 533.554 508.856 533.7C508.846 533.845 508.797 533.985 508.714 534.105C508.631 534.225 508.517 534.32 508.384 534.38L504.442 536.656C501.777 538.183 501.777 539.724 504.442 541.251L515.102 547.413C515.237 547.471 515.354 547.565 515.44 547.685C515.525 547.805 515.577 547.946 515.588 548.093C515.575 548.24 515.523 548.38 515.438 548.5C515.352 548.62 515.236 548.714 515.102 548.774L509.647 551.924C509.283 552.106 508.881 552.201 508.474 552.201C508.067 552.201 507.665 552.106 507.301 551.924L487.092 540.251C486.941 540.208 486.808 540.117 486.714 539.992C486.619 539.867 486.568 539.714 486.568 539.557C486.568 539.4 486.619 539.248 486.714 539.123C486.808 538.997 486.941 538.906 487.092 538.863L492.13 535.962C492.492 535.779 492.891 535.684 493.296 535.684C493.701 535.684 494.101 535.779 494.462 535.962L495.462 536.531C495.522 535.703 495.816 534.909 496.308 534.241C497.059 533.288 498.006 532.507 499.084 531.951L501.666 530.494Z" fill="#455A64"/>
<path d="M522.651 518.376C523.009 518.184 523.411 518.088 523.817 518.099C524.228 518.088 524.634 518.184 524.997 518.376L529.369 520.902C529.503 520.961 529.618 521.056 529.701 521.176C529.785 521.296 529.833 521.437 529.841 521.583C529.832 521.728 529.783 521.868 529.699 521.988C529.616 522.108 529.502 522.203 529.369 522.263L525.427 524.539C522.762 526.066 522.762 527.602 525.427 529.147L536.087 535.296C536.223 535.352 536.34 535.446 536.423 535.567C536.507 535.687 536.554 535.829 536.559 535.976C536.549 536.122 536.5 536.262 536.417 536.382C536.334 536.501 536.22 536.596 536.087 536.656L530.632 539.807C530.268 539.989 529.867 540.084 529.46 540.084C529.052 540.084 528.651 539.989 528.287 539.807L508.077 528.134C507.945 528.078 507.83 527.985 507.747 527.868C507.664 527.75 507.615 527.612 507.605 527.468C507.614 527.322 507.662 527.181 507.745 527.061C507.829 526.941 507.944 526.846 508.077 526.788L513.116 523.887C513.473 523.693 513.875 523.597 514.282 523.609C514.688 523.598 515.09 523.694 515.448 523.887L516.447 524.456C516.508 523.628 516.801 522.834 517.294 522.166C518.045 521.213 518.991 520.432 520.07 519.875L522.651 518.376Z" fill="#455A64"/>
<path d="M559.934 508.008C560.406 508.244 560.975 508.549 561.655 508.938C562.335 509.327 562.862 509.66 563.279 509.937C564.458 510.626 565.465 511.576 566.221 512.713C566.837 513.664 567.12 514.791 567.026 515.92C566.867 517.165 566.34 518.334 565.513 519.279C564.378 520.582 563.02 521.672 561.502 522.499C559.759 523.507 557.893 524.287 555.95 524.817C554.056 525.329 552.109 525.623 550.148 525.691C548.285 525.752 546.422 525.593 544.596 525.219C542.904 524.89 541.268 524.319 539.738 523.526C539.28 523.29 538.711 522.971 538.031 522.582C537.351 522.193 536.81 521.86 536.407 521.597C535.202 520.921 534.175 519.97 533.409 518.821C532.799 517.858 532.526 516.721 532.632 515.586C532.803 514.338 533.333 513.166 534.158 512.214C535.268 510.892 536.62 509.794 538.142 508.98C539.882 507.968 541.749 507.193 543.694 506.676C545.608 506.17 547.573 505.876 549.551 505.801C551.414 505.727 553.278 505.881 555.103 506.259C556.789 506.607 558.416 507.196 559.934 508.008ZM547.275 518.918C548.447 519.495 549.745 519.771 551.05 519.723C552.365 519.671 553.646 519.3 554.784 518.64C555.936 517.974 556.561 517.252 556.644 516.489C556.727 515.725 556.269 515.004 555.256 514.31C554.811 513.982 554.348 513.681 553.868 513.407C553.36 513.116 552.836 512.852 552.3 512.616C551.135 512.031 549.84 511.754 548.538 511.811C547.225 511.856 545.942 512.223 544.804 512.88C543.652 513.56 543.028 514.268 542.944 515.045C542.861 515.822 543.319 516.53 544.332 517.224C544.775 517.551 545.238 517.848 545.72 518.113C546.222 518.399 546.742 518.654 547.275 518.876V518.918Z" fill="#455A64"/>
<path d="M571.205 490.339C571.569 490.157 571.971 490.062 572.378 490.062C572.785 490.062 573.187 490.157 573.551 490.339L577.937 492.865C578.07 492.925 578.184 493.02 578.267 493.14C578.35 493.26 578.399 493.4 578.409 493.545C578.401 493.691 578.352 493.832 578.269 493.952C578.185 494.072 578.071 494.166 577.937 494.225L573.981 496.502C571.335 498.028 571.335 499.564 573.981 501.11L584.655 507.259C584.788 507.319 584.902 507.413 584.985 507.533C585.068 507.653 585.117 507.793 585.127 507.939C585.118 508.085 585.07 508.225 584.987 508.345C584.903 508.465 584.788 508.56 584.655 508.619L579.186 511.77C578.828 511.962 578.426 512.058 578.02 512.047C577.614 512.059 577.211 511.963 576.854 511.77L556.589 500.11C556.455 500.051 556.339 499.957 556.253 499.837C556.168 499.717 556.116 499.577 556.104 499.43C556.114 499.283 556.166 499.142 556.251 499.022C556.337 498.902 556.454 498.808 556.589 498.75L561.614 495.849C561.978 495.667 562.38 495.572 562.787 495.572C563.194 495.572 563.595 495.667 563.96 495.849L564.959 496.418C565.013 495.589 565.308 494.793 565.806 494.128C566.553 493.171 567.5 492.39 568.582 491.838L571.205 490.339Z" fill="#455A64"/>
<path d="M381.2 540.737L357.965 554.145C356.482 554.893 354.844 555.283 353.183 555.283C351.522 555.283 349.884 554.893 348.401 554.145L330.357 543.707L274.421 576.02C272.931 576.76 271.289 577.145 269.625 577.145C267.962 577.145 266.32 576.76 264.83 576.02L246.036 565.152C242.955 563.394 241.178 561.483 240.706 559.419L226.826 490.186C226.755 489.778 226.723 489.365 226.729 488.951C226.729 490.339 226.729 507.564 226.729 508.383C226.737 508.741 226.769 509.098 226.826 509.451L240.706 578.685C241.178 580.739 242.955 582.65 246.036 584.417L264.83 595.271C266.318 596.02 267.96 596.409 269.625 596.409C271.291 596.409 272.933 596.02 274.421 595.271L330.344 563L348.388 573.438C349.87 574.186 351.508 574.576 353.169 574.576C354.83 574.576 356.468 574.186 357.951 573.438L381.186 560.03C381.737 559.793 382.211 559.408 382.556 558.918C382.902 558.428 383.105 557.852 383.143 557.254V537.961C383.105 538.557 382.903 539.132 382.56 539.621C382.218 540.111 381.747 540.497 381.2 540.737Z" fill="#2B6777"/>
<path d="M380.311 532.478V513.185C380.267 513.782 380.061 514.355 379.717 514.844C379.372 515.333 378.901 515.719 378.354 515.961L363.086 524.761L379.561 534.269C380.019 533.782 380.285 533.146 380.311 532.478Z" fill="#2B6777"/>
<path d="M274.518 529.758L286.081 536.462L302.806 526.816L270.16 507.953L274.505 529.758H274.518Z" fill="#2B6777"/>
<path opacity="0.35" d="M274.518 529.758L286.081 536.462L302.806 526.816L270.16 507.953L274.505 529.758H274.518Z" fill="black"/>
<path opacity="0.2" d="M380.311 532.478V513.185C380.267 513.782 380.061 514.355 379.717 514.844C379.372 515.333 378.901 515.719 378.354 515.961L363.086 524.761L379.561 534.269C380.019 533.782 380.285 533.146 380.311 532.478Z" fill="black"/>
<path opacity="0.2" d="M381.2 540.737L357.964 554.145C356.499 554.948 354.845 555.341 353.176 555.283V574.632C354.845 574.69 356.499 574.296 357.964 573.494L381.2 560.086C381.75 559.849 382.224 559.464 382.57 558.974C382.915 558.484 383.118 557.908 383.157 557.31V538.017C383.107 538.605 382.899 539.168 382.554 539.647C382.209 540.126 381.741 540.503 381.2 540.737Z" fill="black"/>
<path opacity="0.25" d="M240.706 559.364L226.826 490.131C226.755 489.723 226.723 489.309 226.729 488.895C226.729 490.283 226.729 507.508 226.729 508.327C226.737 508.685 226.769 509.042 226.826 509.396L240.706 578.629C240.8 579.035 240.945 579.426 241.137 579.795V560.502C240.947 560.142 240.803 559.76 240.706 559.364Z" fill="black"/>
<path opacity="0.35" d="M269.632 577.103C267.961 577.147 266.307 576.76 264.83 575.978L246.036 565.11C243.981 564.116 242.274 562.524 241.137 560.544V579.837C242.274 581.817 243.981 583.409 246.036 584.404L264.83 595.258C266.303 596.052 267.959 596.445 269.632 596.396C269.808 596.417 269.985 596.417 270.16 596.396V577.103C269.985 577.123 269.808 577.123 269.632 577.103Z" fill="black"/>
<path opacity="0.2" d="M274.421 576.02C273.112 576.728 271.648 577.1 270.16 577.103V596.396C271.65 596.395 273.116 596.018 274.421 595.299L330.344 563.001V543.708L274.421 576.02Z" fill="black"/>
<path opacity="0.35" d="M348.388 554.145L330.344 543.708V563.001L348.388 573.438C349.847 574.243 351.497 574.636 353.162 574.577V555.283C351.497 555.343 349.847 554.949 348.388 554.145Z" fill="black"/>
<path d="M357.965 554.145C356.479 554.893 354.839 555.283 353.176 555.283C351.513 555.283 349.873 554.893 348.388 554.145L330.344 543.707L274.421 576.02C272.933 576.76 271.294 577.145 269.632 577.145C267.971 577.145 266.332 576.76 264.844 576.02L246.036 565.166C242.974 563.389 241.202 561.478 240.72 559.433L226.84 490.2C226.563 489.134 226.686 488.003 227.187 487.021C228.003 485.99 229.036 485.151 230.213 484.565L256.988 469.102C258.462 468.311 260.118 467.923 261.79 467.978C263.453 467.923 265.101 468.311 266.565 469.102L334.688 508.424L349.956 499.624C351.441 498.876 353.081 498.487 354.745 498.487C356.408 498.487 358.048 498.876 359.533 499.624L378.341 510.479C378.922 510.674 379.427 511.047 379.785 511.545C380.143 512.043 380.336 512.641 380.336 513.255C380.336 513.868 380.143 514.466 379.785 514.964C379.427 515.462 378.922 515.835 378.341 516.031L363.073 524.844L381.117 535.282C381.691 535.484 382.189 535.86 382.542 536.357C382.894 536.854 383.083 537.449 383.083 538.058C383.083 538.668 382.894 539.262 382.542 539.759C382.189 540.256 381.691 540.632 381.117 540.834L357.965 554.145ZM302.792 526.802L270.16 508.008L276.906 541.806L302.792 526.802Z" fill="#2B6777"/>
<path d="M506.093 455.084C506.009 459.734 504.177 464.48 500.652 469.311C496.876 474.502 490.552 479.656 481.678 484.773C473.317 489.686 464.296 493.379 454.889 495.738C446.265 497.884 437.404 498.933 428.517 498.861C420.159 498.788 411.846 497.636 403.783 495.433C396.169 493.371 388.791 490.519 381.769 486.924C376.689 484.259 371.387 481.372 365.807 478.111C360.228 474.849 355.05 471.781 350.206 468.7C344.679 465.248 339.716 460.964 335.494 456C331.95 452.051 329.855 447.014 329.553 441.717C329.65 444.771 329.428 457.624 329.553 461.011C329.855 466.308 331.95 471.344 335.494 475.293C339.716 480.257 344.679 484.541 350.206 487.993C355.046 491.075 360.246 494.211 365.807 497.404C371.359 500.61 376.689 503.553 381.769 506.232C388.794 509.816 396.172 512.662 403.783 514.726C411.846 516.929 420.159 518.081 428.517 518.154C437.404 518.226 446.265 517.177 454.889 515.031C464.296 512.672 473.317 508.98 481.678 504.066C490.561 498.94 496.886 493.786 500.652 488.604C504.441 483.427 506.204 478.347 506.065 473.405C505.968 470.532 506.148 459.428 506.093 455.084Z" fill="#2B6777"/>
<path opacity="0.35" d="M433.278 498.764C431.695 498.764 430.113 498.889 428.545 498.861C420.187 498.788 411.873 497.636 403.81 495.433C396.196 493.371 388.819 490.519 381.797 486.924C376.717 484.259 371.415 481.372 365.835 478.111C360.255 474.849 355.078 471.781 350.234 468.7C344.706 465.248 339.743 460.964 335.521 456C331.977 452.051 329.882 447.014 329.58 441.717C329.677 444.771 329.455 457.624 329.58 461.011C329.882 466.308 331.977 471.344 335.521 475.293C339.743 480.257 344.706 484.541 350.234 487.993C355.073 491.075 360.274 494.211 365.835 497.404C371.387 500.61 376.717 503.553 381.797 506.232C388.822 509.816 396.199 512.662 403.81 514.726C411.873 516.929 420.187 518.081 428.545 518.154C430.113 518.154 431.695 518.154 433.278 518.057V498.764Z" fill="black"/>
<path opacity="0.2" d="M506.092 455.083C506.008 459.733 504.176 464.48 500.651 469.31C496.875 474.502 490.551 479.656 481.677 484.773C473.316 489.686 464.295 493.379 454.888 495.738C447.81 497.474 440.574 498.488 433.291 498.764V518.057C440.573 517.774 447.809 516.76 454.888 515.031C464.295 512.672 473.316 508.979 481.677 504.066C490.56 498.94 496.885 493.786 500.651 488.604C504.44 483.426 506.203 478.346 506.064 473.405C505.967 470.532 506.147 459.428 506.092 455.083Z" fill="black"/>
<path d="M377.022 444.84C378.096 445.939 379.251 446.956 380.478 447.88C381.075 447.491 381.672 447.103 382.338 446.714C385.597 444.807 389.125 443.403 392.804 442.55C396.095 441.818 399.475 441.565 402.839 441.8C406.104 442.038 409.327 442.686 412.43 443.73C415.681 444.832 418.861 446.135 421.952 447.63C432.232 453.043 442.166 458.785 451.752 464.855C453.001 465.632 454.153 466.437 455.208 467.215C457.32 465.974 459.157 464.316 460.608 462.343C461.826 460.656 462.325 458.554 461.996 456.499C461.489 454.36 460.347 452.425 458.72 450.947C456.583 448.915 454.233 447.118 451.71 445.59C442.115 439.482 432.195 433.732 421.952 428.337C418.876 426.829 415.71 425.513 412.472 424.395C409.368 423.351 406.146 422.703 402.881 422.466C399.516 422.228 396.135 422.486 392.845 423.229C389.164 424.074 385.635 425.478 382.38 427.393C379.542 428.842 377.062 430.904 375.121 433.431C374.505 434.249 374.064 435.185 373.825 436.18C373.586 437.176 373.555 438.21 373.733 439.219C374.307 441.353 375.443 443.294 377.022 444.84Z" fill="#2B6777"/>
<path opacity="0.35" d="M377.022 444.84C378.096 445.939 379.251 446.956 380.478 447.88C381.075 447.491 381.672 447.103 382.338 446.714C385.597 444.807 389.125 443.403 392.804 442.55C396.095 441.818 399.475 441.565 402.839 441.8C406.104 442.038 409.327 442.686 412.43 443.73C415.681 444.832 418.861 446.135 421.952 447.63C432.232 453.043 442.166 458.785 451.752 464.855C453.001 465.632 454.153 466.437 455.208 467.215C457.32 465.974 459.157 464.316 460.608 462.343C461.826 460.656 462.325 458.554 461.996 456.499C461.489 454.36 460.347 452.425 458.72 450.947C456.583 448.915 454.233 447.118 451.71 445.59C442.115 439.482 432.195 433.732 421.952 428.337C418.876 426.829 415.71 425.513 412.472 424.395C409.368 423.351 406.146 422.703 402.881 422.466C399.516 422.228 396.135 422.486 392.845 423.229C389.164 424.074 385.635 425.478 382.38 427.393C379.542 428.842 377.062 430.904 375.121 433.431C374.505 434.249 374.064 435.185 373.825 436.18C373.586 437.176 373.555 438.21 373.733 439.219C374.307 441.353 375.443 443.294 377.022 444.84Z" fill="black"/>
<path d="M353.94 411.042C362.298 406.124 371.32 402.431 380.728 400.077C389.354 397.938 398.214 396.889 407.1 396.954C415.462 397.033 423.78 398.185 431.848 400.383C439.465 402.449 446.847 405.301 453.876 408.891C459.196 411.667 464.637 414.67 470.199 417.899C475.76 421.129 480.849 424.201 485.467 427.116C490.992 430.571 495.954 434.854 500.179 439.816C503.713 443.772 505.811 448.803 506.134 454.098C506.31 459.049 504.505 464.138 500.721 469.366C496.936 474.594 490.574 479.73 481.636 484.773C473.275 489.686 464.254 493.379 454.847 495.738C446.222 497.877 437.362 498.926 428.475 498.861C420.112 498.785 411.794 497.628 403.727 495.419C396.118 493.361 388.745 490.515 381.728 486.924C376.647 484.259 371.327 481.326 365.766 478.125C360.204 474.923 354.999 471.781 350.151 468.7C344.628 465.24 339.667 460.957 335.438 456C331.901 452.04 329.803 447.003 329.483 441.703C329.317 436.762 331.121 431.673 334.896 426.435C338.672 421.198 345.02 416.067 353.94 411.042ZM451.71 445.548C442.115 439.478 432.181 433.746 421.91 428.351C418.832 426.833 415.661 425.512 412.416 424.395C409.317 423.352 406.1 422.7 402.839 422.452C399.474 422.226 396.094 422.488 392.804 423.229C389.123 424.074 385.593 425.478 382.338 427.393C379.5 428.842 377.02 430.904 375.079 433.431C374.459 434.247 374.016 435.183 373.777 436.179C373.538 437.175 373.509 438.211 373.691 439.219C374.25 441.336 375.384 443.257 376.967 444.771C379.054 446.852 381.384 448.674 383.907 450.198C393.534 456.444 403.481 462.185 413.707 467.395C416.697 468.996 419.811 470.351 423.021 471.448C427.983 473.158 433.259 473.764 438.481 473.224C443.702 472.685 448.743 471.013 453.251 468.325C456.1 466.88 458.586 464.812 460.524 462.274C461.74 460.591 462.24 458.494 461.912 456.444C461.41 454.3 460.262 452.362 458.623 450.892C456.519 448.866 454.201 447.074 451.71 445.548Z" fill="#2B6777"/>
<path d="M640.312 391.138L617.077 404.547C615.594 405.294 613.956 405.684 612.295 405.684C610.634 405.684 608.997 405.294 607.514 404.547L589.47 394.095L533.589 426.366C532.103 427.114 530.463 427.504 528.8 427.504C527.137 427.504 525.497 427.114 524.012 426.366L505.204 415.512C502.123 413.749 500.36 411.834 499.874 409.779L485.994 340.546C485.924 340.138 485.891 339.724 485.897 339.311C485.897 340.699 485.897 357.924 485.897 358.743C485.905 359.101 485.938 359.458 485.994 359.811L499.874 429.031C500.36 431.099 502.123 433.001 505.204 434.777L524.012 445.631C525.497 446.379 527.137 446.769 528.8 446.769C530.463 446.769 532.103 446.379 533.589 445.631L589.47 413.36L607.514 423.812C608.997 424.56 610.634 424.95 612.295 424.95C613.956 424.95 615.594 424.56 617.077 423.812L640.312 410.404C640.863 410.167 641.337 409.782 641.682 409.292C642.028 408.802 642.231 408.226 642.269 407.628V388.362C642.229 388.96 642.026 389.536 641.68 390.025C641.335 390.515 640.862 390.9 640.312 391.138Z" fill="#2B6777"/>
<path d="M639.438 382.866V363.573C639.394 364.169 639.188 364.743 638.844 365.232C638.499 365.72 638.028 366.107 637.481 366.349L622.213 375.149L638.688 384.643C639.151 384.165 639.419 383.531 639.438 382.866Z" fill="#2B6777"/>
<path d="M533.63 380.16L545.192 386.864L561.917 377.217L529.271 358.354L533.616 380.16H533.63Z" fill="#2B6777"/>
<path opacity="0.35" d="M533.63 380.16L545.192 386.864L561.917 377.217L529.271 358.354L533.616 380.16H533.63Z" fill="black"/>
<path opacity="0.2" d="M639.438 382.866V363.573C639.394 364.169 639.188 364.743 638.844 365.232C638.499 365.72 638.028 366.107 637.481 366.349L622.213 375.149L638.688 384.643C639.151 384.165 639.419 383.531 639.438 382.866Z" fill="black"/>
<path opacity="0.2" d="M640.311 391.139L617.076 404.547C615.611 405.349 613.957 405.742 612.287 405.685V424.978C613.957 425.036 615.611 424.642 617.076 423.84L640.311 410.432C640.861 410.195 641.336 409.81 641.681 409.32C642.027 408.83 642.23 408.254 642.268 407.656V388.363C642.228 388.96 642.024 389.536 641.679 390.025C641.334 390.515 640.861 390.9 640.311 391.139Z" fill="black"/>
<path opacity="0.25" d="M499.818 409.779L485.938 340.546C485.867 340.138 485.835 339.724 485.841 339.311C485.841 340.699 485.841 357.924 485.841 358.743C485.848 359.101 485.881 359.458 485.938 359.811L499.818 429.031C499.908 429.444 500.058 429.841 500.262 430.211V410.917C500.062 410.56 499.913 410.177 499.818 409.779Z" fill="black"/>
<path opacity="0.35" d="M528.743 427.504C527.075 427.553 525.423 427.16 523.955 426.366L505.147 415.512C503.093 414.521 501.389 412.928 500.262 410.945V430.28C501.389 432.263 503.093 433.856 505.147 434.847L523.955 445.701C525.423 446.495 527.075 446.888 528.743 446.839C528.919 446.86 529.096 446.86 529.271 446.839V427.504C529.096 427.525 528.919 427.525 528.743 427.504Z" fill="black"/>
<path opacity="0.2" d="M533.533 426.366C532.228 427.086 530.762 427.464 529.271 427.463V446.756C530.762 446.757 532.228 446.38 533.533 445.659L589.414 413.388V394.095L533.533 426.366Z" fill="black"/>
<path opacity="0.35" d="M607.513 404.547L589.469 394.095V413.388L607.513 423.84C608.972 424.644 610.622 425.037 612.287 424.978V405.685C610.622 405.744 608.972 405.351 607.513 404.547Z" fill="black"/>
<path d="M617.091 404.547C615.619 405.344 613.961 405.732 612.288 405.671C610.621 405.724 608.969 405.336 607.5 404.547L589.456 394.109L533.575 426.366C532.087 427.106 530.448 427.491 528.786 427.491C527.125 427.491 525.486 427.106 523.998 426.366L505.19 415.512C502.127 413.735 500.355 411.824 499.874 409.779L485.994 340.546C485.723 339.479 485.846 338.35 486.341 337.367C487.157 336.335 488.19 335.497 489.367 334.911L516.142 319.448C517.629 318.7 519.272 318.31 520.937 318.31C522.603 318.31 524.245 318.7 525.733 319.448L593.842 358.77L609.11 349.956C610.598 349.217 612.237 348.832 613.898 348.832C615.56 348.832 617.199 349.217 618.687 349.956L637.481 360.88C638.062 361.076 638.567 361.449 638.925 361.947C639.283 362.445 639.476 363.043 639.476 363.656C639.476 364.269 639.283 364.867 638.925 365.365C638.567 365.863 638.062 366.237 637.481 366.432L622.213 375.246L640.257 385.684C640.831 385.886 641.329 386.261 641.682 386.759C642.034 387.256 642.223 387.85 642.223 388.46C642.223 389.069 642.034 389.663 641.682 390.161C641.329 390.658 640.831 391.033 640.257 391.236L617.091 404.547ZM561.918 377.203L529.272 358.368L536.018 392.152L561.918 377.203Z" fill="#2B6777"/>
<path d="M432.015 308.774C433.222 303.139 410.223 316.422 409.016 322.058L416.4 342.003C416.668 342.58 417.103 343.064 417.649 343.391C419.273 344.391 425.269 347.777 425.783 348.097C426.199 348.351 426.667 348.508 427.152 348.555C427.638 348.602 428.127 348.538 428.584 348.369C429.042 348.199 429.454 347.927 429.791 347.575C430.128 347.222 430.381 346.798 430.53 346.334L440.135 313.397C440.745 310.69 432.015 308.774 432.015 308.774Z" fill="#2B6777"/>
<path opacity="0.25" d="M432.015 308.774C433.222 303.139 410.223 316.422 409.016 322.058L416.4 342.003C416.668 342.58 417.103 343.064 417.649 343.391C419.273 344.391 425.269 347.777 425.783 348.097C426.199 348.351 426.667 348.508 427.152 348.555C427.638 348.602 428.127 348.538 428.584 348.369C429.042 348.199 429.454 347.927 429.791 347.575C430.128 347.222 430.381 346.798 430.53 346.334L440.135 313.397C440.745 310.69 432.015 308.774 432.015 308.774Z" fill="black"/>
<path d="M503.955 159.287L312.037 270.008C311.136 270.592 310.387 271.38 309.849 272.309C309.311 273.237 309 274.28 308.941 275.351V380.839C309 381.911 309.311 382.953 309.849 383.882C310.387 384.811 311.136 385.599 312.037 386.183L313.966 387.28C314.923 387.766 315.981 388.02 317.054 388.02C318.128 388.02 319.186 387.766 320.143 387.28L512.075 276.434C512.974 275.846 513.721 275.055 514.257 274.124C514.792 273.193 515.1 272.149 515.157 271.076V165.713C515.1 164.643 514.792 163.601 514.257 162.672C513.721 161.743 512.974 160.954 512.075 160.369L510.146 159.273C509.185 158.79 508.124 158.539 507.049 158.542C505.974 158.544 504.914 158.799 503.955 159.287Z" fill="#2B6777"/>
<path opacity="0.25" d="M503.955 159.287L312.037 270.008C311.136 270.592 310.387 271.38 309.849 272.309C309.311 273.237 309 274.28 308.941 275.351V380.839C309 381.911 309.311 382.953 309.849 383.882C310.387 384.811 311.136 385.599 312.037 386.183L313.966 387.28C314.923 387.766 315.981 388.02 317.054 388.02C318.128 388.02 319.186 387.766 320.143 387.28L512.075 276.434C512.974 275.846 513.721 275.055 514.257 274.124C514.792 273.193 515.1 272.149 515.157 271.076V165.713C515.1 164.643 514.792 163.601 514.257 162.672C513.721 161.743 512.974 160.954 512.075 160.369L510.146 159.273C509.185 158.79 508.124 158.539 507.049 158.542C505.974 158.544 504.914 158.799 503.955 159.287Z" fill="black"/>
<path d="M515.17 165.713V166.921C515.167 166.421 515.032 165.93 514.78 165.498C514.528 165.066 514.166 164.708 513.732 164.459C513.298 164.21 512.806 164.08 512.306 164.081C511.806 164.082 511.314 164.214 510.881 164.464L321.308 273.991C320.01 274.722 318.936 275.792 318.199 277.086V277.183L309.871 272.367C310.397 271.407 311.162 270.599 312.092 270.021L504.011 159.287C504.97 158.81 506.027 158.562 507.099 158.562C508.171 158.562 509.228 158.81 510.187 159.287L512.117 160.383C513.006 160.971 513.746 161.76 514.277 162.686C514.807 163.611 515.113 164.648 515.17 165.713Z" fill="#2B6777"/>
<path opacity="0.45" d="M515.17 165.713V166.921C515.167 166.421 515.032 165.93 514.78 165.498C514.528 165.066 514.166 164.708 513.732 164.459C513.298 164.21 512.806 164.08 512.306 164.081C511.806 164.082 511.314 164.214 510.881 164.464L321.308 273.991C320.01 274.722 318.936 275.792 318.199 277.086V277.183L309.871 272.367C310.397 271.407 311.162 270.599 312.092 270.021L504.011 159.287C504.97 158.81 506.027 158.562 507.099 158.562C508.171 158.562 509.228 158.81 510.187 159.287L512.117 160.383C513.006 160.971 513.746 161.76 514.277 162.686C514.807 163.611 515.113 164.648 515.17 165.713Z" fill="white"/>
<path d="M512.311 165.172C512.009 165.173 511.712 165.254 511.451 165.408L321.864 274.949C320.743 275.596 319.812 276.527 319.164 277.647C318.516 278.768 318.174 280.039 318.172 281.334V384.157C318.172 384.74 318.297 386.1 319.421 386.1C319.915 386.078 320.394 385.925 320.809 385.656L419.177 328.859L425.325 345.917C425.588 346.511 426.024 347.011 426.577 347.352C427.13 347.692 427.773 347.857 428.422 347.824C429.07 347.791 429.693 347.561 430.209 347.166C430.724 346.772 431.107 346.229 431.308 345.612L439.636 317.047L510.424 276.184C512.992 274.713 514.13 273.214 514.13 271.34V166.921C514.132 166.685 514.086 166.45 513.994 166.233C513.903 166.015 513.768 165.818 513.598 165.654C513.427 165.491 513.225 165.363 513.004 165.281C512.783 165.198 512.547 165.161 512.311 165.172Z" fill="white"/>
<path d="M319.42 387.252C318.032 387.252 317.074 386.058 317.074 384.212V281.334C317.078 279.847 317.471 278.387 318.213 277.099C318.956 275.811 320.023 274.739 321.308 273.991L510.895 164.478C511.315 164.228 511.794 164.094 512.283 164.089C513.013 164.107 513.709 164.405 514.226 164.922C514.743 165.439 515.041 166.135 515.059 166.865V271.285C515.059 274.283 512.616 276.032 510.797 277.086L440.551 317.852L432.348 345.987C432.09 346.829 431.579 347.571 430.886 348.114C430.193 348.656 429.35 348.973 428.47 349.022C427.591 349.07 426.718 348.848 425.97 348.385C425.221 347.921 424.632 347.239 424.283 346.431L418.551 330.552L321.321 386.614C320.756 386.993 320.1 387.213 319.42 387.252ZM512.352 166.352C512.24 166.353 512.131 166.382 512.033 166.435L322.46 275.948C321.504 276.5 320.71 277.293 320.157 278.248C319.604 279.203 319.312 280.286 319.309 281.389V384.212C319.283 384.511 319.346 384.81 319.489 385.073C319.762 385.011 320.024 384.908 320.267 384.767L419.772 327.304L426.338 345.612C426.511 345.99 426.795 346.306 427.151 346.519C427.508 346.732 427.922 346.832 428.336 346.806C428.764 346.786 429.176 346.636 429.516 346.375C429.856 346.115 430.108 345.756 430.238 345.348L438.677 316.381L439.052 316.159L509.84 275.296C512.616 273.7 513.004 272.437 513.004 271.41V166.921C513.003 166.833 512.983 166.747 512.947 166.667C512.91 166.588 512.858 166.516 512.793 166.458C512.728 166.399 512.651 166.355 512.568 166.327C512.485 166.299 512.398 166.289 512.31 166.296L512.352 166.352Z" fill="#2B6777"/>
<path d="M339.631 308.136C339.752 304.789 340.217 301.464 341.019 298.212C341.808 294.953 342.958 291.792 344.447 288.787C345.906 285.865 347.72 283.133 349.846 280.654C351.93 278.226 354.408 276.166 357.175 274.56C359.367 273.155 361.889 272.346 364.49 272.215C366.465 272.157 368.392 272.829 369.903 274.102C371.526 275.57 372.713 277.458 373.331 279.557C374.193 282.252 374.661 285.057 374.719 287.885C374.802 290.328 374.844 292.896 374.844 295.616C374.844 298.337 374.844 300.877 374.719 303.292C374.595 306.639 374.13 309.964 373.331 313.216C372.546 316.485 371.396 319.656 369.903 322.668C368.461 325.612 366.641 328.356 364.49 330.83C362.404 333.231 359.931 335.267 357.175 336.854C354.983 338.282 352.457 339.114 349.846 339.269C347.872 339.331 345.946 338.653 344.447 337.367C342.825 335.859 341.641 333.941 341.019 331.815C340.159 329.12 339.692 326.316 339.631 323.487C339.561 321.169 339.52 318.657 339.52 315.95C339.52 313.244 339.561 310.634 339.631 308.136ZM364.295 308.858C364.295 307.803 364.379 306.623 364.42 305.332C364.462 304.041 364.42 302.737 364.42 301.404C364.42 300.072 364.42 298.809 364.42 297.587C364.42 296.366 364.337 295.283 364.295 294.325C364.254 293.094 364.058 291.872 363.712 290.689C363.458 289.789 362.981 288.968 362.324 288.302C361.74 287.746 360.966 287.433 360.159 287.427C359.076 287.477 358.026 287.817 357.119 288.413C355.973 289.074 354.949 289.929 354.094 290.939C353.227 291.963 352.499 293.097 351.928 294.312C351.323 295.566 350.857 296.883 350.54 298.24C350.22 299.664 350.021 301.112 349.943 302.57C349.874 303.583 349.818 304.722 349.805 305.971C349.791 307.22 349.805 308.511 349.805 309.843C349.805 311.176 349.805 312.467 349.805 313.716C349.805 314.965 349.805 316.103 349.943 317.103C349.887 319.282 350.572 321.415 351.887 323.154C353.025 324.403 354.755 324.357 357.078 323.015C359.395 321.685 361.213 319.633 362.255 317.172C363.431 314.536 364.122 311.711 364.295 308.83V308.858Z" fill="#455A64"/>
<path d="M409.933 279.724C409.933 280.556 409.933 281.667 409.933 283.013C409.933 284.36 409.933 285.498 409.933 286.386C409.845 289.255 409.431 292.105 408.698 294.881C407.964 297.701 406.926 300.432 405.603 303.028C404.323 305.561 402.728 307.92 400.856 310.051C399.08 312.089 396.985 313.824 394.651 315.187C392.783 316.376 390.643 317.073 388.433 317.214C386.716 317.297 385.027 316.749 383.686 315.673C382.265 314.457 381.2 312.879 380.605 311.106C379.805 308.831 379.383 306.44 379.355 304.028C379.355 303.181 379.355 302.084 379.355 300.724C379.355 299.364 379.355 298.253 379.355 297.365C379.412 294.506 379.808 291.664 380.535 288.898C381.275 286.072 382.322 283.335 383.658 280.737C384.965 278.197 386.568 275.821 388.433 273.658C390.201 271.593 392.303 269.838 394.651 268.467C396.515 267.286 398.652 266.607 400.856 266.496C402.58 266.455 404.266 267.009 405.63 268.064C407.067 269.274 408.139 270.86 408.726 272.645C409.497 274.927 409.904 277.315 409.933 279.724ZM389.474 297.768C389.585 299.905 390.099 301.321 391.015 302.029C391.931 302.737 393.152 302.653 394.651 301.793C396.22 300.857 397.48 299.482 398.274 297.837C399.22 295.96 399.745 293.9 399.815 291.799C399.884 290.897 399.926 289.898 399.926 288.801C399.926 287.705 399.926 286.747 399.815 285.914C399.704 283.795 399.19 282.379 398.274 281.667C397.358 280.959 396.15 281.028 394.651 281.903C393.085 282.84 391.823 284.209 391.015 285.845C390.071 287.727 389.545 289.792 389.474 291.896C389.405 292.799 389.363 293.798 389.363 294.895C389.363 295.991 389.405 296.935 389.474 297.754V297.768Z" fill="#455A64"/>
<path d="M432.862 293.132C431.979 293.677 431.006 294.062 429.989 294.27C429.284 294.419 428.556 294.419 427.852 294.27C427.292 294.113 426.775 293.833 426.339 293.451C425.957 293.128 425.617 292.76 425.325 292.354V310.787C425.316 311.445 425.164 312.094 424.881 312.689C424.669 313.224 424.295 313.68 423.812 313.993L416.734 318.157C416.575 318.274 416.38 318.33 416.184 318.315C415.987 318.3 415.803 318.214 415.665 318.074C415.497 317.886 415.37 317.666 415.291 317.428C415.213 317.189 415.184 316.936 415.207 316.686V259.792C415.215 259.132 415.371 258.482 415.665 257.89C415.877 257.355 416.251 256.899 416.734 256.586L423.535 252.658C423.693 252.541 423.889 252.485 424.085 252.5C424.281 252.515 424.465 252.601 424.604 252.741C424.767 252.931 424.89 253.151 424.966 253.39C425.042 253.628 425.07 253.88 425.048 254.129V256.128C425.381 255.35 425.756 254.531 426.144 253.671C426.547 252.783 427.035 251.937 427.602 251.145C428.234 250.264 428.95 249.446 429.739 248.702C430.686 247.821 431.734 247.057 432.862 246.425C434.311 245.535 435.944 244.989 437.637 244.829C438.352 244.78 439.069 244.878 439.745 245.117C440.42 245.355 441.04 245.73 441.565 246.217C442.875 247.486 443.832 249.074 444.341 250.825C445.115 253.476 445.503 256.225 445.493 258.987C445.493 259.82 445.493 260.986 445.493 262.457C445.493 263.928 445.493 265.108 445.493 265.996C445.446 269.188 445.059 272.366 444.341 275.476C443.698 278.155 442.767 280.757 441.565 283.235C440.536 285.392 439.214 287.395 437.637 289.19C436.261 290.745 434.65 292.075 432.862 293.132ZM435.388 270.729C435.499 269.117 435.499 267.498 435.388 265.885C435.383 264.287 434.936 262.721 434.098 261.36C433.348 260.292 432.085 260.264 430.322 261.277C429.507 261.757 428.787 262.383 428.199 263.123C427.599 263.877 427.096 264.702 426.7 265.58C426.311 266.476 426.005 267.405 425.783 268.356C425.553 269.267 425.4 270.195 425.325 271.132C425.256 272.034 425.214 273.075 425.214 274.227C425.214 275.379 425.214 276.365 425.325 277.184C425.384 277.949 425.538 278.705 425.783 279.432C425.972 280.048 426.283 280.62 426.7 281.112C427.088 281.538 427.624 281.801 428.199 281.847C428.953 281.859 429.694 281.641 430.322 281.223C432.061 280.235 433.398 278.668 434.098 276.795C434.85 274.855 435.286 272.807 435.388 270.729Z" fill="#455A64"/>
<path d="M467.354 258.848C467.354 258.21 467.215 257.807 466.938 257.613C466.491 257.439 465.996 257.439 465.55 257.613C464.641 257.842 463.746 258.125 462.871 258.459C461.774 258.862 460.4 259.32 458.707 259.847C455.857 260.68 453.664 260.329 452.128 258.793C450.587 257.266 449.824 254.531 449.824 250.617C449.835 248.577 450.158 246.55 450.781 244.607C451.438 242.527 452.332 240.529 453.446 238.653C454.618 236.705 456.016 234.902 457.61 233.281C459.213 231.654 461.029 230.254 463.01 229.117C464.656 228.099 466.485 227.411 468.395 227.091C469.823 226.835 471.293 226.94 472.67 227.396C473.818 227.819 474.794 228.61 475.446 229.645C476.156 230.754 476.553 232.034 476.598 233.351C476.63 234.006 476.486 234.657 476.182 235.238C475.965 235.801 475.583 236.285 475.085 236.626L468.395 240.485C467.979 240.721 467.659 240.776 467.41 240.624C467.133 240.456 466.846 240.307 466.549 240.179C466.131 240.012 465.679 239.946 465.23 239.985C464.415 240.109 463.637 240.412 462.954 240.873C462.127 241.336 461.393 241.948 460.789 242.678C460.226 243.335 459.916 244.172 459.914 245.037C459.86 245.518 459.957 246.003 460.192 246.425C460.386 246.657 460.761 246.712 461.316 246.592C462.115 246.398 462.902 246.162 463.676 245.884C464.689 245.523 466.022 245.079 467.673 244.496C471.074 243.4 473.558 243.733 475.113 245.523C476.821 247.776 477.65 250.574 477.445 253.393C477.43 255.443 477.108 257.478 476.487 259.431C475.822 261.58 474.89 263.636 473.711 265.552C472.437 267.612 470.927 269.517 469.214 271.229C467.419 273.016 465.399 274.56 463.204 275.823C461.393 276.951 459.38 277.715 457.277 278.072C455.824 278.312 454.333 278.139 452.974 277.572C451.847 277.064 450.913 276.208 450.309 275.129C449.676 274.018 449.319 272.771 449.268 271.493C449.235 270.838 449.379 270.185 449.685 269.605C449.902 269.042 450.284 268.558 450.781 268.217L457.721 264.192C458.138 263.956 458.429 263.942 458.624 264.192C458.836 264.426 459.079 264.631 459.345 264.803C459.735 265.031 460.186 265.133 460.636 265.094C461.548 264.968 462.418 264.631 463.176 264.109C464.27 263.481 465.255 262.679 466.091 261.735C466.874 260.975 467.327 259.939 467.354 258.848Z" fill="#455A64"/>
<path d="M492.74 236.779C492.73 237.437 492.579 238.086 492.296 238.681C492.083 239.216 491.71 239.672 491.227 239.985L484.148 244.08C483.99 244.197 483.794 244.253 483.598 244.237C483.402 244.222 483.218 244.137 483.079 243.997C482.914 243.808 482.788 243.588 482.712 243.349C482.636 243.11 482.609 242.858 482.635 242.609V205.327C482.636 204.668 482.788 204.017 483.079 203.425C483.292 202.89 483.665 202.434 484.148 202.121L491.227 197.957C491.385 197.84 491.58 197.784 491.777 197.799C491.973 197.814 492.157 197.9 492.296 198.04C492.459 198.229 492.583 198.45 492.659 198.689C492.736 198.927 492.763 199.179 492.74 199.428V236.779ZM492.74 255.378C492.732 256.037 492.58 256.686 492.296 257.28C492.083 257.815 491.71 258.271 491.227 258.584L484.148 262.679C483.99 262.796 483.794 262.852 483.598 262.837C483.402 262.821 483.218 262.736 483.079 262.596C482.913 262.408 482.787 262.188 482.711 261.949C482.634 261.71 482.609 261.457 482.635 261.208V252.463C482.636 251.804 482.788 251.154 483.079 250.562C483.292 250.027 483.665 249.571 484.148 249.257L491.227 245.093C491.385 244.976 491.58 244.92 491.777 244.936C491.973 244.951 492.157 245.036 492.296 245.176C492.459 245.366 492.582 245.587 492.658 245.825C492.734 246.064 492.762 246.315 492.74 246.564V255.378Z" fill="#455A64"/>
<path d="M220.165 300.197C221.2 302.207 221.965 304.344 222.442 306.554C223.469 312.023 221.498 317.533 220.401 322.974C220.04 324.82 219.915 326.513 221.234 327.957C221.351 328.117 221.507 328.245 221.686 328.33C221.865 328.415 222.063 328.453 222.261 328.443C222.594 328.359 222.816 328.026 222.997 327.735C224.306 325.495 225.35 323.11 226.106 320.628C226.257 322.976 226.178 325.333 225.87 327.665C225.465 329.494 225.465 331.389 225.87 333.217C226.453 334.994 228.452 336.424 230.034 335.549C231.008 334.809 231.668 333.728 231.88 332.523L233.171 328.359C233.804 326.424 234.328 324.454 234.739 322.46C235.399 318.866 235.343 315.176 234.574 311.603C233.804 308.03 232.337 304.645 230.256 301.64C229.251 300.025 227.807 298.73 226.092 297.907C225.284 297.585 224.416 297.445 223.547 297.495C222.679 297.546 221.833 297.786 221.068 298.198C219.999 298.781 219.652 299.156 220.165 300.197Z" fill="#F28F8F"/>
<path d="M237.931 309.746C237.334 302.459 237.084 294.825 235.724 287.927C234.364 281.029 231.477 254.504 230.172 247.134C228.465 237.418 226.147 231.338 224.731 225.328C223.135 218.61 221.803 209.422 218.985 194.792C216.167 180.163 212.711 171.973 205.48 167.254C200.155 163.642 193.87 161.708 187.436 161.702C185.798 166.199 187.311 181.939 187.311 181.939C187.311 181.939 194.251 215.501 195 219.623C195.75 223.746 203.176 242.609 208.145 257.96C210.99 266.774 215.293 279.169 215.293 279.169C216.598 284.651 217.056 286.4 215.959 290.745C215.501 292.577 214.765 294.326 214.307 296.158C213.809 298.155 213.502 300.195 213.391 302.251C213.322 303.639 213.391 305.027 213.266 306.415C213.141 308.983 212.725 311.537 212.42 314.091C212.211 315.964 213.294 317.117 215.196 316.534C216.568 316.007 217.686 314.974 218.319 313.646C219.116 311.767 219.671 309.794 219.97 307.775C220.192 306.818 221.358 301.057 223.177 302.626C224.731 303.944 226.383 308.441 228.423 311.495C229.528 312.838 230.344 314.393 230.822 316.064C231.299 317.736 231.428 319.488 231.199 321.211C230.852 325.861 228.631 332.079 229.381 336.007C230.13 339.935 232.324 340.782 233.115 339.158C233.906 337.534 236.307 328.054 237.112 324.764C238.205 319.837 238.482 314.763 237.931 309.746Z" fill="#FFA8A7"/>
<path d="M219.928 304.583C228.381 308.303 238.916 310.329 243.524 328.373C248.133 346.417 253.587 412.722 253.587 412.722C251.39 415.493 248.581 417.719 245.382 419.227C242.182 420.734 238.677 421.481 235.141 421.411L235.89 440.329C235.89 440.329 223.537 446.27 205.132 441.62C196.207 439.371 190.711 431.21 190.711 431.21C190.711 431.21 192.807 377.675 194.264 357.23C195.722 336.784 197.582 294.603 219.928 304.583Z" fill="#455A64"/>
<path d="M232.156 348.596C232.156 348.596 234.405 402.728 235.14 421.411C237.195 421.412 239.241 421.161 241.234 420.661L232.156 348.596Z" fill="#37474F"/>
<path d="M213.239 306.373C213.114 308.941 212.698 311.495 212.393 314.049C212.184 315.923 213.267 317.075 215.169 316.492C216.541 315.965 217.659 314.932 218.292 313.605C219.089 311.725 219.644 309.753 219.943 307.734C220.11 306.998 220.818 303.458 221.97 302.542L213.378 302.223C213.295 303.597 213.309 304.985 213.239 306.373ZM221.956 302.542H223.136C223.057 302.466 222.963 302.406 222.86 302.366C222.757 302.327 222.647 302.308 222.537 302.312C222.427 302.316 222.319 302.342 222.219 302.389C222.119 302.436 222.03 302.502 221.956 302.584V302.542Z" fill="#FFA8A7"/>
<path d="M195.208 160.717C208.908 166.352 213.252 170.891 215.904 179.191C218.555 187.491 222.733 208.478 224.107 217.597C225.481 226.716 228.923 234.919 230.838 246.842C232.754 258.765 234.642 276.212 234.642 276.212C234.642 276.212 232.157 279.404 224.662 279.849C217.167 280.293 213.266 277.586 213.266 277.586C213.266 277.586 205.299 253.782 202.287 245.829C199.275 237.875 192.377 218.069 192.377 218.069L195.208 160.717Z" fill="#E6E6E6"/>
<path d="M78.0059 491.977L87.1528 494.78L88.5269 488.188L81.0317 488.895L78.0059 491.977Z" fill="black"/>
<path d="M80.5033 473.544C80.5033 473.544 76.6724 477.944 75.4926 479.346C74.3128 480.748 77.0333 490.047 77.991 491.977L81.0169 488.895C81.3222 491.241 80.8225 493.545 80.3367 497.14C79.9342 500.124 78.4352 505.218 79.6566 510.423C81.4749 518.154 87.5127 526.01 95.0495 532.256C102.586 538.502 108.471 540.001 111.969 540.029C115.467 540.057 117.674 538.641 118.632 536.226C119.589 533.811 80.5033 473.544 80.5033 473.544Z" fill="#263238"/>
<path d="M113.371 473.738L115.536 471.129C116.994 472.184 114.148 476.195 113.635 481.206C112.737 488.627 112.798 496.133 113.815 503.539C116.161 516.739 119.7 526.635 120.755 532.548C122.143 540.473 108.61 540.987 96.5208 530.549C90.5108 525.358 81.7941 513.629 81.5165 507.508C81.2389 501.387 83.7651 494.128 83.3209 489.464C82.8768 484.801 79.6011 477.972 80.5449 473.502C81.0724 471.046 84.7089 467.201 88.0124 464.022C90.9966 461.121 93.5644 454.834 95.0495 456.652L93.9391 458.817C93.5921 460.83 94.9107 465.507 99.3107 470.254C101.476 472.67 108.846 478.694 113.371 473.738Z" fill="#455A64"/>
<path opacity="0.15" d="M103.238 473.558C105.82 475.21 109.026 476.403 111.719 475.015C111.719 475.015 111.789 475.015 111.816 475.015C110.965 475.836 110.312 476.84 109.908 477.951C109.504 479.063 109.359 480.252 109.484 481.428C109.707 485.814 109.623 515.462 109.623 515.462C109.623 515.462 108.235 489.839 107.861 484.926C107.389 477.736 106.584 476.32 103.225 473.544L103.238 473.558Z" fill="black"/>
<path d="M120.756 532.548C119.895 527.551 117.23 519.709 115.01 509.438C114.704 512.616 115.384 515.781 115.01 516.641C114.163 518.779 107.084 517.211 103.267 515.614C99.4502 514.018 99.3669 506.717 97.854 498.958C96.3411 491.199 88.5405 492.879 82.586 497.418C81.8872 500.712 81.5382 504.071 81.545 507.439C81.8226 513.56 90.5393 525.289 96.5493 530.48C108.583 540.987 122.144 540.473 120.756 532.548Z" fill="#37474F"/>
<path opacity="0.15" d="M102.587 480.928C102.45 481.062 102.277 481.153 102.089 481.189C101.901 481.225 101.707 481.204 101.531 481.13C101.354 481.056 101.204 480.931 101.098 480.772C100.992 480.613 100.936 480.426 100.936 480.234C100.936 480.043 100.992 479.856 101.098 479.697C101.204 479.537 101.354 479.413 101.531 479.339C101.707 479.264 101.901 479.244 102.089 479.28C102.277 479.316 102.45 479.406 102.587 479.54C102.679 479.631 102.753 479.739 102.803 479.858C102.853 479.977 102.879 480.105 102.879 480.234C102.879 480.364 102.853 480.492 102.803 480.611C102.753 480.73 102.679 480.838 102.587 480.928Z" fill="black"/>
<path opacity="0.15" d="M103.142 487.924C103.005 488.058 102.832 488.148 102.644 488.184C102.456 488.22 102.262 488.2 102.085 488.125C101.909 488.051 101.758 487.927 101.653 487.767C101.547 487.608 101.49 487.421 101.49 487.23C101.49 487.038 101.547 486.851 101.653 486.692C101.758 486.533 101.909 486.408 102.085 486.334C102.262 486.26 102.456 486.239 102.644 486.275C102.832 486.311 103.005 486.402 103.142 486.536C103.234 486.626 103.307 486.734 103.358 486.853C103.408 486.972 103.433 487.1 103.433 487.23C103.433 487.359 103.408 487.487 103.358 487.606C103.307 487.725 103.234 487.833 103.142 487.924Z" fill="black"/>
<path opacity="0.15" d="M103.697 494.919C103.606 495.01 103.498 495.083 103.379 495.132C103.259 495.181 103.132 495.207 103.003 495.207C102.874 495.207 102.746 495.181 102.627 495.132C102.508 495.083 102.4 495.01 102.309 494.919C102.218 494.828 102.146 494.72 102.096 494.601C102.047 494.482 102.021 494.354 102.021 494.225C102.021 494.096 102.047 493.969 102.096 493.85C102.146 493.731 102.218 493.622 102.309 493.531C102.494 493.348 102.743 493.245 103.003 493.245C103.263 493.245 103.512 493.348 103.697 493.531C103.789 493.622 103.863 493.73 103.913 493.849C103.963 493.968 103.989 494.096 103.989 494.225C103.989 494.354 103.963 494.482 103.913 494.602C103.863 494.721 103.789 494.829 103.697 494.919Z" fill="black"/>
<path opacity="0.15" d="M104.266 501.915C104.081 502.098 103.832 502.201 103.572 502.201C103.312 502.201 103.062 502.098 102.878 501.915C102.785 501.824 102.712 501.716 102.662 501.597C102.612 501.478 102.586 501.35 102.586 501.221C102.586 501.091 102.612 500.964 102.662 500.844C102.712 500.725 102.785 500.617 102.878 500.527C103.062 500.343 103.311 500.239 103.572 500.239C103.832 500.239 104.082 500.343 104.266 500.527C104.45 500.711 104.553 500.96 104.553 501.221C104.553 501.481 104.45 501.731 104.266 501.915Z" fill="black"/>
<path opacity="0.15" d="M104.82 508.924C104.636 509.107 104.386 509.21 104.126 509.21C103.866 509.21 103.617 509.107 103.432 508.924C103.34 508.834 103.267 508.726 103.216 508.607C103.166 508.487 103.141 508.36 103.141 508.23C103.141 508.101 103.166 507.973 103.216 507.854C103.267 507.735 103.34 507.627 103.432 507.536C103.621 507.379 103.862 507.298 104.108 507.309C104.354 507.32 104.586 507.422 104.76 507.596C104.934 507.77 105.037 508.003 105.048 508.249C105.059 508.494 104.978 508.735 104.82 508.924Z" fill="black"/>
<path d="M101.629 480.539C101.592 480.512 101.561 480.477 101.54 480.436C101.518 480.395 101.506 480.35 101.504 480.304C101.497 480.252 101.499 480.2 101.512 480.15C101.524 480.1 101.547 480.053 101.578 480.012C101.609 479.97 101.648 479.935 101.692 479.909C101.737 479.883 101.786 479.866 101.838 479.859C102.115 479.859 108.597 479.11 113.247 483.135C113.326 483.203 113.375 483.3 113.383 483.404C113.391 483.508 113.357 483.611 113.289 483.69C113.221 483.769 113.124 483.818 113.02 483.826C112.916 483.834 112.813 483.8 112.733 483.732C108.347 479.929 102.004 480.637 101.935 480.637C101.88 480.65 101.822 480.649 101.768 480.631C101.714 480.614 101.666 480.582 101.629 480.539Z" fill="#263238"/>
<path d="M102.198 487.535C102.161 487.504 102.132 487.466 102.11 487.423C102.089 487.38 102.076 487.333 102.073 487.285C102.065 487.235 102.068 487.184 102.08 487.134C102.093 487.085 102.116 487.039 102.147 486.999C102.178 486.958 102.217 486.925 102.262 486.9C102.306 486.875 102.355 486.86 102.406 486.855C102.683 486.855 109.165 486.092 113.815 490.117C113.894 490.185 113.943 490.282 113.951 490.386C113.959 490.49 113.925 490.593 113.857 490.672C113.789 490.751 113.692 490.8 113.588 490.808C113.484 490.816 113.381 490.782 113.302 490.714C108.916 486.911 102.572 487.618 102.503 487.632C102.448 487.639 102.393 487.633 102.34 487.617C102.287 487.6 102.239 487.572 102.198 487.535Z" fill="#263238"/>
<path d="M102.711 494.544C102.643 494.477 102.599 494.39 102.586 494.295C102.579 494.244 102.581 494.193 102.594 494.144C102.607 494.094 102.629 494.048 102.66 494.008C102.692 493.968 102.731 493.934 102.775 493.909C102.82 493.885 102.869 493.869 102.92 493.864C103.197 493.864 109.679 493.101 114.329 497.126C114.408 497.194 114.457 497.291 114.465 497.395C114.473 497.499 114.439 497.602 114.371 497.681C114.302 497.761 114.206 497.809 114.102 497.817C113.997 497.825 113.895 497.791 113.815 497.723C109.429 493.92 103.086 494.628 103.017 494.642C102.962 494.647 102.906 494.642 102.854 494.625C102.801 494.608 102.753 494.581 102.711 494.544Z" fill="#263238"/>
<path d="M103.294 501.54C103.225 501.473 103.181 501.385 103.169 501.29C103.157 501.189 103.185 501.088 103.247 501.007C103.31 500.927 103.401 500.874 103.502 500.86C103.779 500.86 110.261 500.097 114.911 504.122C114.982 504.197 115.022 504.296 115.022 504.399C115.022 504.503 114.982 504.602 114.911 504.677C114.875 504.714 114.832 504.743 114.784 504.763C114.736 504.783 114.685 504.794 114.634 504.794C114.582 504.794 114.531 504.783 114.483 504.763C114.435 504.743 114.392 504.714 114.356 504.677C109.97 500.874 103.627 501.582 103.557 501.596C103.466 501.608 103.372 501.588 103.294 501.54Z" fill="#263238"/>
<path d="M103.85 508.535C103.782 508.468 103.738 508.38 103.725 508.286C103.717 508.234 103.72 508.182 103.734 508.132C103.747 508.081 103.771 508.035 103.804 507.994C103.836 507.954 103.877 507.92 103.923 507.897C103.969 507.873 104.02 507.859 104.072 507.855C104.336 507.855 110.818 507.092 115.467 511.117C115.538 511.19 115.577 511.287 115.577 511.388C115.577 511.489 115.538 511.586 115.467 511.658C115.431 511.695 115.388 511.725 115.34 511.745C115.293 511.765 115.242 511.775 115.19 511.775C115.138 511.775 115.087 511.765 115.039 511.745C114.992 511.725 114.948 511.695 114.912 511.658C110.54 507.869 104.183 508.563 104.114 508.577C104.024 508.594 103.93 508.579 103.85 508.535Z" fill="#263238"/>
<path d="M206.479 271.34C206.479 271.34 207.479 288.676 206.618 324.723C205.896 354.884 209.227 370.527 197.124 389.737C186.312 406.879 118.827 472.364 113.955 478.305C113.955 478.305 92.5937 480.248 91.5527 458.359C91.5527 458.359 111.443 422.841 120.826 402.701C130.209 382.561 143.034 372.9 143.034 372.9L125.503 285.095L206.479 271.34Z" fill="#263238"/>
<path d="M132.955 283.832L125.543 285.081V285.401L142.435 370.069L143.004 372.192H142.866L143.004 372.845C143.004 372.845 133.885 379.785 125.391 393.998C128.389 401.659 134.274 415.012 134.274 415.012C134.801 417.08 128.833 425.547 132.233 451.031C132.483 452.863 132.927 455.528 133.441 458.401C148.626 443.05 169.335 422.16 183.215 406.684C183.895 402.7 185.991 389.584 184.769 379.562C183.548 369.541 179.051 320.378 179.051 320.378C183.394 317.663 187.196 314.166 190.266 310.065C192.863 306.735 194.654 302.849 195.499 298.711C197.831 292.133 199.755 285.416 201.259 278.599L132.955 283.832Z" fill="black"/>
<path d="M159.592 563.958L168.683 560.974L166.018 554.798L160.286 559.683L159.592 563.958Z" fill="black"/>
<path d="M151.041 547.413C151.041 547.413 150.43 553.229 150.278 555.061C150.125 556.893 157.69 562.931 159.591 563.958L160.285 559.683C161.895 561.432 162.797 563.597 164.449 566.818C165.837 569.496 167.544 574.535 171.542 578.074C177.469 583.349 186.935 586.305 196.679 587.082C206.422 587.86 212.127 585.694 215 583.696C217.873 581.697 218.845 579.254 218.262 576.756C217.679 574.257 151.041 547.413 151.041 547.413Z" fill="#263238"/>
<path d="M178.025 528.676L178.288 525.303C180.093 525.303 180.093 530.23 182.536 534.63C185.825 540.557 190.697 548.01 195.527 552.799C205.035 562.251 213.571 568.303 217.874 572.55C223.565 578.241 212.794 586.43 196.901 584.862C189.004 584.071 175.124 579.49 171.376 574.646C167.629 569.802 165.505 562.404 162.493 558.878C159.481 555.353 152.777 551.633 151.042 547.414C150.056 545.109 150.861 539.849 151.694 535.38C152.472 531.216 150.903 524.692 153.207 525.303L153.554 527.704C154.429 529.55 158.176 532.617 164.519 533.978C167.684 534.644 177.164 535.338 178.025 528.676Z" fill="#455A64"/>
<path opacity="0.15" d="M169.626 534.38C172.68 534.241 176.011 533.381 177.399 530.688V530.605C177.172 531.764 177.214 532.96 177.522 534.101C177.83 535.242 178.395 536.296 179.175 537.184C181.951 540.64 198.885 564.944 198.885 564.944C198.885 564.944 182.965 544.832 179.897 541.042C175.386 535.49 173.901 534.741 169.557 534.394L169.626 534.38Z" fill="black"/>
<path d="M217.916 572.55C214.335 568.955 207.645 564.083 199.872 556.963C201.468 559.739 203.842 561.932 204.036 562.834C204.564 565.069 197.874 567.859 193.834 568.747C189.795 569.635 185.506 563.722 179.857 558.295C174.208 552.868 168.753 558.684 166.449 565.846C167.773 568.944 169.42 571.894 171.363 574.646C175.11 579.49 188.99 584.07 196.888 584.862C212.795 586.43 223.565 578.241 217.916 572.55Z" fill="#37474F"/>
<path opacity="0.15" d="M173.347 540.765C173.308 541.021 173.169 541.251 172.961 541.404C172.753 541.558 172.492 541.622 172.236 541.584C171.98 541.545 171.75 541.406 171.597 541.198C171.443 540.99 171.379 540.729 171.417 540.473C171.434 540.346 171.476 540.223 171.542 540.112C171.607 540.001 171.695 539.904 171.798 539.828C171.902 539.751 172.02 539.697 172.145 539.667C172.271 539.637 172.401 539.633 172.528 539.654C172.782 539.696 173.011 539.835 173.164 540.042C173.317 540.25 173.383 540.509 173.347 540.765Z" fill="black"/>
<path opacity="0.15" d="M177.816 546.164C177.799 546.292 177.756 546.415 177.691 546.526C177.625 546.637 177.538 546.733 177.435 546.81C177.331 546.886 177.213 546.941 177.088 546.971C176.962 547.001 176.832 547.005 176.705 546.983C176.516 546.954 176.339 546.869 176.198 546.739C176.056 546.61 175.957 546.441 175.911 546.255C175.865 546.068 175.876 545.873 175.941 545.692C176.006 545.512 176.123 545.355 176.278 545.241C176.432 545.127 176.617 545.062 176.808 545.053C177 545.044 177.19 545.091 177.354 545.19C177.519 545.289 177.65 545.434 177.733 545.607C177.815 545.781 177.844 545.974 177.816 546.164Z" fill="black"/>
<path opacity="0.15" d="M182.299 551.577C182.258 551.833 182.118 552.063 181.908 552.215C181.699 552.367 181.437 552.43 181.181 552.389C180.926 552.349 180.696 552.208 180.544 551.999C180.392 551.789 180.329 551.528 180.369 551.272C180.414 551.016 180.556 550.788 180.766 550.635C180.976 550.482 181.237 550.417 181.494 550.453C181.621 550.473 181.743 550.519 181.852 550.586C181.961 550.654 182.056 550.743 182.131 550.847C182.206 550.952 182.259 551.07 182.288 551.195C182.317 551.321 182.321 551.451 182.299 551.577Z" fill="black"/>
<path opacity="0.15" d="M186.783 556.977C186.743 557.233 186.602 557.462 186.393 557.614C186.183 557.766 185.922 557.829 185.666 557.789C185.41 557.748 185.181 557.608 185.028 557.398C184.876 557.189 184.813 556.927 184.854 556.671C184.874 556.545 184.919 556.423 184.986 556.314C185.053 556.204 185.141 556.109 185.244 556.034C185.348 555.959 185.466 555.904 185.59 555.874C185.715 555.844 185.844 555.839 185.971 555.859C186.098 555.879 186.219 555.924 186.329 555.991C186.438 556.058 186.533 556.146 186.609 556.25C186.684 556.354 186.738 556.471 186.768 556.596C186.798 556.721 186.803 556.85 186.783 556.977Z" fill="black"/>
<path opacity="0.15" d="M191.266 562.376C191.236 562.566 191.151 562.742 191.022 562.884C190.892 563.025 190.723 563.125 190.537 563.171C190.351 563.216 190.155 563.206 189.975 563.141C189.795 563.075 189.638 562.958 189.524 562.804C189.41 562.649 189.344 562.465 189.335 562.273C189.326 562.081 189.374 561.891 189.473 561.727C189.571 561.562 189.716 561.431 189.89 561.349C190.063 561.267 190.257 561.238 190.447 561.266C190.574 561.284 190.696 561.328 190.806 561.394C190.916 561.46 191.011 561.547 191.088 561.65C191.164 561.754 191.219 561.871 191.249 561.995C191.28 562.12 191.285 562.249 191.266 562.376Z" fill="black"/>
<path d="M172.334 541.015C172.235 541.003 172.145 540.953 172.084 540.876C172.012 540.801 171.973 540.702 171.973 540.598C171.973 540.495 172.012 540.396 172.084 540.321C172.292 540.14 177.178 535.824 183.299 536.434C183.35 536.44 183.399 536.455 183.445 536.479C183.49 536.504 183.53 536.537 183.562 536.577C183.594 536.617 183.618 536.663 183.633 536.712C183.647 536.762 183.652 536.814 183.646 536.865C183.635 536.969 183.584 537.065 183.504 537.133C183.424 537.2 183.32 537.233 183.215 537.226C177.441 536.643 172.653 540.862 172.611 540.904C172.534 540.972 172.436 541.011 172.334 541.015Z" fill="#263238"/>
<path d="M176.816 546.386C176.768 546.386 176.72 546.374 176.677 546.353C176.633 546.331 176.596 546.3 176.566 546.261C176.495 546.187 176.455 546.087 176.455 545.984C176.455 545.881 176.495 545.781 176.566 545.706C176.774 545.526 181.66 541.209 187.781 541.82C187.832 541.825 187.882 541.84 187.927 541.865C187.972 541.889 188.012 541.923 188.044 541.963C188.077 542.003 188.101 542.049 188.115 542.098C188.13 542.147 188.134 542.199 188.128 542.25C188.118 542.355 188.067 542.451 187.986 542.518C187.906 542.585 187.802 542.619 187.698 542.611C181.938 542.028 177.135 546.248 177.094 546.289C177.057 546.324 177.013 546.351 176.965 546.367C176.917 546.384 176.866 546.391 176.816 546.386Z" fill="#263238"/>
<path d="M181.287 551.813C181.196 551.801 181.112 551.757 181.051 551.688C181.012 551.653 180.981 551.61 180.96 551.563C180.939 551.515 180.928 551.463 180.928 551.411C180.928 551.359 180.939 551.307 180.96 551.259C180.981 551.211 181.012 551.168 181.051 551.133C181.259 550.953 186.131 546.622 192.252 547.247C192.355 547.258 192.449 547.309 192.515 547.39C192.58 547.471 192.61 547.574 192.599 547.677C192.588 547.78 192.536 547.875 192.456 547.94C192.375 548.005 192.272 548.035 192.169 548.024C186.395 547.441 181.606 551.675 181.564 551.716C181.487 551.782 181.388 551.817 181.287 551.813Z" fill="#263238"/>
<path d="M185.769 557.213C185.678 557.2 185.594 557.156 185.533 557.088C185.496 557.052 185.466 557.008 185.446 556.961C185.426 556.913 185.416 556.862 185.416 556.81C185.416 556.759 185.426 556.707 185.446 556.66C185.466 556.612 185.496 556.569 185.533 556.533C185.727 556.352 190.613 552.022 196.734 552.646C196.835 552.66 196.926 552.713 196.988 552.793C197.051 552.874 197.079 552.975 197.067 553.077C197.064 553.128 197.05 553.179 197.026 553.225C197.002 553.271 196.969 553.312 196.928 553.345C196.888 553.377 196.841 553.401 196.791 553.415C196.741 553.428 196.688 553.431 196.637 553.424C190.876 552.841 186.088 557.074 186.032 557.116C185.997 557.149 185.956 557.174 185.91 557.191C185.865 557.208 185.817 557.215 185.769 557.213Z" fill="#263238"/>
<path d="M190.252 562.612C190.203 562.611 190.155 562.6 190.112 562.578C190.069 562.557 190.031 562.525 190.002 562.487C189.93 562.412 189.891 562.313 189.891 562.209C189.891 562.106 189.93 562.007 190.002 561.932C190.196 561.751 195.082 557.435 201.203 558.045C201.304 558.059 201.395 558.112 201.457 558.193C201.52 558.273 201.548 558.375 201.536 558.476C201.533 558.528 201.519 558.579 201.495 558.626C201.471 558.673 201.438 558.714 201.398 558.748C201.358 558.782 201.311 558.807 201.261 558.822C201.211 558.837 201.158 558.842 201.106 558.837C195.345 558.254 190.557 562.473 190.501 562.515C190.434 562.578 190.344 562.613 190.252 562.612Z" fill="#263238"/>
<path d="M109.304 265.747C109.304 265.747 108.818 287.955 108.915 297.92C109.11 318.38 113.079 326.805 118.132 344.016C122.296 357.979 139.049 409.252 140.34 414.207C138.563 425.033 136.689 434.611 140.34 458.248C145.572 492.365 151.444 532.881 151.444 532.881C154.567 537.212 175.858 538.78 182.049 532.506C182.049 532.506 183.881 423.354 183.215 401.049C182.646 381.617 173.596 318.088 173.596 318.088C173.596 318.088 202.605 305.888 205.104 271.757L109.304 265.747Z" fill="#263238"/>
<path d="M145.463 150.265C145.463 150.265 177.249 152.416 195.209 160.717C199.221 162.563 211.157 178.205 209.742 199.761C206.161 254.06 207.59 284.262 207.59 284.262C206.605 287.038 196.306 302.029 167.88 304.722C138.593 307.498 122.076 304.472 108.307 292.382C108.404 269.328 108.806 239.888 109.056 220.109C109.25 204.841 109.486 195.125 111.263 184.326C112.443 177.15 115.427 166.421 120.354 163.659C125.905 160.495 131.665 157.713 137.593 155.331C140.54 154.206 143.22 152.481 145.463 150.265Z" fill="#FAFAFA"/>
<path d="M145.99 151.695C150.473 152.042 178.469 154.471 194.57 161.966C198.234 163.659 209.672 178.719 208.284 199.664C204.938 250.534 205.993 280.668 206.132 284.027C205.563 285.262 203.009 289.232 197.152 293.382C191.836 297.157 182.411 301.946 167.685 303.347C160.939 303.986 155.109 304.305 149.863 304.305C131.93 304.305 119.84 300.544 109.611 291.813C109.694 271.396 110.027 245.773 110.263 227.021L110.346 220.179C110.541 205.16 110.79 195.195 112.539 184.604C113.927 176.415 117.023 167.143 120.951 164.922C126.449 161.759 132.158 158.977 138.037 156.594C140.948 155.47 143.619 153.803 145.907 151.681M145.379 150.293C143.136 152.509 140.456 154.234 137.509 155.359C131.581 157.74 125.821 160.523 120.27 163.687C115.399 166.463 112.359 177.178 111.179 184.354C109.402 195.111 109.166 204.938 108.972 220.137C108.722 239.916 108.32 269.355 108.223 292.41C118.869 301.779 131.208 305.707 149.863 305.707C155.276 305.707 161.216 305.374 167.809 304.749C196.236 302.057 206.535 287.052 207.52 284.29C207.52 284.29 206.132 254.087 209.672 199.789C211.06 178.233 199.151 162.59 195.139 160.744C177.178 152.416 145.393 150.293 145.393 150.293H145.379Z" fill="#E0E0E0"/>
<path d="M146.088 89.1374C137.468 98.8534 140.258 110.318 143.312 121.811C146.92 134.9 147.143 139.133 154.666 142.409C152.972 101.31 166.103 151.667 199.082 119.715C205.036 113.941 205.411 96.119 198.193 87.9576C187.991 76.4927 162.938 70.788 146.088 89.1374Z" fill="#37474F"/>
<path d="M144.353 134.719C150.349 137.218 153.069 133.095 153.069 133.095L147.767 148.363C147.767 148.363 144.353 157.829 152.07 162.396C173.417 175.221 168.587 180.62 175.805 186.853C178.248 183.785 177.928 170.044 178.317 166.421L182.994 151.722C185.433 151.807 187.875 151.696 190.295 151.389C196.014 150.584 199.248 146.517 201.052 140.382C203.926 130.5 203.495 115.593 199.956 96.2855C193.64 91.3026 172.709 90.22 159.176 98.548C159.662 109.902 156.581 111.748 156.581 116.592C156.581 122.075 156.206 123.338 154.527 124.073C152.847 124.809 151.348 122.241 150.668 120.631C149.53 117.855 148.558 116.162 145.879 115.495C143.201 114.829 140.202 115.259 137.746 118.868C133.943 124.476 139.939 132.915 144.353 134.719Z" fill="#FFA8A7"/>
<path d="M182.994 151.778C176.234 151.445 166.74 147.891 162.909 144.31C159.078 140.729 156.58 133.761 156.58 133.761C156.757 138.499 158.472 143.05 161.466 146.725C166.463 152.805 181.578 156.233 181.578 156.233L182.994 151.778Z" fill="#F28F8F"/>
<path d="M179.4 101.754C179.219 101.754 178.997 101.865 178.983 102.046C178.969 102.226 179.164 102.282 179.302 102.365C179.535 102.497 179.758 102.645 179.969 102.809C180.19 102.961 180.375 103.16 180.51 103.392C180.586 103.57 180.642 103.757 180.676 103.947C180.72 104.26 180.743 104.575 180.746 104.891C180.746 105.155 180.968 105.335 181.218 105.113C181.31 105.029 181.382 104.925 181.426 104.808C181.574 104.458 181.636 104.077 181.606 103.697C181.579 103.487 181.523 103.282 181.44 103.087C181.264 102.692 180.978 102.356 180.616 102.12C180.254 101.884 179.832 101.757 179.4 101.754ZM189.726 102.171C189.75 102.069 189.746 101.963 189.716 101.863C189.686 101.763 189.631 101.673 189.555 101.602C189.479 101.53 189.386 101.479 189.284 101.455C189.183 101.431 189.077 101.433 188.977 101.463C188.634 101.628 188.333 101.867 188.093 102.162C187.853 102.457 187.681 102.801 187.589 103.17C187.382 103.668 187.324 104.215 187.422 104.745C187.521 105.275 187.772 105.764 188.144 106.154C188.269 106.265 188.449 106.362 188.574 106.279C188.699 106.196 188.574 104.891 188.671 104.6C188.687 104.111 188.826 103.633 189.074 103.212C189.24 102.892 189.615 102.587 189.726 102.171ZM184.105 99.7417C184.081 99.725 184.054 99.7143 184.026 99.7103C183.997 99.7062 183.968 99.7091 183.941 99.7186C183.914 99.7281 183.889 99.744 183.87 99.7649C183.85 99.7858 183.835 99.8112 183.827 99.8388C183.797 99.9652 183.796 100.096 183.822 100.224C183.848 100.351 183.902 100.47 183.98 100.574C184.107 100.839 184.213 101.113 184.299 101.393C184.483 101.954 184.585 102.539 184.605 103.128C184.616 103.681 184.579 104.234 184.493 104.78C184.41 105.294 184.258 105.793 184.174 106.307C184.174 106.307 184.174 106.501 184.285 106.446C184.69 106.04 184.999 105.549 185.191 105.009C185.384 104.469 185.453 103.893 185.396 103.323C185.389 102.683 185.291 102.047 185.104 101.435C184.958 100.779 184.608 100.187 184.105 99.7417Z" fill="#F28F8F"/>
<path d="M171.932 106.529L178.039 104.183C178.336 105.016 178.3 105.932 177.938 106.739C177.576 107.546 176.916 108.182 176.096 108.514C175.693 108.667 175.263 108.736 174.832 108.719C174.401 108.701 173.979 108.596 173.59 108.411C173.201 108.225 172.853 107.963 172.568 107.64C172.283 107.316 172.067 106.938 171.932 106.529Z" fill="#37474F"/>
<path d="M191.337 103.253L197.25 106.168C197.08 106.563 196.831 106.92 196.518 107.216C196.206 107.512 195.836 107.74 195.432 107.889C195.028 108.037 194.598 108.101 194.168 108.077C193.739 108.053 193.318 107.942 192.933 107.751C192.14 107.35 191.531 106.659 191.234 105.822C190.937 104.984 190.974 104.064 191.337 103.253Z" fill="#37474F"/>
<path d="M178.04 112.831C177.471 111.443 176.652 113.4 174.986 114.094C173.321 114.788 171.502 113.927 172.071 115.301C172.492 115.939 173.122 116.41 173.853 116.634C174.583 116.858 175.369 116.821 176.075 116.528C176.781 116.236 177.363 115.707 177.722 115.033C178.08 114.358 178.193 113.579 178.04 112.831Z" fill="#263238"/>
<path d="M197.292 114.191C197.639 112.803 195.904 113.844 194.085 113.441C192.267 113.039 191.309 111.276 191.004 112.72C190.957 113.491 191.185 114.254 191.647 114.874C192.109 115.494 192.775 115.931 193.527 116.107C194.28 116.283 195.071 116.187 195.76 115.837C196.448 115.486 196.991 114.903 197.292 114.191Z" fill="#263238"/>
<path d="M182.771 109.513L185.242 127.557L194.236 125.475C192.252 120.242 186.672 111.901 182.771 109.513Z" fill="#F28F8F"/>
<path d="M178.651 131.763C178.234 132.021 177.882 132.373 177.624 132.79C176.833 134.095 177.957 134.761 179.151 134.872C180.465 134.995 181.746 135.362 182.926 135.955C183.431 136.32 184.038 136.514 184.661 136.51C184.859 136.481 185.049 136.414 185.22 136.311C185.392 136.209 185.541 136.074 185.66 135.913C185.841 135.573 185.909 135.184 185.855 134.803C185.735 134.029 185.417 133.299 184.93 132.686C184.443 132.073 183.805 131.597 183.079 131.305C182.355 131.037 181.579 130.939 180.811 131.018C180.044 131.098 179.305 131.353 178.651 131.763Z" fill="#B16668"/>
<path d="M182.926 136.024C183.204 136.184 183.492 136.328 183.787 136.454C183.494 135.22 182.797 134.12 181.805 133.33C180.814 132.54 179.586 132.105 178.318 132.096C178.041 132.305 177.805 132.564 177.624 132.859C176.833 134.164 177.957 134.83 179.151 134.941C180.465 135.065 181.746 135.432 182.926 136.024Z" fill="#F28F8F"/>
<path d="M173.304 195.833C166.795 191.308 154.608 181.328 144.503 151.708L140.506 154.484C140.506 154.484 146.918 184.923 172.333 200.386L173.304 195.833Z" fill="#2B6777"/>
<path d="M179.523 195.25C181.397 192.696 185.714 175.304 181.397 156.622L184.937 160.022C188.573 178.275 184.631 195.264 181.231 200.358L179.523 195.25Z" fill="#2B6777"/>
<path d="M179.232 204.688C179.232 204.688 186.88 258.432 187.185 263.706C187.491 268.981 179.204 281.75 178.08 282.458C176.956 283.166 169.53 270.66 169.433 266.496C169.336 262.332 174.804 204.675 174.804 204.675L179.232 204.688Z" fill="#2B6777"/>
<path d="M179.522 195.25C177.435 194.869 175.284 195.071 173.304 195.833C172.138 197.929 171.722 201.177 172.638 202.704C173.554 204.23 175.275 206.59 177.385 206.493C179.495 206.396 181.271 203.717 181.549 201.149C181.826 198.373 179.522 195.25 179.522 195.25Z" fill="#2B6777"/>
<path opacity="0.2" d="M179.522 195.25C177.435 194.869 175.284 195.071 173.304 195.833C172.138 197.929 171.722 201.177 172.638 202.704C173.554 204.23 175.275 206.59 177.385 206.493C179.495 206.396 181.271 203.717 181.549 201.149C181.826 198.373 179.522 195.25 179.522 195.25Z" fill="white"/>
<path d="M175.705 186.908C171.972 182.647 170.667 169.836 167.905 167.684C165.143 165.533 149.111 155.734 147.598 148.696L149.375 143.575C147.46 142.7 144.878 148.821 137.591 155.331C137.591 155.331 136.689 162.771 142.269 171.224C148.834 181.203 154.594 184.548 154.594 184.548C154.594 184.548 162.617 174.194 163.935 173.791C165.254 173.389 171.236 185.381 175.705 186.908Z" fill="#F0F0F0"/>
<path d="M175.707 186.908C177.706 183.41 177.387 169.031 177.956 167.129C179.149 163.132 182.661 152.791 182.661 152.791C183.249 153.243 183.781 153.765 184.243 154.346C190.878 162.923 190.67 175.304 188.851 179.121C186.936 175.055 182.383 169.808 181.564 170.793C180.745 171.779 179.135 185.201 175.707 186.908Z" fill="#F0F0F0"/>
<path d="M150.917 362.546L154.165 428.67C154.317 431.876 152.152 433.833 149.459 435.61L142.7 439.996C141.953 440.599 141.086 441.034 140.157 441.274C139.228 441.513 138.259 441.551 137.314 441.384C135.994 441.097 134.719 440.63 133.525 439.996C133.48 440.009 133.432 440.009 133.386 439.996L132.998 439.788L59.9055 402.312C57.2804 400.968 55.0563 398.955 53.4576 396.476C51.859 393.998 50.9423 391.142 50.8002 388.196L47.8438 327.984C47.8485 327.233 48.0307 326.492 48.3757 325.824C48.7206 325.156 49.2184 324.579 49.8286 324.14L61.349 316.714C61.9982 316.34 62.727 316.126 63.4752 316.09C64.2235 316.054 64.9695 316.196 65.6518 316.506L148.515 358.923C149.173 359.288 149.727 359.813 150.125 360.45C150.562 361.071 150.834 361.792 150.917 362.546Z" fill="#37474F"/>
<path d="M150.917 362.546L154.165 428.67C154.318 431.876 152.152 433.833 149.46 435.61L142.7 439.996C141.954 440.599 141.087 441.034 140.158 441.274C139.229 441.513 138.259 441.551 137.315 441.384C135.994 441.097 134.719 440.63 133.525 439.996C136.301 441.162 138.481 439.608 138.314 436.332L135.26 374.038C135.164 372.9 134.777 371.806 134.136 370.86L150.181 360.519C150.587 361.125 150.84 361.821 150.917 362.546Z" fill="#263238"/>
<path d="M135.259 373.969C135.148 372.83 134.77 371.733 134.155 370.769C133.54 369.804 132.705 368.998 131.72 368.417L53.3532 328.165C50.258 326.569 47.8012 328.165 48.0372 331.593L50.8132 387.96C50.9557 390.908 51.8724 393.765 53.4709 396.246C55.0693 398.727 57.2932 400.742 59.9184 402.09L133.011 439.566C136.106 441.162 138.563 439.566 138.327 436.137L135.259 373.969Z" fill="#455A64"/>
<path d="M57.6156 318.948L140.701 362.074C141.872 362.687 142.862 363.594 143.575 364.706C144.288 365.819 144.7 367.097 144.768 368.417L148.113 436.429L146.919 437.206L143.533 368.431C143.474 367.328 143.13 366.259 142.534 365.33C141.937 364.4 141.11 363.642 140.132 363.129L56.4219 319.684L57.6156 318.948Z" fill="#2B6777"/>
<path opacity="0.2" d="M143.574 364.711C144.289 365.821 144.701 367.098 144.768 368.417L148.113 436.429L146.919 437.206L143.533 368.431C143.479 367.329 143.134 366.261 142.533 365.336L143.574 364.711Z" fill="black"/>
<path opacity="0.2" d="M142.533 365.377C141.943 364.442 141.114 363.68 140.132 363.17L56.4219 319.726L57.6156 318.948L140.701 362.074C141.869 362.693 142.858 363.601 143.574 364.711" fill="black"/>
<path d="M86.7218 326L87.2214 336.229L83.2795 338.741L82.6133 325.139C82.6133 324.445 83.0436 324.14 83.6682 324.459L86.7218 326Z" fill="#2B6777"/>
<path opacity="0.4" d="M86.7218 326L87.2214 336.229L83.2795 338.741L82.6133 325.139C82.6133 324.445 83.0436 324.14 83.6682 324.459L86.7218 326Z" fill="black"/>
<path d="M115.356 334.73L116.174 351.303L112.427 353.704L109.79 352.316L109.11 338.714C109.07 338.335 108.943 337.971 108.738 337.651C108.533 337.33 108.256 337.062 107.93 336.868L87.9009 326.596L83.7369 324.459C83.1123 324.14 82.6403 324.459 82.682 325.139L83.3482 338.741L80.6971 337.353L79.8782 320.781C79.8713 320.707 79.8713 320.632 79.8782 320.559C79.911 320.215 80.0172 319.882 80.1896 319.583C80.362 319.283 80.5966 319.025 80.8776 318.824L82.4599 317.796C82.7964 317.613 83.1708 317.511 83.5536 317.496C83.9364 317.482 84.3174 317.556 84.6668 317.713L114.176 332.884C114.505 333.075 114.785 333.343 114.99 333.664C115.195 333.985 115.32 334.351 115.356 334.73Z" fill="#2B6777"/>
<path opacity="0.2" d="M111.65 337.131L112.427 353.704L109.79 352.316L109.11 338.714C109.07 338.335 108.943 337.971 108.738 337.651C108.533 337.33 108.256 337.062 107.93 336.868L87.9009 326.596L83.7369 324.459C83.1123 324.14 82.6403 324.459 82.682 325.139L83.3482 338.741L80.6971 337.353L79.8782 320.781C79.8713 320.707 79.8713 320.632 79.8782 320.559C79.9476 320.017 80.3779 319.809 80.9331 320.087L110.456 335.257C110.788 335.454 111.069 335.726 111.277 336.052C111.484 336.377 111.612 336.747 111.65 337.131Z" fill="black"/>
<path d="M97.7422 324.431L110.317 330.899C110.268 328.933 109.693 327.016 108.652 325.347C107.264 323.959 101.712 318.407 99.852 318.976C98.9775 319.24 98.1586 321.655 97.7422 324.431Z" fill="#F28F8F"/>
<path d="M97.7422 331.732C97.8379 332.122 97.9679 332.503 98.1308 332.87C99.4508 335.314 101.277 337.448 103.489 339.13C105.028 338.73 106.424 337.902 107.514 336.743L97.7422 331.732Z" fill="#F28F8F"/>
<path d="M117.105 169.683C107.972 173.694 101.351 180.704 96.6321 195.597C91.9129 210.49 86.1388 228.173 83.8347 243.677C81.5307 259.181 79.5181 291.563 78.949 301.599C78.5655 305.644 78.4588 309.711 78.6297 313.771C79.0444 318.366 79.7818 322.925 80.8367 327.415C81.0008 328.475 81.4288 329.477 82.0812 330.328C82.7336 331.18 83.5896 331.853 84.5704 332.287C85.1267 332.435 85.6663 332.639 86.1805 332.898C87.1104 333.467 87.5685 334.605 88.3041 335.383C89.2494 336.229 90.4778 336.689 91.7463 336.673C92.3154 336.673 92.8845 336.673 93.4397 336.743C95.5078 337.048 97.0207 338.88 98.9917 339.519C100.446 340.15 102.089 340.19 103.572 339.63C104.335 339.234 105.06 338.77 105.737 338.242C106.112 337.964 107.125 336.951 107.445 336.66C104.669 336.909 102.628 334.605 101.573 332.496C100.376 329.964 99.705 327.216 99.6024 324.417C99.5539 323.757 99.6486 323.094 99.88 322.474C99.9338 322.322 100.028 322.187 100.153 322.084C100.278 321.982 100.428 321.915 100.588 321.891C100.949 321.891 101.185 322.238 101.379 322.544C102.482 324.74 103.989 326.708 105.821 328.345C106.58 329.046 107.564 329.455 108.597 329.497C109.104 329.502 109.594 329.314 109.967 328.972C110.341 328.629 110.571 328.157 110.609 327.651C110.564 327.248 110.441 326.857 110.248 326.499C108.851 323.568 107.722 320.516 106.876 317.38C106.242 314.44 105.229 311.594 103.864 308.913C102.323 306.137 98.7141 302.362 99.1027 299.197C99.7412 293.77 109.776 251.422 109.776 251.422C109.776 251.422 121.88 214.363 124.781 204.564C128.417 192.391 125.877 176.762 117.105 169.683Z" fill="#FFA8A7"/>
<path d="M120.353 163.659C105.751 171.099 102.212 176.97 98.2145 188.032C94.6196 197.929 86.6386 225.064 84.6399 234.725C81.0866 252.005 79.0879 285.054 79.0879 285.054C79.0879 285.054 80.809 289.801 89.4562 291.883C98.1035 293.965 101.56 291.314 101.56 291.314L111.276 249.34C111.276 249.34 126.308 214.502 127.529 209.588C130.069 199.719 132.165 170.308 120.353 163.659Z" fill="#E6E6E6"/>
<path d="M231.504 135.927C231.865 136.857 232.045 137.842 232.462 138.703C232.871 139.578 233.409 140.388 234.058 141.104C235.402 142.594 237.253 143.529 239.249 143.727C243.51 144.102 248.243 140.549 247.272 135.927C247.258 135.82 247.267 135.711 247.298 135.608C247.33 135.505 247.382 135.41 247.453 135.328C247.524 135.247 247.611 135.182 247.709 135.136C247.807 135.091 247.913 135.067 248.021 135.066C250.797 134.789 252.338 131.985 252.31 129.375C252.411 127.984 251.993 126.604 251.137 125.502C250.281 124.4 249.048 123.654 247.674 123.407C247.082 123.313 246.482 123.28 245.884 123.31C245.31 123.402 244.73 123.453 244.149 123.463C243.038 123.365 242.927 121.964 242.455 121.186C241.967 120.327 241.274 119.603 240.438 119.077C239.601 118.551 238.648 118.241 237.662 118.173C236.676 118.106 235.689 118.284 234.789 118.691C233.889 119.098 233.104 119.722 232.503 120.506C231.654 121.74 231.147 123.177 231.032 124.67C231.032 124.837 230.602 125.323 230.505 124.948C230.24 123.568 230.423 122.14 231.028 120.871C231.632 119.603 232.625 118.561 233.864 117.897C235.184 117.154 236.701 116.833 238.209 116.977C239.718 117.121 241.146 117.723 242.303 118.702C242.837 119.14 243.305 119.655 243.691 120.229C243.896 120.535 244.073 120.861 244.218 121.2C244.301 121.367 244.468 122.144 244.607 122.227C244.877 122.233 245.148 122.205 245.412 122.144C245.759 122.144 246.12 122.144 246.467 122.144C247.266 122.139 248.063 122.232 248.84 122.422C250.32 122.819 251.621 123.707 252.531 124.94C253.441 126.173 253.906 127.678 253.851 129.209C253.939 130.774 253.494 132.323 252.589 133.604C251.684 134.884 250.373 135.82 248.868 136.26C249.451 141.368 244.385 145.226 239.554 145.102C237.152 145.033 234.869 144.038 233.183 142.326C231.712 140.854 230.074 138.356 230.477 136.191C230.518 135.705 231.31 135.413 231.504 135.927Z" fill="#455A64"/>
<path d="M214.126 129.084C216.335 128.39 218.61 127.925 220.914 127.696L223.884 127.224C224.922 127.009 225.976 126.883 227.035 126.849C227.521 126.849 227.243 127.516 226.952 127.627C225.867 127.988 224.752 128.253 223.62 128.418L220.47 128.973L217.458 129.459C216.344 129.687 215.206 129.771 214.071 129.709C213.752 129.723 213.918 129.181 214.126 129.084Z" fill="#455A64"/>
<path d="M215.916 135.441C216.312 135.31 216.722 135.226 217.138 135.191C217.609 135.122 218.067 135.08 218.526 135.039L220.955 134.9C221.773 134.9 222.578 134.9 223.397 134.816C224.364 134.721 225.338 134.745 226.298 134.886C226.756 134.983 226.298 135.635 226.062 135.705C225.264 135.837 224.456 135.906 223.647 135.913L221.121 136.052L218.623 136.204L217.457 136.274C216.9 136.35 216.334 136.35 215.777 136.274C215.403 136.107 215.68 135.538 215.916 135.441Z" fill="#455A64"/>
</svg>
