<svg width="23" height="26" viewBox="0 0 23 26" fill="none" xmlns="http://www.w3.org/2000/svg">
<path fill-rule="evenodd" clip-rule="evenodd" d="M5.08447 8.11115C5.27938 8.06088 5.48415 8.04378 5.69947 8.06C5.71636 12.1959 5.69946 16.3233 5.64845 20.4419C5.64845 16.3317 5.64845 12.2214 5.64845 8.11115C5.46022 8.11115 5.2727 8.11115 5.08447 8.11115Z" fill="#2B6777"/>
<path fill-rule="evenodd" clip-rule="evenodd" d="M5.08232 8.11182C5.27054 8.11182 5.45806 8.11182 5.64629 8.11182C5.64629 12.2221 5.64629 16.3323 5.64629 20.4426C5.63644 20.7301 5.58508 21.003 5.49255 21.2612C5.47566 21.0003 5.50099 20.7445 5.56924 20.4937C5.60372 16.4687 5.60372 12.4438 5.56924 8.41881C5.50838 8.36443 5.4827 8.29615 5.49255 8.21413C5.21707 8.19738 4.9437 8.21442 4.67244 8.26531C4.43356 8.37497 4.19432 8.40908 3.95508 8.36763C4.31077 8.22137 4.68687 8.13612 5.08232 8.11182Z" fill="#2B6777"/>
<path fill-rule="evenodd" clip-rule="evenodd" d="M5.49108 21.2612C5.09985 22.9537 4.12635 24.1902 2.56988 24.9707C2.35703 25.077 2.13468 25.1538 1.90353 25.2009C1.62981 25.1924 1.35609 25.2009 1.08342 25.2265C0.837499 25.3305 0.581367 25.3731 0.314684 25.3544C0.306241 21.2611 0.314684 17.1679 0.340367 13.0748C0.362532 12.5442 0.464912 12.0326 0.647861 11.5398C0.736169 11.5937 0.787187 11.5596 0.801612 11.4375C0.822722 11.4609 0.848403 11.478 0.87866 11.4887C0.90575 11.3557 0.914545 11.2193 0.904342 11.0794C1.0887 10.9122 1.23436 10.7161 1.3399 10.491C1.31633 10.4698 1.29945 10.4442 1.28854 10.4142C1.36559 10.3456 1.39971 10.2603 1.39092 10.1584C2.04742 9.28442 2.90201 8.68748 3.95361 8.36763C4.19285 8.40908 4.43209 8.37494 4.67097 8.26531C4.94223 8.21438 5.2156 8.19735 5.49108 8.21413C5.48123 8.29615 5.50691 8.3644 5.56777 8.41881C5.60225 12.4438 5.60225 16.4687 5.56777 20.4937C5.49952 20.7445 5.47419 21.0003 5.49108 21.2612Z" fill="#2B6777"/>
<path fill-rule="evenodd" clip-rule="evenodd" d="M1.39297 10.1582C1.40176 10.2601 1.36764 10.3453 1.29059 10.414C1.3015 10.444 1.31838 10.4696 1.34195 10.4908C1.23641 10.7158 1.09075 10.9119 0.906391 11.0792C0.916594 11.2191 0.907799 11.3555 0.880708 11.4885C0.850451 11.4778 0.82477 11.4607 0.803661 11.4373C0.789236 11.5594 0.738217 11.5935 0.64991 11.5397C0.466961 12.0323 0.364581 12.544 0.342416 13.0746C0.316733 17.1677 0.308289 21.2609 0.316733 25.3542C0.583416 25.3729 0.839547 25.3303 1.08547 25.2262C1.35814 25.2007 1.63186 25.1922 1.90558 25.2007C1.51963 25.3688 1.10975 25.454 0.675601 25.4565C0.521854 25.4565 0.368103 25.4565 0.214355 25.4565C0.214355 21.4145 0.214355 17.3725 0.214355 13.3304C0.244612 12.1307 0.6376 11.0733 1.39297 10.1582Z" fill="#2B6777"/>
<path fill-rule="evenodd" clip-rule="evenodd" d="M13.1812 8.00897C13.3757 7.95871 13.5808 7.9416 13.7961 7.95783C13.813 12.0937 13.7961 16.221 13.7448 20.3397C13.7448 16.2295 13.7448 12.1192 13.7448 8.00897C13.5565 8.00897 13.369 8.00897 13.1812 8.00897Z" fill="#2B6777"/>
<path fill-rule="evenodd" clip-rule="evenodd" d="M13.179 8.00854C13.3672 8.00854 13.5548 8.00854 13.743 8.00854C13.743 12.1188 13.743 16.229 13.743 20.3393C13.7331 20.6268 13.6818 20.8997 13.5892 21.1579C13.5723 20.897 13.598 20.6412 13.6659 20.3905C13.7004 16.3655 13.7004 12.3405 13.6659 8.31553C13.6051 8.26116 13.5794 8.19288 13.5892 8.11086C13.3141 8.09411 13.0404 8.11114 12.7691 8.16204C12.5302 8.2717 12.291 8.3058 12.0518 8.26436C12.4075 8.1181 12.7836 8.03285 13.179 8.00854Z" fill="#2B6777"/>
<path fill-rule="evenodd" clip-rule="evenodd" d="M13.5915 21.159C13.2002 22.8516 12.2267 24.0881 10.6703 24.8685C10.4574 24.9748 10.2351 25.0516 10.0039 25.0987C9.73019 25.0902 9.45682 25.0988 9.18416 25.1243C8.93788 25.2283 8.68176 25.2709 8.41542 25.2522C8.40663 21.159 8.41542 17.0658 8.44075 12.9726C8.46292 12.4421 8.5653 11.9304 8.74825 11.4377C8.83656 11.4915 8.88792 11.4574 8.90199 11.3353C8.9231 11.3587 8.94879 11.3758 8.97905 11.3865C9.00614 11.2535 9.01493 11.1171 9.00473 10.9772C9.18909 10.81 9.33474 10.6139 9.44028 10.3888C9.41671 10.3676 9.39983 10.342 9.38892 10.3121C9.46597 10.2434 9.50009 10.1581 9.49165 10.0562C10.1482 9.18225 11.0024 8.5853 12.054 8.26546C12.2932 8.3069 12.5325 8.27276 12.7714 8.16314C13.0426 8.11221 13.3163 8.09517 13.5915 8.11196C13.5816 8.19398 13.6073 8.26223 13.6682 8.31663C13.7026 12.3416 13.7026 16.3666 13.6682 20.3915C13.6003 20.6423 13.5746 20.8981 13.5915 21.159Z" fill="#2B6777"/>
<path fill-rule="evenodd" clip-rule="evenodd" d="M9.49 10.0559C9.49844 10.1578 9.46432 10.2431 9.38727 10.3117C9.39817 10.3417 9.41506 10.3673 9.43863 10.3885C9.33309 10.6135 9.18743 10.8096 9.00308 10.9769C9.01328 11.1168 9.00449 11.2532 8.9774 11.3862C8.94714 11.3755 8.92145 11.3584 8.90034 11.335C8.88627 11.4571 8.83491 11.4912 8.7466 11.4374C8.56365 11.9301 8.46127 12.4417 8.4391 12.9723C8.41377 17.0655 8.40498 21.1586 8.41377 25.2519C8.6801 25.2706 8.93623 25.228 9.1825 25.124C9.45517 25.0984 9.72854 25.0899 10.0023 25.0984C9.61631 25.2665 9.20643 25.3517 8.77228 25.3542C8.61853 25.3542 8.46478 25.3542 8.31104 25.3542C8.31104 21.3122 8.31104 17.2702 8.31104 13.2281C8.34129 12.0284 8.73428 10.971 9.49 10.0559Z" fill="#2B6777"/>
<path fill-rule="evenodd" clip-rule="evenodd" d="M21.2778 7.90668C21.4727 7.85638 21.6775 7.83931 21.8928 7.85554C21.9097 11.9914 21.8928 16.1188 21.8415 20.2374C21.8415 16.1272 21.8415 12.0169 21.8415 7.90668C21.6536 7.90668 21.4661 7.90668 21.2778 7.90668Z" fill="#2B6777"/>
<path fill-rule="evenodd" clip-rule="evenodd" d="M21.2799 7.90637C21.4682 7.90637 21.6557 7.90637 21.8436 7.90637C21.8436 12.0166 21.8436 16.1269 21.8436 20.2371C21.8341 20.5246 21.7827 20.7975 21.6898 21.0558C21.6729 20.7949 21.6986 20.5391 21.7669 20.2883C21.8013 16.2633 21.8013 12.2384 21.7669 8.21336C21.706 8.15899 21.6803 8.09071 21.6898 8.00869C21.4147 7.99194 21.141 8.00897 20.8701 8.05987C20.6312 8.16953 20.3919 8.20363 20.1523 8.16218C20.508 8.01593 20.8845 7.93068 21.2799 7.90637Z" fill="#2B6777"/>
<path fill-rule="evenodd" clip-rule="evenodd" d="M21.6885 21.0557C21.2973 22.7483 20.3234 23.9848 18.7673 24.7652C18.5544 24.8716 18.3321 24.9483 18.1009 24.9955C17.8272 24.987 17.5535 24.9955 17.2808 25.021C17.0349 25.1251 16.7788 25.1677 16.5121 25.1489C16.5033 21.0557 16.5121 16.9625 16.5378 12.8694C16.5599 12.3388 16.6623 11.8271 16.8453 11.3344C16.9336 11.3882 16.9846 11.3542 16.999 11.2321C17.0201 11.2555 17.0458 11.2725 17.0761 11.2833C17.1032 11.1503 17.112 11.0139 17.1014 10.8739C17.2861 10.7067 17.4314 10.5106 17.5373 10.2855C17.5137 10.2644 17.4965 10.2388 17.4859 10.2088C17.5626 10.1401 17.5971 10.0549 17.5883 9.95298C18.2448 9.07897 19.0991 8.48203 20.151 8.16219C20.3903 8.20363 20.6295 8.16949 20.8684 8.05987C21.1393 8.00894 21.413 7.9919 21.6885 8.00869C21.6786 8.09071 21.7043 8.15895 21.7652 8.21336C21.7997 12.2384 21.7997 16.2633 21.7652 20.2883C21.6969 20.5391 21.6713 20.7949 21.6885 21.0557Z" fill="#2B6777"/>
<path fill-rule="evenodd" clip-rule="evenodd" d="M17.5863 9.95276C17.5951 10.0547 17.5606 10.1399 17.4839 10.2086C17.4945 10.2386 17.5117 10.2641 17.5353 10.2853C17.4294 10.5104 17.2841 10.7065 17.0994 10.8737C17.1096 11.0137 17.1012 11.1501 17.0741 11.283C17.0438 11.2724 17.0181 11.2553 16.997 11.2319C16.9826 11.354 16.9316 11.388 16.8433 11.3342C16.6603 11.8269 16.5579 12.3386 16.5358 12.8692C16.5101 16.9623 16.5013 21.0555 16.5101 25.1487C16.7768 25.1675 17.0329 25.1248 17.2788 25.0208C17.5515 24.9953 17.8252 24.9867 18.0989 24.9952C17.713 25.1633 17.3031 25.2486 16.869 25.251C16.7152 25.251 16.5615 25.251 16.4077 25.251C16.4077 21.209 16.4077 17.167 16.4077 13.125C16.438 11.9253 16.831 10.8678 17.5863 9.95276Z" fill="#2B6777"/>
<path d="M5.63798 2.40463C5.63798 2.7034 5.58662 2.97987 5.48389 3.23403C5.38327 3.48819 5.24711 3.72009 5.07506 3.92967C4.90302 4.13701 4.70424 4.32096 4.47872 4.48148C4.2532 4.642 4.01643 4.77691 3.76874 4.88615C3.52071 4.99539 3.26845 5.0779 3.01162 5.13364C2.7569 5.18938 2.51448 5.21724 2.28474 5.21724C1.94523 5.21724 1.63457 5.16041 1.35347 5.04667C1.07412 4.93522 0.834175 4.77913 0.633283 4.57846C0.43204 4.37779 0.275836 4.13923 0.164308 3.86276C0.0545386 3.5863 0 3.28419 0 2.95644C0 2.66884 0.0503119 2.39792 0.150582 2.14376C0.253314 1.88735 0.390877 1.65325 0.562919 1.44144C0.737072 1.2274 0.937968 1.03565 1.1656 0.866208C1.39569 0.696767 1.63809 0.554056 1.89282 0.438109C2.14965 0.31995 2.4107 0.229645 2.67668 0.167228C2.94442 0.104812 3.20266 0.0735862 3.45034 0.0735862C3.67375 0.0735862 3.88238 0.102564 4.07694 0.160555C4.27115 0.216262 4.44882 0.296557 4.6096 0.401334C4.77249 0.503898 4.9178 0.627642 5.04481 0.772566C5.17217 0.915242 5.27947 1.07355 5.36637 1.24745C5.45574 1.41914 5.52293 1.60309 5.56762 1.79929C5.61441 1.9955 5.63798 2.19726 5.63798 2.40463ZM2.61968 0.518405C2.32943 0.518405 2.07577 0.571899 1.85904 0.678924C1.64478 0.783701 1.46605 0.926412 1.32321 1.10699C1.18037 1.2876 1.07306 1.49828 1.00164 1.73909C0.932333 1.97766 0.897856 2.23073 0.897856 2.49827C0.897856 2.83494 0.956964 3.14372 1.07518 3.42465C1.19374 3.70558 1.35558 3.94748 1.56105 4.1504C1.76862 4.35328 2.01314 4.51158 2.2946 4.62528C2.57606 4.73677 2.88073 4.79251 3.20934 4.79251C3.38771 4.79251 3.54991 4.76353 3.69486 4.70558C3.84016 4.64759 3.96963 4.56954 4.08362 4.47144C4.19726 4.37112 4.29577 4.25517 4.37845 4.12363C4.46324 3.98988 4.53255 3.84829 4.58603 3.6989C4.63951 3.54952 4.67961 3.3968 4.7067 3.2407C4.73344 3.08243 4.74682 2.92859 4.74682 2.7792C4.74682 2.46484 4.69545 2.17053 4.59271 1.89627C4.48998 1.62202 4.34468 1.38345 4.15716 1.18057C3.96964 0.975446 3.74517 0.813802 3.48376 0.695643C3.22271 0.577484 2.93456 0.518405 2.61968 0.518405ZM8.78998 4.65538C8.70061 4.72897 8.59928 4.80589 8.48529 4.88615C8.37376 4.9642 8.25415 5.03554 8.12679 5.1002C7.99942 5.16708 7.86538 5.2217 7.725 5.26406C7.58639 5.30642 7.44566 5.3276 7.30282 5.3276C7.26025 5.3276 7.21802 5.32205 7.17545 5.31088C7.13288 5.29975 7.09488 5.27969 7.06146 5.25071C7.02804 5.22395 7.00025 5.18714 6.97773 5.14031C6.95768 5.09349 6.94888 5.03441 6.95099 4.96308C6.95099 4.88057 6.95556 4.67323 6.96436 4.34102C6.96647 4.20055 6.96999 4.02553 6.97456 3.81594C6.98125 3.60639 6.98793 3.35331 6.99462 3.05679C7.00341 2.76023 7.01362 2.41577 7.02488 2.02335C7.03578 1.62873 7.04809 1.17724 7.06146 0.668878C7.00341 0.675587 6.94642 0.680048 6.89083 0.682261C6.83489 0.682261 6.77789 0.682261 6.71984 0.682261C6.63505 0.682261 6.53901 0.680048 6.4317 0.675587C6.32686 0.671126 6.21744 0.662205 6.10344 0.648822L6.95099 0.113733C7.12514 0.13825 7.28945 0.15497 7.44355 0.163892C7.59764 0.172813 7.72501 0.177274 7.82528 0.177274C7.93716 0.177274 8.04411 0.173902 8.14684 0.167228C8.25204 0.158307 8.35477 0.149385 8.45504 0.140463C8.55566 0.129329 8.65487 0.120407 8.75339 0.113733C8.85155 0.104812 8.95076 0.100351 9.05138 0.100351C9.24805 0.100351 9.43663 0.12262 9.61747 0.167228C9.79831 0.211837 9.95698 0.282051 10.0931 0.377941C10.2293 0.471583 10.3377 0.594203 10.4182 0.745801C10.5009 0.897434 10.5421 1.08026 10.5421 1.29427C10.5421 1.40801 10.5231 1.52504 10.4851 1.64545C10.4471 1.76361 10.3848 1.88289 10.2975 2.0033C10.2103 2.12146 10.0942 2.23962 9.94924 2.35781C9.8064 2.47372 9.62873 2.58521 9.41658 2.69223C9.63752 2.89736 9.83876 3.08131 10.0196 3.24408C10.2025 3.40681 10.3679 3.55173 10.5153 3.67885C10.6627 3.80593 10.7933 3.91629 10.9073 4.00993C11.0212 4.10133 11.1215 4.1805 11.2088 4.24738C11.4097 4.40343 11.5648 4.51046 11.6742 4.56845C11.7302 4.59518 11.7893 4.61861 11.8519 4.63866C11.9054 4.65651 11.9659 4.6721 12.0327 4.68549C12.102 4.69887 12.1745 4.70558 12.2505 4.70558C12.2973 4.70558 12.343 4.7022 12.3877 4.69553C12.4324 4.68661 12.4771 4.67323 12.5218 4.65538C12.4148 4.73789 12.3096 4.81594 12.2069 4.88949C12.1042 4.96308 12.0004 5.02662 11.8955 5.08015C11.7928 5.13585 11.6876 5.17934 11.5806 5.21056C11.4755 5.244 11.3674 5.26072 11.2556 5.26072C11.1929 5.26072 11.1328 5.25405 11.0747 5.24067C11.0167 5.22953 10.9576 5.21056 10.897 5.1838C10.8369 5.15707 10.7753 5.12251 10.713 5.08015C10.6525 5.03779 10.5878 4.98538 10.5185 4.92293C10.427 4.84713 10.2919 4.73009 10.1132 4.57179C10.0375 4.50491 9.94818 4.42461 9.84545 4.33097C9.74272 4.23733 9.62415 4.12922 9.4901 4.0066C9.35606 3.88394 9.20442 3.74573 9.03449 3.59188C8.86702 3.43582 8.68056 3.2608 8.4751 3.0668C8.63588 3.0066 8.78787 2.93414 8.93071 2.84942C9.07355 2.7647 9.19774 2.66772 9.30259 2.55848C9.40989 2.44921 9.49362 2.32771 9.55379 2.19392C9.61641 2.05792 9.64772 1.90853 9.64772 1.74576C9.64772 1.54956 9.60761 1.3779 9.52705 1.23073C9.44683 1.0836 9.34164 0.960975 9.21217 0.862872C9.08481 0.764768 8.93985 0.691183 8.7766 0.642114C8.61371 0.59308 8.44941 0.568562 8.2844 0.568562C8.15036 0.568562 8.02194 0.575236 7.89916 0.588618L7.76828 4.65538C7.81964 4.69328 7.88121 4.72005 7.95263 4.73564C8.02405 4.75127 8.09794 4.75907 8.17358 4.75907C8.24957 4.75907 8.32451 4.75461 8.39804 4.74569C8.47192 4.73455 8.53772 4.7223 8.59577 4.70891C8.66508 4.69328 8.72982 4.67547 8.78998 4.65538ZM18.2804 4.55507C18.1105 4.69774 17.9599 4.80923 17.828 4.88949C17.6985 4.96975 17.587 5.02995 17.493 5.0701C17.3857 5.11692 17.2922 5.1459 17.2116 5.15707C17.1001 5.18159 16.9762 5.17712 16.8397 5.14369C16.706 5.11246 16.5642 5.06005 16.4144 4.9865C16.2669 4.91292 16.1164 4.82261 15.9623 4.71559C15.8082 4.60856 15.6562 4.49486 15.5066 4.37446C15.3571 4.25184 15.2118 4.12588 15.0711 3.99655C14.9328 3.86722 14.8044 3.74348 14.6858 3.62532C14.5697 3.50716 14.466 3.39901 14.3745 3.30091C14.2851 3.20059 14.2148 3.11808 14.1634 3.05342C14.1187 2.99768 14.0828 2.95198 14.0561 2.91633C14.0315 2.87839 14.0191 2.84162 14.0191 2.80593C14.0191 2.77249 14.035 2.73459 14.0663 2.69223C14.0976 2.64766 14.1511 2.58967 14.2271 2.51833C14.2672 2.48043 14.3196 2.43027 14.3843 2.36782C14.4491 2.30319 14.5205 2.23073 14.5989 2.15044C14.6792 2.07018 14.7629 1.98433 14.8501 1.89294C14.9395 1.79929 15.0264 1.70453 15.1112 1.60867C15.1985 1.51278 15.2811 1.41693 15.3592 1.32104C15.4395 1.22518 15.5088 1.13488 15.5668 1.05016C15.6273 0.963188 15.6752 0.885141 15.7111 0.816051C15.7466 0.744677 15.7645 0.684509 15.7645 0.63544C15.7645 0.570775 15.6952 0.538461 15.557 0.538461C15.5031 0.538461 15.4518 0.537337 15.4029 0.535124C15.3603 0.535124 15.3167 0.535124 15.272 0.535124C15.2298 0.532876 15.1963 0.534 15.1717 0.538461C15.2878 0.471583 15.3962 0.409132 15.4964 0.351176C15.5992 0.290973 15.6987 0.23969 15.7948 0.19733C15.8929 0.152722 15.9911 0.118159 16.0896 0.0936423C16.1878 0.0669124 16.2916 0.05353 16.401 0.05353C16.4502 0.05353 16.4991 0.055743 16.5484 0.0602038C16.5998 0.0624518 16.6532 0.0691254 16.7092 0.0802599C16.6064 0.260871 16.5016 0.424762 16.3943 0.571899C16.2895 0.716823 16.1832 0.850613 16.0763 0.973233C15.9711 1.09585 15.8662 1.20846 15.7614 1.31099C15.6586 1.41356 15.557 1.51166 15.4563 1.6053C15.3557 1.69673 15.2586 1.78591 15.165 1.87288C15.0711 1.95981 14.9817 2.05012 14.8969 2.14376C14.8568 2.18391 14.8389 2.23182 14.8435 2.28756C14.8502 2.3433 14.8913 2.41355 14.9673 2.49827C15.0855 2.62982 15.2164 2.77362 15.3592 2.92968C15.5045 3.08352 15.6586 3.23849 15.8215 3.39455C15.9869 3.55064 16.1586 3.70224 16.3373 3.84941C16.5181 3.99655 16.7025 4.12697 16.89 4.2407C17.0775 4.3544 17.2675 4.4458 17.4596 4.51492C17.6538 4.58183 17.847 4.61527 18.0391 4.61527C18.1397 4.61527 18.2199 4.59518 18.2804 4.55507ZM14.7629 4.51158C14.6313 4.60076 14.5015 4.68327 14.3745 4.75907C14.2471 4.83487 14.1243 4.90175 14.0058 4.95974C13.8897 5.01548 13.7792 5.06118 13.6744 5.09686C13.5716 5.13252 13.4766 5.15482 13.3894 5.16374C13.3025 5.17042 13.2254 5.17154 13.1582 5.16708C13.0914 5.16487 13.0354 5.14924 12.9908 5.12026C12.9485 5.09349 12.9162 5.05004 12.8937 4.98984C12.8715 4.92739 12.8602 4.84158 12.8602 4.73231C12.8602 4.67656 12.8602 4.57958 12.8602 4.44137C12.8623 4.30312 12.8634 4.13923 12.8634 3.94973C12.8659 3.75798 12.868 3.54952 12.8704 3.32434C12.8725 3.0969 12.8747 2.86726 12.8771 2.6354C12.8792 2.40351 12.8813 2.1772 12.8838 1.95648C12.8859 1.73351 12.888 1.53175 12.8905 1.35114C12.8926 1.17053 12.8947 1.01893 12.8972 0.896311C12.8993 0.771443 12.9014 0.691183 12.9039 0.655496C12.906 0.615384 12.8972 0.581945 12.8771 0.55518C12.8592 0.528415 12.8335 0.507235 12.8001 0.491639C12.7688 0.473796 12.7308 0.461538 12.6861 0.454829C12.6414 0.448155 12.5946 0.444818 12.5453 0.444818C12.4672 0.444818 12.3825 0.452616 12.2906 0.468211C12.2013 0.481594 12.1165 0.498313 12.0363 0.518405C12.1478 0.447031 12.2583 0.380154 12.3677 0.317738C12.4796 0.253073 12.5911 0.19733 12.7026 0.150509C12.8145 0.103688 12.9285 0.0669126 13.0446 0.0401476C13.1607 0.0133827 13.28 0 13.4027 0C13.452 0 13.4988 0.00333668 13.5435 0.0100455C13.5882 0.0145063 13.6272 0.0234283 13.661 0.0368108C13.6965 0.0479453 13.7243 0.0646644 13.7447 0.0869685C13.7648 0.107025 13.7746 0.132666 13.7746 0.163892C13.7746 0.248612 13.7736 0.458201 13.7714 0.792622C13.7714 0.935334 13.7704 1.11257 13.7679 1.32437C13.7679 1.53621 13.7669 1.79259 13.7648 2.0936C13.7648 2.39237 13.7637 2.74018 13.7613 3.13705C13.7613 3.53168 13.7613 3.98542 13.7613 4.4982C13.8774 4.51826 13.9836 4.53276 14.0796 4.54169C14.1778 4.55061 14.2661 4.55507 14.3442 4.55507C14.4135 4.55507 14.4737 4.55282 14.5251 4.54836C14.5764 4.5439 14.6201 4.53947 14.6556 4.53501C14.696 4.5283 14.7316 4.5205 14.7629 4.51158ZM21.8982 0.170565C21.9384 0.188409 21.9573 0.215173 21.9552 0.250825C21.9552 0.286511 21.9408 0.327748 21.9116 0.374569C21.8824 0.42139 21.8412 0.471584 21.7878 0.525078C21.7364 0.57636 21.6794 0.628766 21.6168 0.682261C21.5654 0.724621 21.5063 0.770318 21.4391 0.819388C21.3811 0.863961 21.3096 0.915242 21.2248 0.973233C21.1422 1.02898 21.0472 1.09027 20.9402 1.15718C21.0004 1.10144 21.043 1.05125 21.0676 1.00667C21.0919 0.962064 21.1042 0.920827 21.1042 0.882928C21.1042 0.831646 21.0841 0.787038 21.044 0.749138C21.0039 0.711239 20.9525 0.680048 20.8899 0.655496C20.8273 0.628766 20.7569 0.607586 20.6788 0.591955C20.6028 0.57636 20.5282 0.565226 20.4544 0.558517C20.3829 0.549595 20.3171 0.544046 20.2566 0.541798C20.1965 0.539585 20.1518 0.538461 20.1229 0.538461C20.0044 0.538461 19.8851 0.550719 19.7644 0.575236C19.6437 0.59754 19.5354 0.636563 19.4393 0.692306C19.3433 0.745801 19.2652 0.818264 19.205 0.909693C19.1445 0.998874 19.1146 1.11036 19.1146 1.24411C19.1146 1.39575 19.1568 1.52617 19.2416 1.6354C19.3268 1.74243 19.4383 1.83607 19.5769 1.91633C19.7152 1.99659 19.8714 2.06684 20.0459 2.12704C20.2221 2.18725 20.3998 2.2452 20.5782 2.30094C20.7594 2.35444 20.9335 2.40909 21.101 2.46484C21.2706 2.52054 21.418 2.58412 21.5432 2.65546C21.7083 2.75356 21.8268 2.86838 21.8982 2.99992C21.9718 3.12925 22.0087 3.26635 22.0087 3.41127C22.0087 3.59855 21.9584 3.77695 21.8581 3.94639C21.7596 4.11359 21.6301 4.26968 21.4694 4.4146C21.3107 4.55953 21.1299 4.68995 20.9269 4.80589C20.7235 4.92184 20.518 5.02103 20.3105 5.10354C20.1025 5.18605 19.9016 5.24959 19.7074 5.29416C19.5132 5.33877 19.3443 5.36107 19.2015 5.36107C19.0161 5.36107 18.8532 5.34211 18.7125 5.30421C18.5717 5.26852 18.4546 5.22507 18.3606 5.17379C18.2671 5.12251 18.1967 5.0701 18.1496 5.01657C18.1049 4.96086 18.0859 4.91625 18.0929 4.88282C18.0971 4.84267 18.1172 4.79922 18.1531 4.7524C18.1911 4.70333 18.2467 4.65092 18.3205 4.59518C18.3941 4.53947 18.487 4.47815 18.5985 4.41127C18.7104 4.34436 18.8455 4.2708 19.0038 4.19051C18.9391 4.25296 18.9102 4.31092 18.9169 4.36445C18.9236 4.41794 18.9549 4.46589 19.0105 4.50825C19.0685 4.55061 19.1435 4.58851 19.2349 4.62194C19.3289 4.65317 19.427 4.67994 19.5298 4.7022C19.635 4.7223 19.7398 4.73789 19.8446 4.74903C19.9498 4.7602 20.0424 4.76574 20.1229 4.76574C20.2591 4.76574 20.3942 4.75127 20.5282 4.7223C20.6644 4.69328 20.7861 4.64759 20.8931 4.58517C21.0028 4.5205 21.0908 4.43691 21.158 4.33434C21.227 4.22953 21.2618 4.10358 21.2618 3.9564C21.2618 3.86947 21.2438 3.78029 21.208 3.68886C21.1724 3.59522 21.1109 3.50491 21.024 3.41798C20.9392 3.33101 20.8241 3.24963 20.6788 3.17383C20.5335 3.09578 20.3527 3.0289 20.1363 2.97316C19.8056 2.88623 19.5266 2.79704 19.2986 2.70562C19.0731 2.61197 18.8912 2.51275 18.7526 2.40797C18.6164 2.30094 18.5214 2.185 18.468 2.06017C18.4145 1.93305 18.3941 1.7915 18.4078 1.6354C18.4212 1.45483 18.4757 1.29094 18.5717 1.1438C18.6678 0.994413 18.7895 0.861748 18.9369 0.745801C19.0865 0.627642 19.2529 0.525078 19.4362 0.438109C19.6212 0.351176 19.8091 0.279838 19.9987 0.224095C20.1908 0.166105 20.3773 0.123744 20.5581 0.0969792C20.739 0.0680013 20.9001 0.05353 21.0405 0.05353C21.1478 0.05353 21.2484 0.0579907 21.342 0.0669124C21.4381 0.0757989 21.5232 0.0858447 21.5967 0.0969792C21.6727 0.108149 21.7364 0.121531 21.7878 0.137126C21.8391 0.150509 21.8757 0.161644 21.8982 0.170565Z" fill="#2B6777"/>
</svg>
