<svg width="380" height="89" viewBox="0 0 380 89" fill="none" xmlns="http://www.w3.org/2000/svg">
<path fill-rule="evenodd" clip-rule="evenodd" d="M323.585 27.8191C324.235 27.6505 324.918 27.5931 325.635 27.6476C325.692 41.5194 325.635 55.3624 325.465 69.1763C325.465 55.3907 325.465 41.6048 325.465 27.8191C324.838 27.8191 324.213 27.8191 323.585 27.8191Z" fill="#2B6777"/>
<path fill-rule="evenodd" clip-rule="evenodd" d="M323.578 27.8212C324.206 27.8212 324.831 27.8212 325.458 27.8212C325.458 41.6069 325.458 55.3926 325.458 69.1784C325.425 70.1427 325.254 71.058 324.946 71.9241C324.889 71.049 324.974 70.191 325.201 69.35C325.316 55.8502 325.316 42.3506 325.201 28.8508C324.999 28.6684 324.913 28.4394 324.946 28.1643C324.028 28.1081 323.116 28.1653 322.212 28.336C321.416 28.7038 320.618 28.8182 319.821 28.6792C321.006 28.1886 322.26 27.9027 323.578 27.8212Z" fill="#2B6777"/>
<path fill-rule="evenodd" clip-rule="evenodd" d="M324.941 71.9243C323.637 77.6011 320.392 81.7483 315.203 84.3658C314.494 84.7225 313.753 84.98 312.982 85.1381C312.07 85.1095 311.157 85.1382 310.248 85.2238C309.429 85.5727 308.575 85.7157 307.686 85.6529C307.658 71.9242 307.686 58.1956 307.771 44.4673C307.845 42.6877 308.187 40.9716 308.796 39.319C309.091 39.4996 309.261 39.3853 309.309 38.9758C309.379 39.0543 309.465 39.1116 309.566 39.1475C309.656 38.7015 309.685 38.2439 309.651 37.7746C310.266 37.2138 310.751 36.5561 311.103 35.8012C311.025 35.7301 310.968 35.6442 310.932 35.5438C311.189 35.3134 311.303 35.0275 311.273 34.6856C313.462 31.7544 316.31 29.7522 319.816 28.6795C320.613 28.8185 321.411 28.704 322.207 28.3363C323.111 28.1655 324.022 28.1083 324.941 28.1646C324.908 28.4397 324.994 28.6686 325.196 28.8511C325.311 42.3508 325.311 55.8505 325.196 69.3502C324.969 70.1912 324.884 71.0493 324.941 71.9243Z" fill="#2B6777"/>
<path fill-rule="evenodd" clip-rule="evenodd" d="M311.28 34.6848C311.31 35.0266 311.196 35.3125 310.939 35.5428C310.975 35.6434 311.032 35.7292 311.11 35.8002C310.758 36.5551 310.273 37.2129 309.658 37.7737C309.692 38.2431 309.663 38.7005 309.573 39.1465C309.472 39.1107 309.386 39.0534 309.316 38.9749C309.268 39.3844 309.098 39.4987 308.803 39.3182C308.194 40.9707 307.852 42.6868 307.778 44.4664C307.693 58.1947 307.665 71.9232 307.693 85.6519C308.582 85.7147 309.436 85.5718 310.255 85.2229C311.164 85.1372 312.077 85.1086 312.989 85.1371C311.703 85.7008 310.336 85.9869 308.889 85.9951C308.377 85.9951 307.864 85.9951 307.352 85.9951C307.352 72.4383 307.352 58.8813 307.352 45.3244C307.452 41.3005 308.762 37.7539 311.28 34.6848Z" fill="#2B6777"/>
<path fill-rule="evenodd" clip-rule="evenodd" d="M350.575 27.4763C351.223 27.3077 351.907 27.2504 352.625 27.3048C352.681 41.1765 352.625 55.0195 352.453 68.8335C352.453 55.0479 352.453 41.262 352.453 27.4763C351.826 27.4763 351.201 27.4763 350.575 27.4763Z" fill="#2B6777"/>
<path fill-rule="evenodd" clip-rule="evenodd" d="M350.567 27.475C351.195 27.475 351.82 27.475 352.447 27.475C352.447 41.2607 352.447 55.0464 352.447 68.8322C352.414 69.7965 352.243 70.7118 351.935 71.5779C351.878 70.7028 351.964 69.8448 352.19 69.0038C352.305 55.504 352.305 42.0044 352.19 28.5046C351.987 28.3222 351.902 28.0932 351.935 27.8181C351.017 27.762 350.105 27.8191 349.201 27.9898C348.405 28.3576 347.607 28.472 346.81 28.333C347.995 27.8424 349.249 27.5565 350.567 27.475Z" fill="#2B6777"/>
<path fill-rule="evenodd" clip-rule="evenodd" d="M351.943 71.5814C350.639 77.2582 347.394 81.4054 342.206 84.0229C341.496 84.3797 340.755 84.6371 339.984 84.7952C339.072 84.7666 338.161 84.7953 337.252 84.8809C336.431 85.2298 335.577 85.3728 334.689 85.31C334.66 71.5813 334.689 57.8527 334.774 44.1243C334.848 42.3448 335.189 40.6287 335.799 38.9761C336.093 39.1567 336.264 39.0424 336.311 38.6329C336.382 38.7114 336.467 38.7687 336.568 38.8046C336.658 38.3586 336.688 37.901 336.654 37.4317C337.268 36.8709 337.754 36.2132 338.106 35.4583C338.027 35.3872 337.971 35.3013 337.934 35.2009C338.191 34.9705 338.305 34.6846 338.277 34.3427C340.465 31.4115 343.313 29.4093 346.818 28.3366C347.615 28.4756 348.413 28.3611 349.209 27.9934C350.113 27.8226 351.026 27.7654 351.943 27.8217C351.91 28.0968 351.996 28.3257 352.199 28.5082C352.314 42.0079 352.314 55.5076 352.199 69.0073C351.972 69.8483 351.887 70.7064 351.943 71.5814Z" fill="#2B6777"/>
<path fill-rule="evenodd" clip-rule="evenodd" d="M338.271 34.342C338.299 34.6838 338.185 34.9697 337.928 35.2C337.965 35.3006 338.021 35.3864 338.1 35.4574C337.748 36.2124 337.262 36.8701 336.648 37.431C336.682 37.9003 336.652 38.3578 336.562 38.8038C336.461 38.768 336.376 38.7106 336.305 38.6321C336.258 39.0416 336.087 39.1559 335.793 38.9754C335.183 40.6279 334.842 42.344 334.768 44.1236C334.683 57.852 334.654 71.5804 334.683 85.3092C335.571 85.372 336.425 85.229 337.246 84.8801C338.155 84.7945 339.066 84.7658 339.978 84.7943C338.692 85.358 337.326 85.6441 335.878 85.6523C335.366 85.6523 334.853 85.6523 334.341 85.6523C334.341 72.0954 334.341 58.5386 334.341 44.9816C334.442 40.9578 335.752 37.4112 338.271 34.342Z" fill="#2B6777"/>
<path fill-rule="evenodd" clip-rule="evenodd" d="M377.563 27.1334C378.213 26.9647 378.896 26.9075 379.613 26.9619C379.67 40.8336 379.613 54.6766 379.442 68.4906C379.442 54.705 379.442 40.9192 379.442 27.1334C378.816 27.1334 378.191 27.1334 377.563 27.1334Z" fill="#2B6777"/>
<path fill-rule="evenodd" clip-rule="evenodd" d="M377.571 27.1321C378.198 27.1321 378.823 27.1321 379.45 27.1321C379.45 40.9177 379.45 54.7035 379.45 68.4893C379.418 69.4536 379.247 70.3689 378.937 71.235C378.881 70.3599 378.966 69.5019 379.194 68.6609C379.309 55.1611 379.309 41.6615 379.194 28.1617C378.991 27.9794 378.905 27.7503 378.937 27.4753C378.02 27.4191 377.108 27.4762 376.204 27.6469C375.408 28.0147 374.611 28.1291 373.812 27.9901C374.998 27.4995 376.253 27.2136 377.571 27.1321Z" fill="#2B6777"/>
<path fill-rule="evenodd" clip-rule="evenodd" d="M378.933 71.2352C377.629 76.912 374.383 81.0592 369.195 83.6767C368.486 84.0335 367.745 84.2909 366.974 84.449C366.062 84.4205 365.149 84.4491 364.241 84.5347C363.421 84.8837 362.567 85.0266 361.678 84.9638C361.649 71.2351 361.678 57.5066 361.764 43.7782C361.838 41.9986 362.179 40.2825 362.789 38.63C363.083 38.8105 363.253 38.6963 363.301 38.2868C363.372 38.3652 363.457 38.4225 363.558 38.4584C363.648 38.0124 363.678 37.5549 363.642 37.0856C364.258 36.5247 364.742 35.867 365.095 35.1121C365.017 35.041 364.959 34.9552 364.924 34.8547C365.18 34.6244 365.295 34.3384 365.266 33.9967C367.454 31.0653 370.301 29.0631 373.808 27.9904C374.605 28.1294 375.403 28.0149 376.199 27.6472C377.102 27.4764 378.015 27.4192 378.933 27.4755C378.9 27.7506 378.986 27.9795 379.189 28.162C379.304 41.6618 379.304 55.1614 379.189 68.6611C378.961 69.5022 378.875 70.3602 378.933 71.2352Z" fill="#2B6777"/>
<path fill-rule="evenodd" clip-rule="evenodd" d="M365.258 33.9957C365.288 34.3375 365.173 34.6234 364.917 34.8537C364.952 34.9543 365.01 35.0401 365.088 35.1111C364.735 35.866 364.251 36.5238 363.635 37.0846C363.669 37.554 363.641 38.0114 363.551 38.4575C363.45 38.4216 363.364 38.3643 363.294 38.2858C363.246 38.6953 363.076 38.8096 362.781 38.6291C362.172 40.2816 361.83 41.9977 361.756 43.7773C361.671 57.5057 361.642 71.2341 361.671 84.9628C362.56 85.0256 363.414 84.8827 364.233 84.5338C365.142 84.4481 366.055 84.4195 366.967 84.448C365.681 85.0117 364.314 85.2978 362.867 85.306C362.355 85.306 361.842 85.306 361.33 85.306C361.33 71.7491 361.33 58.1922 361.33 44.6353C361.43 40.6114 362.74 37.0649 365.258 33.9957Z" fill="#2B6777"/>
<path d="M45.2156 48.0895C46.1624 48.1815 46.8343 48.3196 47.2313 48.5036C47.6284 48.6878 47.8268 48.9485 47.8268 49.286C47.8268 49.7769 47.5368 50.2984 46.9565 50.8506C46.4067 51.4029 45.689 51.9704 44.8033 52.5533C43.9176 53.1362 42.9556 53.7038 41.9172 54.2559C40.8789 54.8082 39.871 55.3144 38.8937 55.7746C37.947 56.2041 37.107 56.5876 36.3741 56.9251C35.6411 57.2319 35.1525 57.4312 34.9081 57.5233C35.3052 57.0938 35.4884 56.741 35.4579 56.4648C35.4579 56.1581 35.3509 55.9127 35.1371 55.7285C34.8928 55.5138 34.5568 55.3451 34.1294 55.2223C33.7934 55.1611 33.1367 55.1456 32.1595 55.1764C31.1821 55.207 29.991 55.2837 28.5862 55.4065C27.1813 55.4985 25.6084 55.6212 23.8677 55.7746C22.1573 55.928 20.386 56.0661 18.5535 56.1888L17.8205 79.7503C18.523 80.2719 19.3628 80.64 20.3402 80.8548C21.3175 81.0695 22.3254 81.1769 23.3637 81.1769C24.4021 81.1769 25.4252 81.1155 26.4331 80.9927C27.4409 80.8393 28.3419 80.6706 29.136 80.4866C30.0826 80.2719 30.9683 80.0264 31.793 79.7503C30.5713 80.7934 29.1817 81.8671 27.6242 82.9715C26.0971 84.0454 24.4632 85.0425 22.7223 85.9628C20.9815 86.8525 19.149 87.5735 17.225 88.1256C15.3315 88.7085 13.4074 89 11.4528 89C10.8725 89 10.277 88.9233 9.66617 88.7699C9.08589 88.6165 8.56671 88.3404 8.10862 87.9416C7.65047 87.5735 7.26871 87.0672 6.9633 86.423C6.68843 85.7788 6.58154 84.9657 6.64262 83.984C6.64262 83.4011 6.67316 82.0359 6.73425 79.8884C6.76479 78.968 6.79533 77.8482 6.82586 76.529C6.8564 75.2098 6.88695 73.6144 6.91749 71.7431C6.97857 69.8716 7.03965 67.7087 7.10074 65.2545C7.16181 62.7694 7.23817 59.9316 7.32979 56.741H6.00127L7.32979 56.0047L8.15436 25.2643H7.69628C6.32194 25.2643 4.97815 25.2489 3.66489 25.2183C2.38218 25.1876 1.16055 25.1416 0 25.0802L12.4606 18.3154C13.6212 18.4688 14.7818 18.5763 15.9424 18.6376C17.1028 18.6683 18.2634 18.6836 19.4239 18.6836C20.7677 18.6836 22.4322 18.653 24.4173 18.5916C26.4331 18.4996 28.5557 18.3921 30.7851 18.2695C33.0145 18.1467 35.2593 18.024 37.5194 17.9013C39.7794 17.748 41.8409 17.6252 43.7038 17.5332C45.5974 17.4104 47.1703 17.3337 48.4225 17.3031C49.6746 17.2417 50.4229 17.2263 50.6671 17.257C51.1253 17.3184 51.2933 17.5332 51.1711 17.9013C51.0489 18.2387 50.7282 18.6683 50.2091 19.1898C49.7204 19.7113 49.0791 20.2942 48.285 20.9385C47.4909 21.5521 46.6358 22.1657 45.7196 22.7793C44.8339 23.3928 43.9482 23.9757 43.0626 24.528C42.1768 25.0495 41.3675 25.4791 40.6345 25.8165C41.0927 24.3746 39.7488 23.6536 36.6031 23.6536C33.8239 23.6536 31.0448 23.7917 28.2655 24.0677C25.5168 24.3133 22.6308 24.5586 19.6072 24.804L18.7368 50.6205C24.1731 49.9148 28.6014 49.3933 32.022 49.0559C35.4731 48.6878 38.176 48.4269 40.1307 48.2736C42.4212 48.1202 44.1162 48.0588 45.2156 48.0895ZM76.3214 0C76.3214 0.889801 76.3366 1.74874 76.3673 2.57716C76.3977 3.37472 76.413 4.15708 76.413 4.92401C76.413 6.73412 76.2603 8.28341 75.9549 9.57187C75.6495 10.8605 74.9318 11.8882 73.8018 12.6551C73.13 13.146 72.29 13.7136 71.2821 14.3579C69.6025 15.4622 66.8996 17.1496 63.1736 19.4199C63.5401 18.4382 63.7997 17.257 63.9524 15.8765C64.1357 14.4652 64.2579 13.1307 64.319 11.8729C64.3799 10.4003 64.3799 8.86632 64.319 7.27097C66.243 6.25865 67.938 5.3229 69.404 4.46385C70.8699 3.57417 72.1221 2.79181 73.1604 2.11689C74.3821 1.34996 75.4357 0.64429 76.3214 0ZM92.4469 78.4158C88.9653 80.7167 86.0028 82.5267 83.5596 83.8459C81.1469 85.1651 79.0701 86.1468 77.3293 86.7911C75.5884 87.4354 74.1225 87.8035 72.9314 87.8956C71.7403 87.9877 70.6561 87.9416 69.6788 87.7575C68.7932 87.6041 67.9228 87.374 67.0676 87.0672C66.2124 86.7605 65.4337 86.2082 64.7312 85.4105C64.0593 84.5822 63.5095 83.4011 63.082 81.8671C62.6544 80.3332 62.4407 78.247 62.4407 75.6086C62.4407 73.3997 62.5018 71.2215 62.6238 69.074C62.746 66.8958 62.8683 64.7482 62.9903 62.6314C63.143 60.4838 63.25 58.367 63.3111 56.2808C63.4027 54.1639 63.4179 52.0625 63.3568 49.9762C63.2958 47.9515 62.9293 46.4789 62.2574 45.5584C61.5855 44.6074 60.5776 44.1319 59.2338 44.1319C58.7147 44.1319 58.1496 44.1933 57.5388 44.3159C56.9281 44.4387 56.2714 44.6228 55.569 44.8682C56.6684 44.1012 57.7985 43.3342 58.9589 42.5673C60.1195 41.7696 61.2953 41.064 62.4864 40.4504C63.6776 39.8369 64.8686 39.346 66.0597 38.9778C67.2814 38.5789 68.4877 38.3796 69.6788 38.3796C70.9615 38.3796 72.0762 38.6711 73.023 39.254C74.0004 39.8369 74.6264 40.8033 74.9013 42.1531C74.9929 42.6746 75.054 43.4416 75.0845 44.454C75.1456 45.4664 75.1762 46.6476 75.1762 47.9974C75.1762 49.9915 75.1303 52.2004 75.0387 54.6241C74.9776 57.0477 74.9013 59.4408 74.8097 61.803C74.718 64.1347 74.6264 66.2975 74.5348 68.2917C74.4432 70.2552 74.3821 71.7737 74.3515 72.8475C74.321 73.86 74.5042 74.8723 74.9013 75.8847C75.2983 76.8971 75.8786 77.8175 76.6422 78.6459C77.4361 79.4434 78.3983 80.1031 79.5282 80.6247C80.6888 81.1155 82.002 81.361 83.468 81.361C84.7507 81.361 86.1403 81.1308 87.6368 80.6706C89.1333 80.2105 90.7367 79.4589 92.4469 78.4158ZM109.718 80.8548L98.769 88.7699C99.0437 82.8489 99.2575 77.8022 99.4102 73.6298C99.5629 69.4575 99.6699 66.0214 99.731 63.3216C99.8226 60.1618 99.8683 57.554 99.8683 55.4985C100.021 51.7863 99.5172 48.8871 98.3566 46.801C97.1961 44.6841 95.4247 43.6257 93.0425 43.6257C92.279 43.6257 91.4697 43.7484 90.6145 43.9938C89.7899 44.2086 88.9042 44.5307 87.9575 44.9602C89.1485 44.1012 90.4007 43.2269 91.714 42.3372C93.0272 41.4168 94.3711 40.5885 95.7453 39.8522C97.1197 39.1159 98.4941 38.5177 99.8683 38.0574C101.273 37.5666 102.648 37.3211 103.991 37.3211C105.274 37.3211 106.435 37.5819 107.473 38.1035C108.542 38.625 109.351 39.4994 109.901 40.7266C110.39 41.7696 110.726 42.9355 110.909 44.2239C111.123 45.5125 111.26 46.9237 111.321 48.4577C112.879 46.801 114.619 45.2517 116.544 43.8098C118.499 42.3679 120.529 41.1407 122.636 40.1283C124.744 39.1159 126.866 38.3643 129.004 37.8734C131.142 37.3825 133.158 37.2598 135.051 37.5052C136.426 37.6892 137.846 38.0728 139.312 38.6557C140.808 39.2385 142.167 40.1283 143.389 41.3248C144.641 42.5212 145.649 44.1012 146.413 46.0647C147.176 47.9974 147.527 50.4211 147.466 53.3356C147.375 56.7717 147.222 59.9316 147.009 62.8155C146.794 65.6685 146.687 68.1997 146.687 70.4085C146.687 71.7278 146.794 72.9856 147.009 74.182C147.222 75.3479 147.588 76.3756 148.107 77.2653C148.658 78.1244 149.39 78.8146 150.306 79.3361C151.222 79.8577 152.368 80.1185 153.743 80.1185C154.963 80.1185 156.246 79.8884 157.59 79.4281C158.965 78.9373 160.339 78.201 161.714 77.2192C159.484 79.2134 157.438 80.8854 155.574 82.2353C153.743 83.5852 152.032 84.6742 150.444 85.5026C148.856 86.3309 147.374 86.9139 146 87.2514C144.626 87.6194 143.297 87.7882 142.015 87.7575C140.732 87.7269 139.633 87.466 138.716 86.9752C137.8 86.5151 137.067 85.7941 136.517 84.8123C135.967 83.8 135.586 82.5114 135.372 80.9468C135.158 79.3514 135.082 77.4034 135.143 75.1024C135.235 73.0776 135.357 70.8534 135.51 68.4297C135.662 65.9754 135.738 63.5518 135.738 61.1588C135.738 58.4283 135.555 56.0814 135.188 54.118C134.822 52.1545 134.15 50.5438 133.173 49.286C132.226 47.9974 130.898 47.0464 129.187 46.4328C127.508 45.8193 125.339 45.5125 122.682 45.5125C120.759 45.5125 119.125 45.896 117.781 46.6629C116.437 47.3992 115.322 48.4116 114.436 49.7002C113.551 50.9887 112.848 52.4919 112.329 54.21C111.84 55.8974 111.459 57.7074 111.184 59.6401C110.939 61.5422 110.771 63.5057 110.68 65.5305C110.588 67.5247 110.512 69.4575 110.451 71.3289C110.42 73.2003 110.359 74.9644 110.267 76.621C110.176 78.247 109.993 79.6582 109.718 80.8548ZM227.544 78.876C226.262 80.1644 224.872 81.3456 223.376 82.4194C221.91 83.4624 220.428 84.3675 218.932 85.1345C217.436 85.9014 215.985 86.5151 214.58 86.9752C213.175 87.4354 211.892 87.6962 210.731 87.7575C210.091 87.8189 209.265 87.8035 208.257 87.7115C207.25 87.6502 206.272 87.3893 205.326 86.9292C204.41 86.469 203.616 85.748 202.944 84.7663C202.272 83.7845 201.935 82.3886 201.935 80.5786V75.1024C200.256 76.7591 198.485 78.3544 196.621 79.8884C194.759 81.3916 192.834 82.7415 190.849 83.9379C188.895 85.1037 186.91 86.0242 184.894 86.6991C182.878 87.4048 180.893 87.7575 178.938 87.7575C176.434 87.7575 174.236 87.19 172.342 86.0548C170.449 84.9504 168.86 83.5085 167.578 81.729C166.295 79.9497 165.333 77.9555 164.692 75.7466C164.05 73.5378 163.729 71.3442 163.729 69.166C163.729 67.54 163.852 65.9447 164.096 64.3801C164.34 62.7847 164.646 61.2815 165.012 59.8703C165.409 58.459 165.851 57.1858 166.34 56.0507C166.86 54.9155 167.394 53.9799 167.944 53.2436C168.952 51.863 170.234 50.5285 171.791 49.2399C173.35 47.9515 175.045 46.7396 176.877 45.6045C178.74 44.4693 180.71 43.4416 182.786 42.5212C184.863 41.6009 186.925 40.8033 188.971 40.1283C191.048 39.4533 193.063 38.9318 195.018 38.5636C196.973 38.1955 198.774 38.0114 200.423 38.0114C202.134 38.0114 204.15 38.1035 206.471 38.2875C208.792 38.441 211.433 38.7784 214.397 39.2999C214.274 42.828 214.167 45.9419 214.076 48.6417C213.984 51.3415 213.908 53.7652 213.847 55.9127C213.786 58.0296 213.74 59.9623 213.71 61.711C213.679 63.4597 213.663 65.1625 213.663 66.8191C213.663 68.5064 213.632 70.163 213.571 71.7891C213.51 73.4151 213.632 74.8723 213.938 76.1609C214.243 77.4493 214.839 78.4925 215.724 79.2901C216.642 80.0877 218.045 80.4866 219.939 80.4866C221.07 80.4866 222.276 80.3486 223.559 80.0724C224.842 79.7656 226.17 79.3668 227.544 78.876ZM202.028 45.9266C200.195 45.4358 198.24 45.0983 196.164 44.9142C194.087 44.6995 192.101 44.5921 190.207 44.5921C189.17 44.5921 188.177 44.6228 187.23 44.6841C186.314 44.7455 185.474 44.8221 184.711 44.9142C183.947 45.0063 183.275 45.1289 182.695 45.2824C182.114 45.4051 181.672 45.5584 181.366 45.7426C180.817 46.0187 180.176 46.6936 179.443 47.7673C178.71 48.8104 178.007 50.1143 177.335 51.6789C176.663 53.2436 176.083 55.0077 175.595 56.9711C175.136 58.9346 174.908 60.9593 174.908 63.0456C174.908 65.0397 175.197 67.0491 175.778 69.074C176.358 71.0681 177.198 72.8628 178.297 74.4582C179.427 76.0534 180.802 77.3573 182.42 78.3697C184.069 79.3514 185.948 79.8423 188.055 79.8423C190.04 79.8423 191.797 79.5201 193.323 78.876C194.85 78.2317 196.179 77.3573 197.309 76.2529C198.439 75.1178 199.37 73.7986 200.103 72.2952C200.867 70.792 201.478 69.166 201.935 67.4173C201.935 66.1288 201.935 64.7636 201.935 63.3216C201.935 61.849 201.935 60.2384 201.935 58.4897C201.935 56.741 201.935 54.8389 201.935 52.7833C201.967 50.6972 201.997 48.4116 202.028 45.9266ZM247.701 80.8548L236.752 88.7699C237.027 82.8489 237.241 77.8022 237.394 73.6298C237.546 69.4575 237.653 66.0214 237.714 63.3216C237.805 60.1618 237.852 57.554 237.852 55.4985C238.005 51.7863 237.5 48.8871 236.339 46.801C235.18 44.6841 233.407 43.6257 231.026 43.6257C230.262 43.6257 229.453 43.7484 228.598 43.9938C227.773 44.2086 226.888 44.5307 225.94 44.9602C227.132 44.1012 228.385 43.2269 229.697 42.3372C231.01 41.4168 232.354 40.5885 233.729 39.8522C235.103 39.1159 236.478 38.5177 237.852 38.0574C239.256 37.5666 240.631 37.3211 241.975 37.3211C243.258 37.3211 244.417 37.5819 245.456 38.1035C246.525 38.625 247.334 39.4994 247.884 40.7266C248.373 41.7696 248.709 42.9355 248.893 44.2239C249.106 45.5125 249.243 46.9237 249.304 48.4577C250.862 46.801 252.603 45.2517 254.527 43.8098C256.482 42.3679 258.513 41.1407 260.62 40.1283C262.727 39.1159 264.849 38.3643 266.987 37.8734C269.125 37.3825 271.141 37.2598 273.035 37.5052C274.409 37.6892 275.829 38.0728 277.295 38.6557C278.791 39.2385 280.15 40.1283 281.372 41.3248C282.625 42.5212 283.632 44.1012 284.396 46.0647C285.159 47.9974 285.511 50.4211 285.449 53.3356C285.357 56.7717 285.205 59.9316 284.992 62.8155C284.778 65.6685 284.67 68.1997 284.67 70.4085C284.67 71.7278 284.778 72.9856 284.992 74.182C285.205 75.3479 285.572 76.3756 286.09 77.2653C286.641 78.1244 287.373 78.8146 288.289 79.3361C289.207 79.8577 290.351 80.1185 291.726 80.1185C292.948 80.1185 294.229 79.8884 295.573 79.4281C296.948 78.9373 298.322 78.201 299.697 77.2192C297.467 79.2134 295.421 80.8854 293.559 82.2353C291.726 83.5852 290.016 84.6742 288.427 85.5026C286.839 86.3309 285.357 86.9139 283.983 87.2514C282.61 87.6194 281.281 87.7882 279.998 87.7575C278.715 87.7269 277.616 87.466 276.699 86.9752C275.783 86.5151 275.05 85.7941 274.501 84.8123C273.951 83.8 273.569 82.5114 273.355 80.9468C273.142 79.3514 273.066 77.4034 273.127 75.1024C273.218 73.0776 273.34 70.8534 273.493 68.4297C273.645 65.9754 273.721 63.5518 273.721 61.1588C273.721 58.4283 273.538 56.0814 273.172 54.118C272.805 52.1545 272.133 50.5438 271.156 49.286C270.21 47.9974 268.881 47.0464 267.171 46.4328C265.491 45.8193 263.322 45.5125 260.666 45.5125C258.742 45.5125 257.108 45.896 255.764 46.6629C254.42 47.3992 253.306 48.4116 252.419 49.7002C251.534 50.9887 250.831 52.4919 250.312 54.21C249.824 55.8974 249.442 57.7074 249.167 59.6401C248.923 61.5422 248.754 63.5057 248.663 65.5305C248.571 67.5247 248.495 69.4575 248.434 71.3289C248.404 73.2003 248.343 74.9644 248.251 76.621C248.16 78.247 247.976 79.6582 247.701 80.8548Z" fill="#444B59"/>
<path d="M325.43 8.67949C325.43 9.68156 325.259 10.6088 324.916 11.4613C324.581 12.3137 324.127 13.0915 323.553 13.7945C322.98 14.4899 322.317 15.1068 321.566 15.6452C320.814 16.1836 320.025 16.6361 319.199 17.0025C318.372 17.3689 317.531 17.6456 316.675 17.8326C315.826 18.0195 315.018 18.1129 314.252 18.1129C313.12 18.1129 312.085 17.9223 311.148 17.5409C310.217 17.1671 309.417 16.6435 308.747 15.9705C308.076 15.2974 307.556 14.4973 307.184 13.57C306.818 12.6428 306.636 11.6295 306.636 10.5302C306.636 9.56564 306.804 8.65699 307.138 7.80453C307.481 6.94454 307.939 6.15935 308.513 5.44897C309.093 4.73105 309.763 4.08794 310.522 3.51963C311.289 2.95133 312.097 2.47268 312.946 2.08379C313.802 1.68749 314.672 1.38461 315.559 1.17526C316.451 0.965918 317.312 0.861187 318.138 0.861187C318.882 0.861187 319.578 0.958378 320.226 1.15288C320.874 1.33972 321.466 1.60903 322.002 1.96045C322.545 2.30445 323.029 2.71948 323.453 3.20556C323.877 3.68409 324.235 4.21505 324.524 4.79832C324.822 5.37416 325.046 5.99112 325.195 6.64919C325.351 7.30727 325.43 7.98395 325.43 8.67949ZM315.369 2.3531C314.401 2.3531 313.556 2.53252 312.833 2.89148C312.119 3.2429 311.523 3.72155 311.047 4.3272C310.571 4.93297 310.213 5.63958 309.975 6.44727C309.744 7.24742 309.629 8.09622 309.629 8.99356C309.629 10.1227 309.826 11.1584 310.22 12.1006C310.615 13.0428 311.155 13.8542 311.84 14.5348C312.532 15.2152 313.347 15.7462 314.285 16.1275C315.223 16.5014 316.239 16.6884 317.334 16.6884C317.929 16.6884 318.469 16.5912 318.953 16.3968C319.437 16.2023 319.869 15.9406 320.249 15.6115C320.627 15.2751 320.956 14.8862 321.231 14.445C321.514 13.9964 321.745 13.5215 321.923 13.0205C322.102 12.5194 322.235 12.0072 322.326 11.4837C322.415 10.9528 322.459 10.4368 322.459 9.93579C322.459 8.88141 322.288 7.8943 321.946 6.97446C321.603 6.05462 321.119 5.25447 320.494 4.57401C319.869 3.88601 319.12 3.34386 318.249 2.94756C317.379 2.55125 316.418 2.3531 315.369 2.3531ZM335.937 16.2285C335.639 16.4753 335.301 16.7333 334.921 17.0025C334.549 17.2642 334.15 17.5035 333.726 17.7204C333.301 17.9447 332.855 18.1279 332.387 18.27C331.925 18.412 331.455 18.4831 330.979 18.4831C330.837 18.4831 330.697 18.4645 330.555 18.427C330.413 18.3897 330.286 18.3224 330.175 18.2252C330.063 18.1354 329.971 18.012 329.896 17.8549C329.829 17.6979 329.8 17.4997 329.807 17.2605C329.807 16.9837 329.822 16.2883 329.851 15.1741C329.858 14.703 329.87 14.116 329.885 13.413C329.907 12.7102 329.93 11.8614 329.952 10.8668C329.981 9.87217 330.015 8.71683 330.053 7.40069C330.089 6.07712 330.13 4.56282 330.175 2.85779C329.981 2.88029 329.791 2.89525 329.606 2.90267C329.42 2.90267 329.23 2.90267 329.036 2.90267C328.753 2.90267 328.433 2.89525 328.076 2.88029C327.726 2.86533 327.361 2.83541 326.981 2.79052L329.807 0.99584C330.387 1.07807 330.935 1.13415 331.448 1.16407C331.962 1.19399 332.387 1.20895 332.721 1.20895C333.094 1.20895 333.45 1.19765 333.793 1.17526C334.143 1.14534 334.486 1.11541 334.82 1.08549C335.156 1.04815 335.486 1.01822 335.815 0.99584C336.142 0.965917 336.473 0.950956 336.808 0.950956C337.464 0.950956 338.092 1.02565 338.695 1.17526C339.298 1.32488 339.827 1.56037 340.281 1.88199C340.734 2.19606 341.096 2.60733 341.364 3.11579C341.64 3.62436 341.777 4.23755 341.777 4.95536C341.777 5.33682 341.714 5.72935 341.587 6.13319C341.46 6.5295 341.253 6.92958 340.962 7.33342C340.671 7.72973 340.284 8.12603 339.801 8.52245C339.325 8.91122 338.733 9.28514 338.025 9.6441C338.762 10.3321 339.433 10.9491 340.035 11.495C340.645 12.0408 341.196 12.5268 341.688 12.9532C342.179 13.3794 342.614 13.7496 342.994 14.0637C343.374 14.3702 343.709 14.6357 343.999 14.86C344.669 15.3834 345.186 15.7424 345.551 15.9369C345.737 16.0266 345.934 16.1051 346.143 16.1724C346.321 16.2323 346.523 16.2846 346.746 16.3294C346.977 16.3743 347.219 16.3968 347.472 16.3968C347.628 16.3968 347.78 16.3855 347.929 16.3631C348.078 16.3332 348.227 16.2883 348.376 16.2285C348.02 16.5052 347.669 16.767 347.327 17.0137C346.984 17.2605 346.638 17.4736 346.289 17.6531C345.946 17.84 345.596 17.9858 345.239 18.0905C344.888 18.2027 344.528 18.2588 344.155 18.2588C343.947 18.2588 343.746 18.2364 343.553 18.1915C343.359 18.1542 343.162 18.0905 342.96 18.0008C342.76 17.9111 342.555 17.7952 342.347 17.6531C342.145 17.5111 341.929 17.3353 341.698 17.1258C341.394 16.8716 340.943 16.4791 340.347 15.9481C340.095 15.7238 339.797 15.4545 339.455 15.1404C339.112 14.8263 338.717 14.4637 338.27 14.0525C337.824 13.6411 337.318 13.1775 336.752 12.6615C336.193 12.1381 335.572 11.5511 334.887 10.9004C335.423 10.6985 335.93 10.4554 336.406 10.1713C336.882 9.88714 337.296 9.56187 337.645 9.19549C338.003 8.82899 338.282 8.42149 338.483 7.97276C338.691 7.51661 338.796 7.01558 338.796 6.46966C338.796 5.81158 338.662 5.23586 338.394 4.74224C338.126 4.24875 337.776 3.83748 337.344 3.50844C336.919 3.1794 336.436 2.9326 335.892 2.76802C335.349 2.60356 334.801 2.52133 334.251 2.52133C333.805 2.52133 333.376 2.54371 332.967 2.5886L332.531 16.2285C332.702 16.3556 332.907 16.4454 333.145 16.4977C333.384 16.5501 333.63 16.5763 333.882 16.5763C334.135 16.5763 334.385 16.5613 334.63 16.5314C334.876 16.494 335.096 16.4529 335.289 16.408C335.52 16.3556 335.736 16.2959 335.937 16.2285ZM367.572 15.892C367.006 16.3706 366.504 16.7445 366.064 17.0137C365.632 17.2829 365.26 17.4848 364.947 17.6194C364.59 17.7765 364.278 17.8737 364.009 17.9111C363.637 17.9934 363.225 17.9784 362.77 17.8662C362.324 17.7615 361.851 17.5857 361.352 17.3391C360.86 17.0922 360.358 16.7894 359.845 16.4304C359.331 16.0714 358.824 15.6901 358.326 15.2863C357.827 14.875 357.343 14.4525 356.874 14.0188C356.413 13.585 355.985 13.17 355.59 12.7737C355.203 12.3774 354.857 12.0146 354.552 11.6856C354.254 11.3491 354.02 11.0724 353.848 10.8555C353.699 10.6686 353.58 10.5153 353.491 10.3957C353.408 10.2685 353.367 10.1451 353.367 10.0254C353.367 9.91329 353.42 9.78617 353.525 9.6441C353.629 9.4946 353.807 9.3001 354.061 9.06083C354.194 8.93372 354.369 8.76549 354.585 8.55603C354.801 8.33926 355.039 8.09622 355.3 7.82692C355.568 7.55773 355.847 7.2698 356.138 6.96327C356.435 6.64919 356.725 6.33135 357.008 6.00985C357.299 5.68824 357.574 5.36674 357.835 5.04512C358.102 4.72363 358.333 4.42074 358.526 4.13659C358.728 3.8449 358.888 3.58313 359.007 3.3514C359.126 3.11202 359.186 2.91022 359.186 2.74564C359.186 2.52875 358.954 2.42037 358.494 2.42037C358.314 2.42037 358.143 2.4166 357.98 2.40918C357.838 2.40918 357.693 2.40918 357.544 2.40918C357.403 2.40164 357.292 2.40541 357.209 2.42037C357.596 2.19607 357.958 1.9866 358.292 1.79222C358.634 1.5903 358.966 1.4183 359.286 1.27622C359.614 1.12661 359.941 1.01068 360.269 0.928455C360.596 0.838803 360.942 0.793919 361.307 0.793919C361.471 0.793919 361.634 0.801341 361.798 0.816303C361.97 0.823842 362.148 0.846226 362.334 0.883571C361.992 1.48934 361.642 2.03903 361.285 2.53252C360.935 3.0186 360.581 3.46733 360.225 3.87859C359.874 4.28986 359.524 4.66755 359.175 5.01143C358.833 5.35543 358.494 5.68446 358.158 5.99854C357.823 6.30519 357.499 6.60431 357.187 6.896C356.874 7.18757 356.576 7.49046 356.294 7.80453C356.16 7.93919 356.1 8.09988 356.115 8.28684C356.138 8.4738 356.275 8.70941 356.528 8.99356C356.922 9.43475 357.358 9.91706 357.835 10.4405C358.319 10.9565 358.833 11.4762 359.376 11.9997C359.927 12.5232 360.499 13.0317 361.095 13.5253C361.698 14.0188 362.312 14.4562 362.937 14.8376C363.562 15.219 364.196 15.5255 364.836 15.7574C365.483 15.9818 366.127 16.0939 366.767 16.0939C367.103 16.0939 367.37 16.0266 367.572 15.892ZM355.847 15.7462C355.408 16.0453 354.975 16.322 354.552 16.5763C354.127 16.8305 353.718 17.0548 353.323 17.2493C352.936 17.4362 352.568 17.5895 352.218 17.7092C351.876 17.8288 351.559 17.9036 351.268 17.9335C350.979 17.9559 350.722 17.9597 350.498 17.9447C350.275 17.9373 350.088 17.8849 349.939 17.7877C349.799 17.6979 349.691 17.5522 349.616 17.3502C349.542 17.1408 349.504 16.853 349.504 16.4865C349.504 16.2995 349.504 15.9743 349.504 15.5107C349.511 15.047 349.515 14.4973 349.515 13.8617C349.523 13.2186 349.53 12.5194 349.538 11.7642C349.545 11.0014 349.552 10.2311 349.561 9.45348C349.568 8.67572 349.575 7.91669 349.583 7.17638C349.59 6.42854 349.597 5.75185 349.605 5.14608C349.612 4.54032 349.619 4.03186 349.628 3.6206C349.635 3.20179 349.642 2.9326 349.65 2.81291C349.657 2.67837 349.627 2.56622 349.561 2.47645C349.501 2.38668 349.415 2.31564 349.304 2.26333C349.199 2.20349 349.073 2.16237 348.924 2.13987C348.775 2.11749 348.619 2.1063 348.455 2.1063C348.194 2.1063 347.912 2.13245 347.606 2.18476C347.308 2.22964 347.025 2.28572 346.758 2.3531C347.13 2.11372 347.498 1.88941 347.862 1.68007C348.235 1.46318 348.607 1.27622 348.979 1.11919C349.352 0.962148 349.732 0.838804 350.119 0.749035C350.506 0.659265 350.903 0.61438 351.313 0.61438C351.477 0.61438 351.633 0.625571 351.782 0.648072C351.931 0.663034 352.061 0.692958 352.174 0.737843C352.292 0.775188 352.385 0.831263 352.453 0.906071C352.52 0.973339 352.552 1.05934 352.552 1.16407C352.552 1.44822 352.549 2.15118 352.542 3.27283C352.542 3.75148 352.538 4.34594 352.53 5.05632C352.53 5.76681 352.527 6.62669 352.52 7.6363C352.52 8.63837 352.516 9.8049 352.508 11.136C352.508 12.4596 352.508 13.9814 352.508 15.7013C352.895 15.7686 353.249 15.8172 353.569 15.8471C353.896 15.8771 354.191 15.892 354.451 15.892C354.682 15.892 354.883 15.8845 355.054 15.8695C355.225 15.8546 355.371 15.8397 355.489 15.8248C355.624 15.8023 355.742 15.7761 355.847 15.7462ZM379.632 1.18645C379.765 1.2463 379.829 1.33607 379.822 1.45564C379.822 1.57534 379.773 1.71364 379.676 1.87068C379.579 2.02772 379.442 2.19607 379.263 2.37549C379.092 2.54749 378.902 2.72325 378.693 2.90267C378.522 3.04475 378.325 3.19802 378.101 3.3626C377.908 3.51209 377.67 3.68409 377.387 3.87859C377.111 4.06555 376.795 4.27113 376.438 4.49555C376.639 4.30859 376.781 4.14024 376.863 3.99075C376.944 3.84113 376.985 3.70282 376.985 3.57571C376.985 3.40371 376.918 3.2541 376.784 3.12698C376.65 2.99987 376.479 2.89525 376.27 2.81291C376.062 2.72325 375.827 2.65222 375.567 2.59979C375.313 2.54748 375.065 2.51014 374.819 2.48764C374.58 2.45772 374.361 2.4391 374.159 2.43156C373.959 2.42414 373.81 2.42037 373.714 2.42037C373.319 2.42037 372.921 2.46149 372.519 2.54372C372.116 2.61852 371.755 2.74941 371.435 2.93637C371.115 3.11579 370.855 3.35883 370.654 3.66548C370.452 3.96459 370.353 4.33851 370.353 4.78713C370.353 5.2957 370.493 5.73312 370.776 6.0995C371.06 6.45846 371.432 6.77254 371.894 7.04173C372.355 7.31092 372.875 7.54653 373.457 7.74846C374.044 7.95038 374.637 8.14476 375.231 8.33172C375.835 8.51114 376.416 8.69445 376.974 8.88141C377.539 9.06825 378.031 9.28149 378.448 9.52075C378.998 9.84979 379.393 10.2349 379.632 10.6761C379.877 11.1099 380 11.5697 380 12.0557C380 12.6839 379.832 13.2822 379.498 13.8505C379.169 14.4113 378.738 14.9348 378.202 15.4209C377.673 15.907 377.07 16.3444 376.394 16.7333C375.716 17.1222 375.031 17.4549 374.339 17.7316C373.646 18.0083 372.976 18.2214 372.329 18.3709C371.681 18.5205 371.118 18.5954 370.642 18.5954C370.024 18.5954 369.481 18.5317 369.012 18.4046C368.543 18.2849 368.153 18.1392 367.839 17.9672C367.527 17.7952 367.293 17.6194 367.136 17.4399C366.987 17.2531 366.923 17.1034 366.947 16.9913C366.961 16.8566 367.028 16.7109 367.147 16.5539C367.274 16.3893 367.459 16.2135 367.706 16.0266C367.951 15.8397 368.26 15.634 368.632 15.4097C369.005 15.1853 369.455 14.9386 369.983 14.6693C369.767 14.8788 369.671 15.0731 369.694 15.2527C369.716 15.4321 369.82 15.5929 370.005 15.735C370.199 15.8771 370.449 16.0042 370.754 16.1163C371.067 16.2211 371.394 16.3108 371.736 16.3855C372.087 16.4529 372.437 16.5052 372.786 16.5426C373.137 16.58 373.445 16.5986 373.714 16.5986C374.168 16.5986 374.618 16.5501 375.065 16.4529C375.519 16.3556 375.924 16.2023 376.281 15.993C376.647 15.7761 376.94 15.4957 377.164 15.1517C377.394 14.8002 377.51 14.3777 377.51 13.8841C377.51 13.5925 377.45 13.2934 377.331 12.9868C377.212 12.6727 377.007 12.3698 376.717 12.0782C376.435 11.7865 376.051 11.5136 375.567 11.2594C375.082 10.9976 374.48 10.7733 373.758 10.5863C372.656 10.2948 371.726 9.99564 370.966 9.68898C370.214 9.37491 369.608 9.0421 369.146 8.69068C368.692 8.33172 368.375 7.94284 368.197 7.52415C368.019 7.0978 367.951 6.62304 367.997 6.0995C368.041 5.49385 368.223 4.94416 368.543 4.45067C368.863 3.94963 369.269 3.50467 369.76 3.11579C370.259 2.71948 370.814 2.37549 371.425 2.08379C372.041 1.79222 372.668 1.55295 373.3 1.36599C373.94 1.17149 374.562 1.02942 375.164 0.939647C375.767 0.842456 376.304 0.793919 376.772 0.793919C377.13 0.793919 377.465 0.80888 377.777 0.838803C378.098 0.868609 378.381 0.902302 378.626 0.939647C378.88 0.97711 379.092 1.02199 379.263 1.0743C379.435 1.11918 379.557 1.15653 379.632 1.18645Z" fill="#2B6777"/>
</svg>
