<svg width="380" height="88" viewBox="0 0 380 88" fill="none" xmlns="http://www.w3.org/2000/svg">
<path fill-rule="evenodd" clip-rule="evenodd" d="M323.578 27.5065C324.227 27.3398 324.91 27.2831 325.628 27.3369C325.684 41.0529 325.628 54.7404 325.458 68.399C325.458 54.7683 325.458 41.1374 325.458 27.5065C324.83 27.5065 324.205 27.5065 323.578 27.5065Z" fill="#2B6777"/>
<path fill-rule="evenodd" clip-rule="evenodd" d="M323.576 27.5071C324.204 27.5071 324.829 27.5071 325.456 27.5071C325.456 41.1379 325.456 54.7687 325.456 68.3996C325.423 69.3531 325.252 70.2581 324.944 71.1145C324.887 70.2492 324.972 69.4009 325.199 68.5693C325.314 55.2212 325.314 41.8733 325.199 28.5251C324.997 28.3448 324.911 28.1184 324.944 27.8464C324.025 27.7908 323.114 27.8473 322.21 28.0161C321.414 28.3798 320.616 28.4929 319.819 28.3554C321.004 27.8704 322.258 27.5877 323.576 27.5071Z" fill="#2B6777"/>
<path fill-rule="evenodd" clip-rule="evenodd" d="M324.944 71.1147C323.64 76.7277 320.395 80.8283 315.207 83.4165C314.497 83.7692 313.756 84.0237 312.985 84.18C312.073 84.1519 311.161 84.1802 310.252 84.2648C309.432 84.6098 308.578 84.7512 307.689 84.6891C307.661 71.1146 307.689 57.5403 307.775 43.9663C307.849 42.2067 308.19 40.5099 308.8 38.8758C309.094 39.0544 309.264 38.9414 309.312 38.5365C309.383 38.6141 309.468 38.6707 309.569 38.7062C309.659 38.2652 309.689 37.8128 309.655 37.3487C310.269 36.7943 310.755 36.1439 311.107 35.3975C311.028 35.3273 310.972 35.2423 310.935 35.143C311.192 34.9153 311.306 34.6325 311.277 34.2945C313.465 31.3962 316.314 29.4165 319.819 28.3558C320.616 28.4933 321.414 28.38 322.21 28.0165C323.114 27.8476 324.026 27.7911 324.944 27.8468C324.911 28.1188 324.997 28.3451 325.2 28.5255C325.314 41.8735 325.314 55.2216 325.2 68.5696C324.972 69.4011 324.888 70.2496 324.944 71.1147Z" fill="#2B6777"/>
<path fill-rule="evenodd" clip-rule="evenodd" d="M311.277 34.2937C311.307 34.6316 311.193 34.9143 310.936 35.1421C310.972 35.2415 311.029 35.3263 311.107 35.3966C310.755 36.143 310.27 36.7933 309.655 37.3479C309.689 37.812 309.66 38.2643 309.57 38.7053C309.469 38.6699 309.383 38.6132 309.313 38.5356C309.265 38.9405 309.095 39.0535 308.8 38.875C308.191 40.5089 307.849 42.2058 307.775 43.9654C307.69 57.5395 307.662 71.1137 307.69 84.6881C308.579 84.7502 309.433 84.6089 310.252 84.2639C311.161 84.1792 312.074 84.1509 312.986 84.1791C311.7 84.7365 310.333 85.0193 308.886 85.0275C308.374 85.0275 307.861 85.0275 307.349 85.0275C307.349 71.623 307.349 58.2183 307.349 44.8137C307.449 40.8351 308.759 37.3283 311.277 34.2937Z" fill="#2B6777"/>
<path fill-rule="evenodd" clip-rule="evenodd" d="M350.567 27.1669C351.215 27.0002 351.899 26.9435 352.617 26.9973C352.673 40.7132 352.617 54.4006 352.446 68.0594C352.446 54.4287 352.446 40.7978 352.446 27.1669C351.818 27.1669 351.193 27.1669 350.567 27.1669Z" fill="#2B6777"/>
<path fill-rule="evenodd" clip-rule="evenodd" d="M350.568 27.1671C351.195 27.1671 351.821 27.1671 352.448 27.1671C352.448 40.7979 352.448 54.4288 352.448 68.0596C352.415 69.0132 352.244 69.9181 351.935 70.7745C351.879 69.9093 351.965 69.0609 352.191 68.2293C352.306 54.8812 352.306 41.5333 352.191 28.1852C351.988 28.0049 351.903 27.7784 351.935 27.5064C351.018 27.4509 350.106 27.5074 349.202 27.6761C348.405 28.0398 347.608 28.1529 346.811 28.0155C347.996 27.5304 349.25 27.2477 350.568 27.1671Z" fill="#2B6777"/>
<path fill-rule="evenodd" clip-rule="evenodd" d="M351.934 70.7751C350.63 76.3881 347.385 80.4887 342.197 83.0769C341.488 83.4296 340.746 83.6841 339.976 83.8404C339.064 83.8122 338.152 83.8406 337.243 83.9252C336.422 84.2701 335.569 84.4116 334.681 84.3495C334.652 70.775 334.681 57.2007 334.765 43.6266C334.839 41.8671 335.181 40.1703 335.79 38.5362C336.085 38.7148 336.256 38.6018 336.303 38.1969C336.373 38.2745 336.459 38.3311 336.56 38.3666C336.65 37.9256 336.679 37.4732 336.645 37.0091C337.26 36.4547 337.745 35.8043 338.097 35.0579C338.019 34.9877 337.962 34.9027 337.926 34.8034C338.183 34.5757 338.297 34.2929 338.268 33.9549C340.457 31.0566 343.304 29.0769 346.809 28.0162C347.607 28.1537 348.404 28.0404 349.201 27.6769C350.105 27.508 351.017 27.4515 351.934 27.5072C351.902 27.7792 351.987 28.0055 352.19 28.1859C352.305 41.5339 352.305 54.882 352.19 68.23C351.964 69.0615 351.878 69.91 351.934 70.7751Z" fill="#2B6777"/>
<path fill-rule="evenodd" clip-rule="evenodd" d="M338.268 33.9548C338.296 34.2928 338.182 34.5755 337.925 34.8032C337.962 34.9027 338.018 34.9875 338.097 35.0577C337.745 35.8041 337.259 36.4545 336.645 37.009C336.679 37.4731 336.649 37.9254 336.559 38.3664C336.458 38.331 336.373 38.2743 336.302 38.1967C336.255 38.6016 336.084 38.7146 335.79 38.5361C335.18 40.1701 334.839 41.8669 334.765 43.6265C334.68 57.2006 334.651 70.7748 334.68 84.3493C335.568 84.4114 336.422 84.2701 337.243 83.925C338.152 83.8404 339.063 83.8121 339.975 83.8402C338.689 84.3976 337.323 84.6804 335.875 84.6886C335.363 84.6886 334.85 84.6886 334.338 84.6886C334.338 71.284 334.338 57.8795 334.338 44.4749C334.439 40.4962 335.749 36.9895 338.268 33.9548Z" fill="#2B6777"/>
<path fill-rule="evenodd" clip-rule="evenodd" d="M377.559 26.8278C378.208 26.661 378.891 26.6044 379.609 26.6582C379.665 40.3741 379.609 54.0615 379.437 67.7203C379.437 54.0896 379.437 40.4587 379.437 26.8278C378.811 26.8278 378.186 26.8278 377.559 26.8278Z" fill="#2B6777"/>
<path fill-rule="evenodd" clip-rule="evenodd" d="M377.558 26.8275C378.186 26.8275 378.811 26.8275 379.437 26.8275C379.437 40.4582 379.437 54.0892 379.437 67.72C379.406 68.6736 379.234 69.5785 378.925 70.4349C378.868 69.5697 378.954 68.7213 379.182 67.8897C379.296 54.5416 379.296 41.1937 379.182 27.8456C378.979 27.6653 378.893 27.4388 378.925 27.1668C378.008 27.1113 377.095 27.1678 376.192 27.3365C375.396 27.7002 374.598 27.8133 373.8 27.6759C374.985 27.1908 376.24 26.9081 377.558 26.8275Z" fill="#2B6777"/>
<path fill-rule="evenodd" clip-rule="evenodd" d="M378.925 70.4348C377.621 76.0478 374.375 80.1484 369.188 82.7366C368.478 83.0893 367.737 83.3438 366.967 83.5001C366.054 83.4719 365.142 83.5002 364.233 83.5849C363.413 83.9299 362.56 84.0712 361.671 84.0091C361.641 70.4347 361.671 56.8605 361.756 43.2864C361.83 41.5268 362.171 39.8299 362.781 38.196C363.076 38.3745 363.246 38.2615 363.294 37.8566C363.364 37.9342 363.45 37.9908 363.551 38.0263C363.641 37.5853 363.67 37.133 363.635 36.6689C364.251 36.1143 364.735 35.464 365.088 34.7176C365.01 34.6473 364.952 34.5624 364.917 34.463C365.173 34.2353 365.287 33.9526 365.258 33.6147C367.446 30.7162 370.294 28.7366 373.8 27.6759C374.598 27.8133 375.395 27.7001 376.192 27.3366C377.095 27.1677 378.007 27.1112 378.925 27.1668C378.892 27.4388 378.978 27.6652 379.181 27.8456C379.296 41.1937 379.296 54.5416 379.181 67.8896C378.953 68.7213 378.868 69.5697 378.925 70.4348Z" fill="#2B6777"/>
<path fill-rule="evenodd" clip-rule="evenodd" d="M365.258 33.6149C365.288 33.9528 365.173 34.2355 364.917 34.4632C364.952 34.5627 365.01 34.6475 365.088 34.7177C364.735 35.4642 364.251 36.1145 363.635 36.6691C363.669 37.1332 363.641 37.5855 363.551 38.0265C363.45 37.9911 363.364 37.9343 363.294 37.8567C363.246 38.2616 363.076 38.3746 362.781 38.1962C362.172 39.8301 361.83 41.5269 361.756 43.2865C361.671 56.8606 361.642 70.4349 361.671 84.0093C362.56 84.0714 363.414 83.9301 364.233 83.5851C365.142 83.5004 366.055 83.4721 366.967 83.5003C365.68 84.0577 364.314 84.3405 362.867 84.3486C362.355 84.3486 361.842 84.3486 361.33 84.3486C361.33 70.944 361.33 57.5395 361.33 44.1349C361.43 40.1563 362.74 36.6495 365.258 33.6149Z" fill="#2B6777"/>
<path d="M45.2148 47.5492C46.1616 47.6402 46.8335 47.7767 47.2304 47.9586C47.6275 48.1407 47.826 48.3985 47.826 48.7322C47.826 49.2176 47.5359 49.7333 46.9557 50.2792C46.4059 50.8253 45.6882 51.3864 44.8025 51.9628C43.9168 52.5391 42.9548 53.1004 41.9165 53.6463C40.8781 54.1924 39.8703 54.6929 38.893 55.1479C37.9463 55.5726 37.1064 55.9518 36.3734 56.2855C35.6404 56.5888 35.1519 56.7859 34.9075 56.877C35.3046 56.4523 35.4877 56.1034 35.4572 55.8304C35.4572 55.5271 35.3503 55.2844 35.1365 55.1024C34.8922 54.89 34.5562 54.7232 34.1288 54.6018C33.7928 54.5413 33.1361 54.526 32.1589 54.5564C31.1815 54.5867 29.9905 54.6625 28.5857 54.7839C27.1808 54.8749 25.6079 54.9963 23.8672 55.1479C22.1569 55.2996 20.3856 55.4361 18.5532 55.5575L17.8202 78.8543C18.5227 79.3699 19.3625 79.7339 20.3399 79.9463C21.3171 80.1587 22.325 80.2648 23.3633 80.2648C24.4017 80.2648 25.4248 80.2041 26.4326 80.0827C27.4404 79.931 28.3414 79.7642 29.1354 79.5823C30.0821 79.3699 30.9677 79.1272 31.7924 78.8543C30.5708 79.8856 29.1812 80.9473 27.6237 82.0393C26.0966 83.101 24.4628 84.087 22.7219 84.9969C20.9811 85.8766 19.1487 86.5895 17.2247 87.1355C15.3312 87.7118 13.4072 88 11.4526 88C10.8723 88 10.2768 87.9242 9.666 87.7725C9.08572 87.6208 8.56655 87.3478 8.10848 86.9535C7.65033 86.5895 7.26858 86.089 6.96317 85.4519C6.68831 84.815 6.58142 84.011 6.6425 83.0403C6.6425 82.464 6.67304 81.1142 6.73412 78.9908C6.76466 78.0807 6.7952 76.9735 6.82574 75.6691C6.85628 74.3647 6.88683 72.7873 6.91737 70.937C6.97844 69.0865 7.03952 66.948 7.10061 64.5213C7.16168 62.0642 7.23804 59.2582 7.32966 56.1034H6.00116L7.32966 55.3754L8.15421 24.9804H7.69614C6.32182 24.9804 4.97806 24.9652 3.66483 24.9349C2.38214 24.9046 1.16052 24.8591 0 24.7984L12.4604 18.1096C13.621 18.2613 14.7815 18.3675 15.9421 18.4282C17.1025 18.4585 18.263 18.4737 19.4236 18.4737C20.7673 18.4737 22.4318 18.4434 24.4169 18.3827C26.4326 18.2917 28.5552 18.1855 30.7846 18.0642C33.0139 17.9428 35.2587 17.8215 37.5187 17.7002C39.7787 17.5485 41.8401 17.4272 43.703 17.3362C45.5966 17.2148 47.1694 17.139 48.4216 17.1087C49.6737 17.048 50.4219 17.0327 50.6662 17.0631C51.1244 17.1238 51.2923 17.3362 51.1701 17.7002C51.0479 18.0338 50.7273 18.4585 50.2081 18.9742C49.7195 19.4899 49.0782 20.0662 48.2841 20.7033C47.4901 21.3099 46.6349 21.9167 45.7188 22.5233C44.8331 23.13 43.9474 23.7063 43.0618 24.2524C42.176 24.7681 41.3667 25.1928 40.6337 25.5264C41.0919 24.1008 39.7481 23.3879 36.6024 23.3879C33.8233 23.3879 31.0442 23.5244 28.265 23.7973C25.5163 24.0401 22.6303 24.2827 19.6069 24.5253L18.7365 50.0517C24.1726 49.354 28.6009 48.8383 32.0215 48.5047C35.4725 48.1407 38.1753 47.8828 40.1299 47.7312C42.4204 47.5795 44.1154 47.5188 45.2148 47.5492ZM76.32 0C76.32 0.879803 76.3353 1.72909 76.3659 2.5482C76.3964 3.3368 76.4116 4.11037 76.4116 4.86868C76.4116 6.65846 76.2589 8.19034 75.9535 9.46432C75.6482 10.7384 74.9304 11.7546 73.8005 12.5129C73.1286 12.9983 72.2887 13.5595 71.2809 14.1966C69.6012 15.2885 66.8984 16.9569 63.1725 19.2017C63.539 18.231 63.7985 17.0632 63.9512 15.6981C64.1345 14.3027 64.2567 12.9832 64.3178 11.7395C64.3788 10.2834 64.3788 8.7667 64.3178 7.18927C66.2418 6.18833 67.9368 5.26309 69.4027 4.41369C70.8686 3.53401 72.1208 2.76044 73.1591 2.0931C74.3808 1.33479 75.4344 0.637051 76.32 0ZM92.4453 77.5347C88.9637 79.8098 86.0013 81.5994 83.5581 82.9038C81.1454 84.2082 79.0687 85.1789 77.3279 85.8159C75.5871 86.453 74.1211 86.817 72.9301 86.908C71.739 86.9991 70.6548 86.9535 69.6776 86.7714C68.7919 86.6198 67.9215 86.3923 67.0664 86.089C66.2112 85.7856 65.4325 85.2396 64.73 84.4509C64.0581 83.6319 63.5084 82.464 63.0809 80.9473C62.6533 79.4306 62.4395 77.3678 62.4395 74.759C62.4395 72.575 62.5006 70.4213 62.6227 68.2979C62.7449 66.1441 62.8671 64.0207 62.9892 61.9276C63.1419 59.8042 63.2488 57.7111 63.3099 55.6484C63.4015 53.5554 63.4168 51.4775 63.3557 49.4147C63.2947 47.4127 62.9282 45.9566 62.2562 45.0466C61.5844 44.1062 60.5765 43.636 59.2328 43.636C58.7136 43.636 58.1486 43.6967 57.5378 43.818C56.927 43.9394 56.2704 44.1214 55.5679 44.3641C56.6674 43.6056 57.7974 42.8473 58.9579 42.089C60.1184 41.3003 61.2942 40.6026 62.4853 39.9959C63.6764 39.3893 64.8675 38.9039 66.0585 38.5399C67.2801 38.1455 68.4864 37.9484 69.6776 37.9484C70.9602 37.9484 72.0749 38.2365 73.0217 38.8129C73.999 39.3893 74.625 40.3448 74.8999 41.6795C74.9915 42.1951 75.0526 42.9534 75.0831 43.9545C75.1442 44.9556 75.1748 46.1234 75.1748 47.4581C75.1748 49.4298 75.129 51.6139 75.0374 54.0103C74.9763 56.4068 74.8999 58.7729 74.8083 61.1086C74.7166 63.4141 74.625 65.5526 74.5335 67.5243C74.4419 69.4658 74.3808 70.9673 74.3502 72.029C74.3197 73.0301 74.5028 74.031 74.8999 75.0321C75.2969 76.0331 75.8772 76.9431 76.6408 77.7622C77.4347 78.5508 78.3968 79.203 79.5268 79.7188C80.6873 80.2041 82.0006 80.4468 83.4665 80.4468C84.7491 80.4468 86.1387 80.2192 87.6352 79.7642C89.1317 79.3092 90.735 78.5661 92.4453 77.5347ZM109.716 79.9463L98.7672 87.7725C99.0419 81.918 99.2557 76.928 99.4084 72.8025C99.5611 68.6771 99.6681 65.2796 99.7292 62.6101C99.8208 59.4858 99.8665 56.9073 99.8665 54.8749C100.019 51.2045 99.5154 48.3378 98.3548 46.2751C97.1943 44.182 95.423 43.1355 93.0408 43.1355C92.2773 43.1355 91.468 43.2569 90.6128 43.4995C89.7883 43.7119 88.9026 44.0303 87.9559 44.455C89.1469 43.6056 90.3991 42.7412 91.7123 41.8615C93.0255 40.9514 94.3694 40.1324 95.7436 39.4044C97.1179 38.6764 98.4923 38.0849 99.8665 37.6298C101.271 37.1445 102.646 36.9018 103.99 36.9018C105.272 36.9018 106.433 37.1597 107.471 37.6753C108.54 38.191 109.349 39.0555 109.899 40.269C110.388 41.3003 110.724 42.453 110.907 43.727C111.121 45.0011 111.258 46.3965 111.319 47.9132C112.877 46.2751 114.617 44.7432 116.542 43.3176C118.496 41.8918 120.527 40.6784 122.634 39.6775C124.741 38.6764 126.864 37.9332 129.002 37.4478C131.14 36.9624 133.156 36.8412 135.049 37.0838C136.423 37.2658 137.843 37.645 139.309 38.2214C140.806 38.7976 142.165 39.6775 143.387 40.8605C144.638 42.0435 145.647 43.6056 146.41 45.5471C147.174 47.4581 147.524 49.8545 147.463 52.7364C147.372 56.1338 147.219 59.2582 147.006 62.1097C146.791 64.9307 146.685 67.4334 146.685 69.6174C146.685 70.9218 146.791 72.1655 147.006 73.3485C147.219 74.5013 147.585 75.5175 148.105 76.3971C148.655 77.2466 149.388 77.929 150.304 78.4447C151.22 78.9604 152.365 79.2183 153.74 79.2183C154.961 79.2183 156.244 78.9908 157.588 78.5357C158.962 78.0504 160.337 77.3224 161.711 76.3516C159.482 78.3233 157.435 79.9766 155.572 81.3113C153.74 82.646 152.029 83.7228 150.441 84.5419C148.853 85.3609 147.372 85.9373 145.997 86.271C144.623 86.6349 143.294 86.8018 142.012 86.7714C140.729 86.7412 139.631 86.4833 138.713 85.998C137.798 85.543 137.065 84.8301 136.515 83.8593C135.965 82.8584 135.583 81.5843 135.37 80.0373C135.155 78.4598 135.079 76.5337 135.14 74.2585C135.233 72.2565 135.355 70.0573 135.507 67.6609C135.66 65.2341 135.736 62.8377 135.736 60.4716C135.736 57.7718 135.553 55.4512 135.186 53.5099C134.82 51.5685 134.148 49.9759 133.171 48.7322C132.223 47.4581 130.896 46.5177 129.185 45.9111C127.506 45.3044 125.337 45.0011 122.68 45.0011C120.756 45.0011 119.123 45.3803 117.779 46.1386C116.435 46.8666 115.32 47.8677 114.434 49.1418C113.549 50.4158 112.846 51.9021 112.327 53.6009C111.838 55.2693 111.457 57.059 111.182 58.97C110.937 60.8507 110.769 62.7922 110.678 64.7942C110.586 66.766 110.51 68.6771 110.449 70.5274C110.418 72.3779 110.357 74.1221 110.265 75.7601C110.174 77.3678 109.991 78.7632 109.716 79.9463ZM227.54 77.9897C226.258 79.2637 224.868 80.4316 223.372 81.4933C221.906 82.5247 220.424 83.4195 218.928 84.1779C217.432 84.9362 215.981 85.543 214.576 85.998C213.171 86.453 211.888 86.7109 210.727 86.7714C210.087 86.8321 209.261 86.817 208.254 86.726C207.246 86.6653 206.268 86.4074 205.322 85.9524C204.406 85.4975 203.612 84.7846 202.94 83.8139C202.268 82.8431 201.931 81.4629 201.931 79.6733V74.2585C200.252 75.8966 198.481 77.474 196.618 78.9908C194.755 80.4771 192.831 81.8118 190.845 82.9948C188.892 84.1475 186.906 85.0576 184.89 85.725C182.874 86.4227 180.89 86.7714 178.935 86.7714C176.431 86.7714 174.232 86.2103 172.338 85.0879C170.446 83.9959 168.857 82.5702 167.575 80.8107C166.292 79.0514 165.33 77.0796 164.689 74.8956C164.047 72.7115 163.726 70.5425 163.726 68.3889C163.726 66.7812 163.849 65.2037 164.093 63.6567C164.337 62.0793 164.643 60.593 165.009 59.1976C165.406 57.8021 165.848 56.5433 166.337 55.421C166.857 54.2985 167.391 53.3734 167.941 52.6454C168.949 51.2803 170.231 49.9608 171.788 48.6867C173.347 47.4127 175.042 46.2144 176.873 45.0921C178.737 43.9697 180.707 42.9534 182.783 42.0435C184.86 41.1335 186.921 40.3448 188.968 39.6775C191.045 39.01 193.06 38.4943 195.015 38.1303C196.97 37.7663 198.771 37.5844 200.42 37.5844C202.131 37.5844 204.147 37.6753 206.468 37.8573C208.788 38.0091 211.43 38.3427 214.393 38.8583C214.27 42.3468 214.163 45.4257 214.072 48.0952C213.98 50.7646 213.904 53.1611 213.843 55.2844C213.782 57.3775 213.736 59.2886 213.706 61.0177C213.675 62.7466 213.659 64.4303 213.659 66.0683C213.659 67.7367 213.628 69.3747 213.567 70.9825C213.506 72.5902 213.628 74.031 213.934 75.3051C214.239 76.5791 214.835 77.6106 215.721 78.3992C216.638 79.1879 218.041 79.5823 219.935 79.5823C221.066 79.5823 222.272 79.4458 223.555 79.1727C224.837 78.8694 226.166 78.475 227.54 77.9897ZM202.024 45.4106C200.191 44.9253 198.236 44.5916 196.16 44.4095C194.083 44.1973 192.098 44.091 190.204 44.091C189.166 44.091 188.174 44.1214 187.226 44.182C186.31 44.2427 185.471 44.3185 184.707 44.4095C183.944 44.5006 183.272 44.6218 182.691 44.7736C182.111 44.8949 181.669 45.0465 181.363 45.2286C180.814 45.5017 180.172 46.169 179.439 47.2306C178.706 48.262 178.004 49.5512 177.332 51.0982C176.66 52.6454 176.079 54.3896 175.592 56.3309C175.133 58.2724 174.904 60.2744 174.904 62.3372C174.904 64.3089 175.194 66.2958 175.775 68.2979C176.355 70.2696 177.195 72.0441 178.294 73.6216C179.424 75.1989 180.799 76.4881 182.417 77.4892C184.066 78.4598 185.945 78.9452 188.052 78.9452C190.036 78.9452 191.793 78.6267 193.32 77.9897C194.847 77.3527 196.176 76.4881 197.305 75.3961C198.436 74.2738 199.367 72.9694 200.1 71.4829C200.863 69.9966 201.474 68.3889 201.931 66.6598C201.931 65.3858 201.931 64.0359 201.931 62.6101C201.931 61.1541 201.931 59.5616 201.931 57.8325C201.931 56.1034 201.931 54.2227 201.931 52.1903C201.963 50.1276 201.994 47.8677 202.024 45.4106ZM247.697 79.9463L236.748 87.7725C237.022 81.918 237.237 76.928 237.389 72.8025C237.542 68.6771 237.649 65.2796 237.71 62.6101C237.801 59.4858 237.848 56.9073 237.848 54.8749C238 51.2045 237.496 48.3378 236.335 46.2751C235.175 44.182 233.403 43.1355 231.021 43.1355C230.258 43.1355 229.449 43.2569 228.594 43.4995C227.769 43.7119 226.884 44.0303 225.936 44.455C227.128 43.6056 228.38 42.7412 229.693 41.8615C231.006 40.9514 232.35 40.1324 233.725 39.4044C235.099 38.6764 236.473 38.0849 237.848 37.6298C239.252 37.1445 240.626 36.9018 241.97 36.9018C243.253 36.9018 244.413 37.1597 245.452 37.6753C246.52 38.191 247.33 39.0555 247.88 40.269C248.369 41.3003 248.704 42.453 248.888 43.727C249.102 45.0011 249.239 46.3965 249.3 47.9132C250.857 46.2751 252.599 44.7432 254.522 43.3176C256.477 41.8918 258.508 40.6784 260.616 39.6775C262.722 38.6764 264.845 37.9332 266.982 37.4478C269.12 36.9624 271.136 36.8412 273.03 37.0838C274.404 37.2658 275.824 37.645 277.29 38.2214C278.786 38.7976 280.145 39.6775 281.367 40.8605C282.62 42.0435 283.627 43.6056 284.391 45.5471C285.154 47.4581 285.506 49.8545 285.444 52.7364C285.352 56.1338 285.2 59.2582 284.986 62.1097C284.773 64.9307 284.665 67.4334 284.665 69.6174C284.665 70.9218 284.773 72.1655 284.986 73.3485C285.2 74.5013 285.567 75.5175 286.085 76.3971C286.635 77.2466 287.368 77.929 288.284 78.4447C289.201 78.9604 290.346 79.2183 291.72 79.2183C292.942 79.2183 294.224 78.9908 295.568 78.5357C296.943 78.0504 298.317 77.3224 299.691 76.3516C297.462 78.3233 295.416 79.9766 293.553 81.3113C291.72 82.646 290.01 83.7228 288.421 84.5419C286.833 85.3609 285.352 85.9373 283.978 86.271C282.605 86.6349 281.276 86.8018 279.993 86.7714C278.71 86.7412 277.611 86.4833 276.694 85.998C275.778 85.543 275.045 84.8301 274.496 83.8593C273.946 82.8584 273.564 81.5843 273.35 80.0373C273.137 78.4598 273.061 76.5337 273.122 74.2585C273.213 72.2565 273.335 70.0573 273.488 67.6609C273.64 65.2341 273.716 62.8377 273.716 60.4716C273.716 57.7718 273.533 55.4512 273.168 53.5099C272.8 51.5685 272.128 49.9759 271.152 48.7322C270.205 47.4581 268.876 46.5177 267.167 45.9111C265.486 45.3044 263.318 45.0011 260.661 45.0011C258.737 45.0011 257.103 45.3803 255.759 46.1386C254.415 46.8666 253.301 47.8677 252.415 49.1418C251.529 50.4158 250.827 51.9021 250.307 53.6009C249.819 55.2693 249.437 57.059 249.163 58.97C248.919 60.8507 248.75 62.7922 248.658 64.7942C248.567 66.766 248.491 68.6771 248.43 70.5274C248.399 72.3779 248.338 74.1221 248.247 75.7601C248.155 77.3678 247.971 78.7632 247.697 79.9463Z" fill="#F3F3F3"/>
<path d="M325.431 8.58045C325.431 9.57126 325.26 10.4881 324.917 11.331C324.582 12.1739 324.128 12.9429 323.555 13.6379C322.981 14.3256 322.318 14.9356 321.567 15.4679C320.815 16.0002 320.026 16.4477 319.2 16.8099C318.373 17.1722 317.533 17.4458 316.676 17.6307C315.827 17.8155 315.019 17.9079 314.253 17.9079C313.122 17.9079 312.086 17.7194 311.149 17.3423C310.218 16.9726 309.418 16.455 308.749 15.7895C308.078 15.124 307.557 14.3329 307.185 13.416C306.819 12.4992 306.638 11.4973 306.638 10.4104C306.638 9.45664 306.805 8.5582 307.14 7.71532C307.482 6.86499 307.941 6.08862 308.514 5.38623C309.095 4.67637 309.764 4.04049 310.523 3.47857C311.29 2.91665 312.098 2.44337 312.947 2.05886C313.803 1.66701 314.673 1.36753 315.56 1.16054C316.452 0.953545 317.313 0.849991 318.139 0.849991C318.884 0.849991 319.579 0.94609 320.227 1.1384C320.875 1.32315 321.467 1.58943 322.003 1.9369C322.546 2.27703 323.03 2.68741 323.454 3.16802C323.878 3.64118 324.236 4.16617 324.526 4.74288C324.823 5.31226 325.047 5.92228 325.196 6.57296C325.352 7.22364 325.431 7.89273 325.431 8.58045ZM315.37 2.32514C314.402 2.32514 313.557 2.50255 312.834 2.85747C312.12 3.20495 311.525 3.67822 311.048 4.27706C310.572 4.87602 310.215 5.5747 309.976 6.37331C309.745 7.16447 309.631 8.00373 309.631 8.89099C309.631 10.0075 309.828 11.0315 310.222 11.9631C310.617 12.8948 311.156 13.697 311.841 14.3699C312.533 15.0427 313.348 15.5677 314.286 15.9448C315.225 16.3145 316.24 16.4994 317.335 16.4994C317.93 16.4994 318.471 16.4033 318.954 16.2111C319.438 16.0188 319.87 15.7599 320.25 15.4346C320.629 15.1019 320.957 14.7174 321.233 14.2812C321.515 13.8376 321.746 13.3681 321.924 12.8726C322.103 12.3772 322.236 11.8708 322.327 11.3531C322.416 10.8282 322.46 10.318 322.46 9.82263C322.46 8.7801 322.289 7.80408 321.947 6.89457C321.604 5.98507 321.12 5.19391 320.495 4.5211C319.87 3.84083 319.122 3.30477 318.25 2.91292C317.38 2.52107 316.42 2.32514 315.37 2.32514ZM335.938 16.0446C335.64 16.2887 335.302 16.5438 334.922 16.8099C334.55 17.0687 334.151 17.3053 333.727 17.5198C333.302 17.7416 332.856 17.9227 332.388 18.0632C331.926 18.2036 331.457 18.2739 330.98 18.2739C330.838 18.2739 330.698 18.2555 330.556 18.2184C330.414 18.1815 330.287 18.115 330.176 18.0189C330.064 17.9301 329.972 17.8081 329.897 17.6528C329.83 17.4975 329.801 17.3016 329.808 17.065C329.808 16.7914 329.823 16.1038 329.852 15.0021C329.859 14.5363 329.871 13.9558 329.886 13.2608C329.908 12.5658 329.931 11.7266 329.953 10.7432C329.982 9.75973 330.016 8.61737 330.054 7.31601C330.09 6.00732 330.131 4.51003 330.176 2.82416C329.982 2.84641 329.792 2.8612 329.607 2.86854C329.421 2.86854 329.231 2.86854 329.037 2.86854C328.754 2.86854 328.434 2.8612 328.077 2.84641C327.727 2.83161 327.362 2.80203 326.982 2.75765L329.808 0.983131C330.388 1.06444 330.936 1.11988 331.449 1.14947C331.963 1.17906 332.388 1.19385 332.722 1.19385C333.095 1.19385 333.451 1.18267 333.794 1.16054C334.144 1.13095 334.487 1.10136 334.821 1.07178C335.157 1.03485 335.487 1.00526 335.816 0.983131C336.143 0.953544 336.474 0.938751 336.809 0.938751C337.464 0.938751 338.093 1.0126 338.696 1.16054C339.299 1.30847 339.828 1.54132 340.281 1.85932C340.735 2.16987 341.096 2.57652 341.365 3.07926C341.641 3.58212 341.778 4.18842 341.778 4.89816C341.778 5.27533 341.715 5.66346 341.588 6.06276C341.461 6.45461 341.254 6.8502 340.963 7.2495C340.672 7.64136 340.285 8.03321 339.802 8.42517C339.326 8.80957 338.733 9.17929 338.026 9.53422C338.763 10.2145 339.434 10.8245 340.036 11.3643C340.646 11.904 341.197 12.3846 341.689 12.8061C342.18 13.2276 342.615 13.5936 342.995 13.9041C343.375 14.2072 343.709 14.4698 344 14.6915C344.67 15.2091 345.187 15.564 345.552 15.7563C345.738 15.845 345.935 15.9227 346.144 15.9892C346.322 16.0483 346.524 16.1001 346.747 16.1444C346.978 16.1888 347.219 16.2111 347.473 16.2111C347.629 16.2111 347.781 16.1999 347.93 16.1778C348.079 16.1482 348.228 16.1038 348.377 16.0446C348.02 16.3182 347.67 16.5771 347.327 16.821C346.985 17.065 346.639 17.2757 346.289 17.4533C345.947 17.638 345.596 17.7822 345.24 17.8858C344.889 17.9967 344.529 18.0521 344.156 18.0521C343.947 18.0521 343.747 18.03 343.553 17.9856C343.36 17.9487 343.163 17.8858 342.961 17.797C342.761 17.7084 342.555 17.5937 342.348 17.4533C342.146 17.3128 341.93 17.139 341.699 16.9319C341.394 16.6805 340.944 16.2924 340.348 15.7674C340.096 15.5456 339.798 15.2793 339.456 14.9688C339.113 14.6582 338.718 14.2997 338.271 13.893C337.825 13.4863 337.319 13.0279 336.753 12.5177C336.194 12.0002 335.573 11.4197 334.888 10.7764C335.424 10.5767 335.931 10.3364 336.407 10.0555C336.883 9.77452 337.297 9.45291 337.646 9.09065C338.004 8.72827 338.283 8.32535 338.484 7.88166C338.692 7.43063 338.797 6.93523 338.797 6.39544C338.797 5.74476 338.663 5.17551 338.394 4.68744C338.127 4.19949 337.776 3.79284 337.345 3.4675C336.92 3.14216 336.437 2.89813 335.893 2.7354C335.35 2.57279 334.802 2.49148 334.252 2.49148C333.806 2.49148 333.377 2.51361 332.968 2.55799L332.532 16.0446C332.703 16.1703 332.908 16.2591 333.146 16.3108C333.384 16.3626 333.631 16.3885 333.883 16.3885C334.136 16.3885 334.386 16.3737 334.631 16.3441C334.877 16.3072 335.097 16.2665 335.29 16.2221C335.521 16.1703 335.737 16.1112 335.938 16.0446ZM367.572 15.7119C367.006 16.1851 366.504 16.5548 366.064 16.821C365.633 17.0872 365.261 17.2868 364.948 17.4199C364.59 17.5752 364.278 17.6713 364.01 17.7084C363.638 17.7897 363.225 17.7749 362.77 17.664C362.324 17.5604 361.852 17.3866 361.352 17.1427C360.861 16.8987 360.359 16.5992 359.845 16.2443C359.331 15.8893 358.825 15.5123 358.326 15.113C357.828 14.7063 357.344 14.2886 356.875 13.8597C356.414 13.4308 355.986 13.0205 355.59 12.6286C355.203 12.2368 354.857 11.8781 354.553 11.5528C354.255 11.2201 354.02 10.9465 353.849 10.732C353.7 10.5472 353.58 10.3956 353.491 10.2774C353.409 10.1516 353.368 10.0296 353.368 9.91128C353.368 9.80038 353.421 9.6747 353.525 9.53422C353.63 9.3864 353.808 9.19409 354.061 8.95751C354.195 8.83182 354.37 8.66548 354.585 8.45837C354.801 8.24404 355.039 8.00374 355.301 7.73745C355.568 7.47129 355.847 7.1866 356.138 6.88351C356.436 6.57296 356.726 6.25869 357.008 5.9408C357.299 5.6228 357.575 5.30492 357.835 4.98692C358.102 4.66903 358.333 4.36955 358.527 4.08859C358.729 3.80018 358.888 3.54135 359.008 3.31223C359.126 3.07553 359.186 2.876 359.186 2.71327C359.186 2.49882 358.955 2.39166 358.494 2.39166C358.315 2.39166 358.143 2.38793 357.98 2.38059C357.839 2.38059 357.693 2.38059 357.544 2.38059C357.403 2.37313 357.292 2.37686 357.21 2.39166C357.597 2.16987 357.958 1.96276 358.292 1.77056C358.635 1.57091 358.967 1.40084 359.287 1.26036C359.614 1.11243 359.941 0.997809 360.27 0.916503C360.597 0.827859 360.943 0.783479 361.308 0.783479C361.472 0.783479 361.635 0.790818 361.799 0.805611C361.97 0.813066 362.148 0.835198 362.335 0.872123C361.992 1.47108 361.643 2.0146 361.285 2.50255C360.936 2.98316 360.582 3.42685 360.225 3.83349C359.874 4.24014 359.525 4.61359 359.176 4.9536C358.833 5.29374 358.494 5.61907 358.159 5.92962C357.823 6.23283 357.5 6.52858 357.188 6.817C356.875 7.10529 356.577 7.40478 356.294 7.71532C356.16 7.84846 356.101 8.00735 356.116 8.19221C356.138 8.37707 356.275 8.61003 356.529 8.89099C356.923 9.32722 357.359 9.80411 357.835 10.3216C358.319 10.8318 358.833 11.3458 359.376 11.8633C359.927 12.381 360.5 12.8837 361.095 13.3718C361.698 13.8597 362.313 14.2922 362.938 14.6694C363.563 15.0465 364.196 15.3496 364.836 15.5788C365.484 15.8007 366.128 15.9116 366.768 15.9116C367.103 15.9116 367.371 15.845 367.572 15.7119ZM355.847 15.5677C355.409 15.8635 354.976 16.1371 354.553 16.3885C354.128 16.6399 353.719 16.8616 353.324 17.054C352.937 17.2388 352.568 17.3904 352.219 17.5087C351.876 17.6269 351.56 17.7009 351.269 17.7305C350.979 17.7526 350.722 17.7564 350.498 17.7416C350.276 17.7342 350.089 17.6824 349.94 17.5863C349.799 17.4975 349.692 17.3534 349.616 17.1538C349.543 16.9467 349.505 16.6621 349.505 16.2997C349.505 16.1149 349.505 15.7932 349.505 15.3349C349.512 14.8764 349.516 14.3329 349.516 13.7045C349.524 13.0686 349.531 12.3772 349.539 11.6305C349.546 10.8762 349.553 10.1147 349.561 9.34575C349.568 8.57672 349.575 7.82621 349.584 7.09423C349.591 6.35479 349.598 5.6857 349.606 5.08674C349.613 4.48778 349.62 3.98504 349.628 3.57839C349.635 3.16429 349.642 2.89813 349.65 2.77978C349.658 2.64676 349.628 2.53586 349.561 2.4471C349.502 2.35834 349.416 2.2881 349.305 2.23638C349.2 2.17721 349.073 2.13656 348.925 2.11431C348.776 2.09218 348.62 2.08111 348.455 2.08111C348.195 2.08111 347.912 2.10697 347.606 2.15869C347.309 2.20307 347.026 2.25851 346.758 2.32514C347.13 2.08845 347.498 1.86666 347.863 1.65967C348.236 1.44522 348.608 1.26036 348.98 1.10509C349.353 0.949818 349.733 0.82786 350.12 0.739099C350.507 0.650338 350.904 0.605957 351.313 0.605957C351.478 0.605957 351.634 0.617022 351.783 0.639271C351.931 0.654064 352.062 0.683652 352.174 0.728033C352.293 0.764958 352.385 0.820404 352.453 0.894371C352.52 0.960883 352.553 1.04592 352.553 1.14947C352.553 1.43043 352.549 2.12549 352.542 3.23453C352.542 3.70781 352.539 4.29559 352.531 4.99798C352.531 5.7005 352.527 6.55071 352.52 7.54898C352.52 8.53979 352.517 9.69322 352.508 11.0094C352.508 12.3181 352.508 13.8228 352.508 15.5234C352.895 15.5899 353.25 15.638 353.57 15.6676C353.897 15.6971 354.191 15.7119 354.452 15.7119C354.683 15.7119 354.883 15.7045 355.054 15.6897C355.226 15.6749 355.371 15.6602 355.49 15.6454C355.624 15.6232 355.743 15.5973 355.847 15.5677ZM379.632 1.1716C379.765 1.23078 379.829 1.31954 379.822 1.43777C379.822 1.55612 379.774 1.69287 379.676 1.84814C379.579 2.00341 379.442 2.16987 379.263 2.34728C379.092 2.51734 378.902 2.69114 378.694 2.86854C378.522 3.00902 378.325 3.16057 378.101 3.32329C377.908 3.47111 377.67 3.64118 377.387 3.83349C377.111 4.01835 376.795 4.22162 376.438 4.44352C376.639 4.25866 376.781 4.09221 376.863 3.94439C376.944 3.79645 376.985 3.6597 376.985 3.53401C376.985 3.36395 376.918 3.21601 376.784 3.09033C376.651 2.96464 376.479 2.8612 376.271 2.77978C376.062 2.69114 375.827 2.6209 375.567 2.56906C375.314 2.51734 375.065 2.48042 374.819 2.45817C374.581 2.42858 374.361 2.41018 374.16 2.40272C373.959 2.39538 373.81 2.39166 373.714 2.39166C373.319 2.39166 372.921 2.43231 372.519 2.51361C372.117 2.58758 371.756 2.71699 371.435 2.90185C371.115 3.07926 370.855 3.31957 370.654 3.62277C370.453 3.91853 370.353 4.28825 370.353 4.73182C370.353 5.23468 370.494 5.66719 370.776 6.02945C371.06 6.38438 371.432 6.69492 371.894 6.96109C372.355 7.22725 372.876 7.46022 373.457 7.65987C374.045 7.85953 374.637 8.05173 375.232 8.23659C375.836 8.41399 376.416 8.59524 376.974 8.7801C377.54 8.96484 378.031 9.17568 378.448 9.41226C378.998 9.7376 379.394 10.1184 379.632 10.5546C379.877 10.9835 380 11.4381 380 11.9188C380 12.5399 379.832 13.1315 379.498 13.6934C379.17 14.2479 378.738 14.7655 378.202 15.2461C377.673 15.7267 377.07 16.1592 376.394 16.5438C375.716 16.9283 375.031 17.2572 374.339 17.5308C373.646 17.8045 372.976 18.0152 372.329 18.163C371.682 18.3109 371.119 18.3849 370.643 18.3849C370.025 18.3849 369.482 18.322 369.013 18.1963C368.543 18.078 368.153 17.9339 367.84 17.7638C367.528 17.5937 367.293 17.4199 367.136 17.2424C366.987 17.0577 366.924 16.9097 366.947 16.7989C366.961 16.6657 367.028 16.5216 367.148 16.3664C367.274 16.2036 367.46 16.0298 367.706 15.845C367.951 15.6602 368.261 15.4568 368.633 15.2351C369.005 15.0132 369.456 14.7692 369.984 14.503C369.768 14.7101 369.672 14.9023 369.694 15.0798C369.716 15.2572 369.821 15.4162 370.006 15.5567C370.199 15.6971 370.449 15.8228 370.754 15.9337C371.067 16.0373 371.394 16.126 371.737 16.1999C372.087 16.2665 372.437 16.3182 372.786 16.3552C373.137 16.3922 373.445 16.4106 373.714 16.4106C374.168 16.4106 374.618 16.3626 375.065 16.2665C375.519 16.1703 375.925 16.0188 376.281 15.8118C376.647 15.5973 376.94 15.3201 377.164 14.98C377.394 14.6324 377.51 14.2147 377.51 13.7266C377.51 13.4383 377.45 13.1425 377.331 12.8393C377.212 12.5288 377.007 12.2293 376.717 11.941C376.435 11.6526 376.051 11.3827 375.567 11.1313C375.083 10.8725 374.48 10.6507 373.759 10.4659C372.656 10.1776 371.726 9.88181 370.966 9.5786C370.215 9.26805 369.608 8.93899 369.146 8.59151C368.692 8.23659 368.376 7.85207 368.197 7.43809C368.019 7.01653 367.951 6.54711 367.997 6.02945C368.041 5.43061 368.223 4.88709 368.543 4.39914C368.864 3.90373 369.269 3.46377 369.761 3.07926C370.259 2.68741 370.814 2.34727 371.425 2.05886C372.042 1.77056 372.668 1.53399 373.3 1.34913C373.94 1.15681 374.562 1.01633 375.165 0.927569C375.768 0.83147 376.305 0.783479 376.773 0.783479C377.13 0.783479 377.466 0.798272 377.778 0.827859C378.098 0.857329 378.382 0.890644 378.627 0.927569C378.88 0.964611 379.092 1.00899 379.263 1.06071C379.435 1.10509 379.557 1.14202 379.632 1.1716Z" fill="#2B6777"/>
</svg>
